<svg width="70" height="26" viewBox="0 0 70 26" fill="none" xmlns="http://www.w3.org/2000/svg">
<path d="M12.8111 24.6431C12.6308 24.8535 12.4204 24.9937 12.1799 25.0538C11.9395 25.114 11.699 25.144 11.4786 25.144C11.2182 25.144 10.9477 25.1039 10.6671 25.0338C10.6371 24.9236 10.6171 24.8134 10.587 24.7232C10.5569 24.6331 10.5369 24.5329 10.5068 24.4327C10.3666 24.0019 10.2564 23.5811 10.1762 23.1503C10.0961 22.7195 10.056 22.2887 10.056 21.8279C10.056 21.6175 10.046 21.3971 10.0159 21.1667C9.98589 20.9363 9.97587 20.7159 9.95583 20.4854C9.92578 20.1248 9.91576 19.7641 9.90574 19.4034C9.90574 19.0428 9.88571 18.6821 9.87569 18.3214C9.84563 17.6702 9.82559 17.019 9.80556 16.3779C9.78552 15.7267 9.7755 15.0855 9.7755 14.4343C9.7755 13.8933 9.7755 13.3623 9.79554 12.8313C9.80556 12.3004 9.81558 11.7794 9.83561 11.2484C9.83561 11.1683 9.83561 11.0981 9.83561 11.018C9.83561 10.9378 9.83561 10.8477 9.83561 10.7475H2.98299C2.99301 10.9779 3.00303 11.1983 3.01305 11.4187C3.02307 11.6391 3.03309 11.8595 3.06314 12.09C3.08318 12.5308 3.11323 12.9716 3.13327 13.4224C3.15331 13.8733 3.17334 14.3241 3.2034 14.7549C3.22344 15.1957 3.26351 15.6265 3.29357 16.0673C3.33364 16.4981 3.36369 16.9389 3.38373 17.3797C3.46388 18.2613 3.51397 19.1329 3.54403 20.0045C3.57408 20.8761 3.54403 21.7478 3.4739 22.6294C3.44384 23.0301 3.40377 23.4309 3.32362 23.8216C3.24347 24.2123 3.12325 24.603 2.94292 24.9837C2.88281 25.124 2.78262 25.2342 2.6624 25.3344C2.53216 25.4245 2.40192 25.4646 2.25165 25.4345C2.19154 25.4245 2.13142 25.3945 2.07131 25.3444C2.0112 25.2943 1.96111 25.2442 1.91102 25.1941C1.58041 24.8334 1.36 24.4327 1.22976 24.0119C1.09952 23.5811 1.00936 23.1503 0.949248 22.6895C0.849064 21.7478 0.748879 20.816 0.658713 19.9044C0.568547 18.9927 0.468362 18.061 0.368178 17.1192C0.177827 15.2959 0.0676245 13.4525 0.0275507 11.5991C0.0275507 11.2685 0.0275507 10.9479 0.00751384 10.6072C-0.00250461 10.2766 -0.00250461 9.94602 0.00751384 9.61541C0.0175323 8.60355 0.0576061 7.57165 0.117717 6.52973C0.147772 5.9687 0.177827 5.40766 0.217901 4.86667C0.257975 4.32567 0.298049 3.77465 0.318086 3.22364C0.338123 2.89303 0.35816 2.57244 0.378196 2.25185C0.388215 1.93126 0.428289 1.61067 0.488399 1.28006C0.508436 1.09973 0.558529 0.949452 0.628658 0.799175C0.698787 0.658917 0.778934 0.518659 0.879119 0.3784C0.899156 0.338327 0.93923 0.308271 0.969285 0.298253C1.00936 0.278216 1.03941 0.268197 1.07949 0.248161C1.22976 0.248161 1.38004 0.248161 1.5203 0.258179C1.66056 0.258179 1.80082 0.31829 1.94107 0.418474C1.96111 0.44853 2.00119 0.458548 2.04126 0.468566C2.08133 0.468566 2.12141 0.488603 2.16148 0.518659C2.26166 0.568751 2.35183 0.648898 2.442 0.749083C2.53216 0.859286 2.60229 0.979507 2.67242 1.10975C2.73253 1.23999 2.78262 1.38025 2.8227 1.5205C2.86277 1.66076 2.87279 1.791 2.86277 1.91122C2.85275 2.11159 2.85275 2.31196 2.86277 2.51233C2.87279 2.7127 2.88281 2.92309 2.88281 3.13347V4.47595C2.88281 4.92678 2.88281 5.36759 2.90285 5.81842C2.90285 6.4596 2.90285 7.10078 2.90285 7.74196C2.90285 8.38314 2.92288 9.02432 2.9329 9.6655C2.9329 9.69556 2.9329 9.71559 2.9329 9.74565C2.9329 9.7757 2.9329 9.79574 2.9329 9.8258C3.51397 9.78572 4.08502 9.74565 4.65607 9.71559C5.22713 9.67552 5.79818 9.64547 6.35921 9.62543C6.94028 9.59537 7.51133 9.59537 8.08238 9.60539C8.65344 9.61541 9.24452 9.62543 9.84563 9.62543C9.85565 9.4451 9.86567 9.2848 9.88571 9.12451C9.89572 8.96421 9.90574 8.81393 9.90574 8.66366C9.92578 7.9824 9.95583 7.32119 9.97587 6.65997C9.99591 5.99875 10.026 5.33753 10.056 4.67632C10.0761 4.16537 10.1161 3.65443 10.1562 3.14349C10.1963 2.63255 10.2764 2.13163 10.3866 1.63071C10.4367 1.42032 10.5068 1.20993 10.587 0.999544C10.6671 0.789157 10.7573 0.588788 10.8575 0.388419C10.9176 0.248161 11.0478 0.157995 11.2382 0.117921C11.4285 0.0778469 11.5888 0.0978838 11.7291 0.198068C11.9295 0.338327 12.0998 0.488603 12.23 0.658917C12.3603 0.829231 12.4504 1.03962 12.5005 1.29008C12.6107 1.92124 12.6909 2.54239 12.7309 3.17355C12.771 3.80471 12.8111 4.43587 12.8512 5.07705C12.8712 5.47779 12.9013 5.87853 12.9213 6.26925C12.9413 6.66999 12.9513 7.06071 12.9714 7.46144C12.9914 7.86218 13.0115 8.27294 13.0115 8.68369C13.0115 9.09445 13.0115 9.50521 13.0315 9.90595C13.0515 10.3968 13.0716 10.8777 13.0916 11.3686C13.1016 11.8495 13.1116 12.3404 13.1317 12.8313C13.1517 13.4124 13.1818 13.9835 13.2018 14.5645C13.2218 15.1456 13.2419 15.7166 13.2719 16.2977C13.292 16.7385 13.322 17.1793 13.3421 17.6302C13.3621 18.071 13.3821 18.5218 13.4122 18.9526C13.4322 19.6539 13.4423 20.3552 13.4423 21.0565C13.4423 21.7578 13.4022 22.449 13.3421 23.1604C13.312 23.4509 13.2619 23.7214 13.1818 23.9819C13.1016 24.2423 12.9714 24.4728 12.7911 24.6832L12.8111 24.6431Z" fill="#3B3B42"/>
<path d="M31.4057 24.5829C31.4057 24.7232 31.3356 24.8434 31.1853 24.9536C31.0451 25.0638 30.9048 25.144 30.7846 25.2041C30.6844 25.2542 30.5842 25.3043 30.494 25.3544C30.4039 25.4044 30.3037 25.4245 30.2035 25.4145C29.913 25.3844 29.6224 25.3844 29.3419 25.3944C29.0514 25.4044 28.7809 25.3343 28.5104 25.184C28.2299 25.0438 27.9995 24.8634 27.7991 24.643C27.5987 24.4226 27.4284 24.1722 27.2881 23.8816C27.0577 23.4408 26.8774 23 26.7271 22.5492C26.5768 22.0984 26.4466 21.6375 26.3464 21.1566C26.2362 20.5956 26.0959 20.0446 25.9457 19.5036C25.7854 18.9626 25.6351 18.4216 25.4848 17.8706C25.3245 17.2795 25.1843 16.6884 25.064 16.0873C24.9438 15.4862 24.8236 14.8951 24.6934 14.294C24.6934 14.2639 24.6934 14.2439 24.6934 14.2239C24.6934 14.2038 24.6934 14.1838 24.6934 14.1537C24.6633 14.0135 24.6433 13.9133 24.6132 13.8331C24.5832 13.753 24.5531 13.7029 24.513 13.6628C24.473 13.6228 24.4128 13.6027 24.3327 13.5927C24.2526 13.5927 24.1524 13.5927 24.0121 13.5927C22.8299 13.5927 21.6478 13.5326 20.4756 13.4224C20.4155 13.4124 20.3454 13.4023 20.2652 13.4224C20.1851 13.4224 20.0949 13.4224 19.9847 13.4224C19.8244 13.4324 19.7042 13.4424 19.624 13.4224C19.5439 13.4224 19.4938 13.4224 19.4437 13.4524C19.4036 13.4825 19.3636 13.5326 19.3235 13.6228C19.2834 13.7129 19.2333 13.8532 19.1532 14.0535C18.7424 15.0654 18.3216 16.0873 17.9009 17.0891C17.4801 18.101 17.0593 19.1129 16.6486 20.1247C16.4983 20.4854 16.368 20.8561 16.2478 21.2268C16.1276 21.5974 15.9974 21.9681 15.8571 22.3488C15.797 22.5492 15.7068 22.7295 15.6066 22.8898C15.4964 23.0501 15.3562 23.2004 15.1859 23.3406C15.1157 23.4008 15.0356 23.4609 14.9554 23.5009C14.8753 23.541 14.7851 23.531 14.6849 23.4709C14.5847 23.4108 14.5246 23.3306 14.5046 23.2405C14.4846 23.1503 14.4846 23.0501 14.5046 22.9499C14.6449 22.4089 14.7751 21.878 14.9053 21.337C15.0356 20.806 15.1959 20.275 15.3662 19.744C15.807 18.3715 16.2879 17.029 16.8289 15.7066C17.3599 14.3842 17.8708 13.0317 18.3417 11.6692C18.6021 10.8877 18.8927 10.1363 19.2033 9.40498C19.5138 8.67364 19.8244 7.93227 20.135 7.17087C20.4455 6.4295 20.7561 5.69816 21.0567 4.96681C21.3572 4.23546 21.6578 3.51414 21.9583 2.78279L22.4492 1.46035C22.4993 1.36017 22.5394 1.27 22.5594 1.17984C22.5795 1.08967 22.6496 1.01954 22.7498 0.949412C22.9301 0.849228 23.0804 0.739025 23.2307 0.628822C23.3809 0.518619 23.5212 0.398398 23.6715 0.288195C23.8017 0.198029 23.952 0.1279 24.1223 0.0577705C24.3527 0.00767821 24.5631 -0.0123587 24.7835 0.00767821C24.9939 0.0277151 25.1242 0.147936 25.1642 0.378361C25.3546 0.929376 25.565 1.60061 25.8054 2.37203C26.0158 3.03325 26.2663 3.85476 26.5368 4.83657C26.8173 5.81838 27.1278 6.96048 27.4985 8.28292C27.6789 9.17456 27.8592 10.0562 28.0495 10.9278C28.2399 11.7994 28.4603 12.671 28.7108 13.5326C28.861 14.0636 28.9913 14.5945 29.1015 15.1355C29.2117 15.6765 29.3319 16.2175 29.4621 16.7585C29.8228 18.111 30.1634 19.3433 30.464 20.4453C30.5942 20.9262 30.7145 21.3871 30.8347 21.8479C30.9549 22.3087 31.0651 22.7195 31.1553 23.1002C31.2454 23.4809 31.3256 23.7915 31.3757 24.062C31.4258 24.3225 31.4458 24.4928 31.4458 24.5529L31.4057 24.5829ZM23.2207 4.29557C22.9201 4.94677 22.6195 5.57794 22.339 6.18906C22.0585 6.80019 21.768 7.40129 21.4875 8.0024C20.9064 9.22465 20.4055 10.4369 19.9847 11.6591C19.9546 11.7293 19.9346 11.8094 19.9045 11.8795C19.8745 11.9497 19.8745 12.0298 19.9045 12.13C20.1951 12.0999 20.4756 12.0799 20.7561 12.0499C21.0366 12.0198 21.3071 12.0098 21.5876 12.0098C21.9483 11.9998 22.319 11.9897 22.6797 12.0098C23.0403 12.0098 23.411 12.0098 23.7717 12.0098C24.0021 12.0098 24.1323 11.9897 24.1624 11.9397C24.2025 11.8996 24.2025 11.7693 24.1824 11.5489C24.0722 10.6473 23.952 9.74561 23.8418 8.84395C23.7316 7.94229 23.6114 7.05065 23.5012 6.13897C23.4611 5.84843 23.431 5.54788 23.391 5.24733C23.3509 4.93675 23.3008 4.61616 23.2207 4.27554V4.29557Z" fill="#3B3B42"/>
<path d="M34.6516 7.64159C34.6717 7.58148 34.7017 7.52137 34.7318 7.4813C34.7518 7.44122 34.7819 7.39113 34.8119 7.34104C35.0223 6.78 35.2628 6.23901 35.5333 5.72807C35.8037 5.21713 36.0843 4.70618 36.3748 4.19524C37.026 3.01307 37.8676 1.98117 38.8995 1.08952C39.3403 0.698805 39.8211 0.40827 40.3521 0.207901C40.7529 0.0476063 41.1436 0.0375878 41.5243 0.207901C41.905 0.368197 42.1955 0.628676 42.4059 0.98934C42.6063 1.35 42.7465 1.72069 42.8267 2.10139C42.9068 2.48209 42.9669 2.86279 43.007 3.27355C43.0571 3.7344 43.0471 4.18523 42.977 4.61602C42.9068 5.04681 42.7966 5.48762 42.6463 5.92844C42.6163 5.98855 42.5862 6.05868 42.5562 6.11879C42.5161 6.1789 42.476 6.24903 42.446 6.30914C42.1154 6.89021 41.7447 7.41117 41.3039 7.88203C40.8731 8.3529 40.3922 8.79371 39.8813 9.19445C39.4204 9.55511 38.9295 9.88572 38.4286 10.1763C37.9277 10.4668 37.3967 10.6972 36.8256 10.8775C36.5451 10.9677 36.2746 11.0479 35.9941 11.128C35.7136 11.2082 35.4331 11.2983 35.1425 11.3785C35.1325 11.3885 35.0824 11.4185 35.0123 11.4686C35.0223 11.6089 35.0323 11.7492 35.0524 11.8794C35.0624 12.0197 35.0824 12.1599 35.0924 12.2902C35.1125 12.5907 35.1425 12.8913 35.1726 13.2018C35.1926 13.5124 35.2327 13.813 35.2828 14.1135C35.3429 14.6545 35.423 15.1855 35.5232 15.7165C35.6134 16.2474 35.6935 16.7784 35.7537 17.3194C35.8338 17.8504 35.8939 18.3814 35.944 18.9123C35.9941 19.4433 36.0542 19.9843 36.1143 20.5253C36.1344 20.8559 36.1644 21.1765 36.1844 21.5071C36.2045 21.8377 36.2145 22.1583 36.2145 22.4889C36.2145 22.6993 36.2145 22.9197 36.1945 23.1401C36.1844 23.3605 36.1544 23.5809 36.1043 23.7913C36.0542 23.9817 35.9841 24.162 35.9039 24.3423C35.8238 24.5227 35.7436 24.713 35.6735 24.8934C35.6435 24.9535 35.6234 25.0136 35.5934 25.0737C35.5633 25.1338 35.5333 25.1939 35.5132 25.254C35.4331 25.4143 35.3229 25.4644 35.1726 25.4043C35.0323 25.3442 34.9021 25.2741 34.7819 25.1939C34.6616 25.1138 34.5615 25.0036 34.4713 24.8533C34.2609 24.4726 34.1006 24.0819 33.9904 23.6811C33.8802 23.2704 33.8101 22.8496 33.77 22.4088C33.7399 22.1283 33.6999 21.8678 33.6398 21.5973C33.5797 21.3368 33.5296 21.0663 33.4895 20.7858C33.4294 20.3851 33.3693 19.9843 33.3292 19.5736C33.2891 19.1628 33.229 18.7521 33.1689 18.3413L33.0587 17.5498C33.0086 17.1491 32.9585 16.7383 32.9084 16.3376C32.8583 15.9268 32.8183 15.5261 32.7782 15.1254C32.7281 14.7146 32.688 14.2938 32.658 13.8831C32.6279 13.4723 32.5978 13.0516 32.5778 12.6408C32.5177 11.9595 32.4676 11.2883 32.4275 10.6171C32.3875 9.94583 32.3474 9.2746 32.2973 8.59334C32.2572 7.99224 32.2171 7.38111 32.1871 6.78C32.147 6.16888 32.117 5.56777 32.0969 4.96666C32.0669 4.73624 32.0669 4.51583 32.0669 4.27539C32.0669 4.04497 32.0869 3.81454 32.0969 3.58412C32.1069 3.48393 32.127 3.37373 32.1671 3.26353C32.1971 3.15333 32.2372 3.04312 32.2672 2.94294C32.3173 2.79266 32.4476 2.71251 32.6479 2.71251C33.199 2.72253 33.5897 2.99303 33.8201 3.50397C33.9103 3.74441 33.9804 3.99488 34.0505 4.27539C34.1106 4.58596 34.1808 4.89654 34.2409 5.20711C34.301 5.51768 34.3611 5.82825 34.4312 6.13882C34.4713 6.34921 34.5014 6.56962 34.5314 6.78C34.5615 6.99039 34.6015 7.2108 34.6316 7.42118C34.6416 7.47128 34.6717 7.55142 34.7117 7.66163L34.6516 7.64159ZM34.8921 10.056C35.1325 9.95585 35.3529 9.85567 35.5633 9.7655C35.7737 9.67534 35.9741 9.56513 36.1744 9.45493C36.5351 9.25456 36.8958 9.05419 37.2464 8.8438C37.5971 8.63342 37.9477 8.42303 38.2983 8.21264C38.4787 8.11246 38.639 8.00226 38.7792 7.87202C38.9195 7.75179 39.0698 7.61154 39.22 7.4813C39.4505 7.28093 39.6508 7.07054 39.8211 6.84011C40.0015 6.60969 40.1718 6.37927 40.3521 6.1288C40.4924 5.91842 40.6126 5.69801 40.7228 5.48762C40.833 5.27724 40.9232 5.04681 40.9933 4.80637C41.1235 4.44571 41.2037 4.065 41.2337 3.6843C41.2738 3.3036 41.2939 2.91288 41.3139 2.52216C41.3139 2.42198 41.3139 2.32179 41.2939 2.23163C41.2838 2.14146 41.2638 2.04128 41.2337 1.94109C41.1937 1.73071 41.0634 1.59045 40.843 1.53034C40.7128 1.5103 40.6026 1.5103 40.5024 1.53034C40.4022 1.56039 40.302 1.60047 40.2018 1.65056C39.8712 1.86095 39.5707 2.09137 39.3002 2.33181C38.9596 2.62235 38.649 2.93292 38.3585 3.28357C38.0679 3.62419 37.7974 3.98486 37.547 4.34552C37.4368 4.50582 37.3165 4.67613 37.2063 4.83642C37.0961 4.99672 36.9759 5.16703 36.8657 5.34737C36.475 5.94847 36.1243 6.56962 35.8238 7.2108C35.5132 7.85198 35.2227 8.49316 34.9321 9.15438C34.872 9.29464 34.842 9.43489 34.842 9.57515C34.842 9.71541 34.862 9.8757 34.9021 10.056H34.8921Z" fill="#3B3B42"/>
<path d="M46.3328 7.64159C46.3528 7.58148 46.3829 7.52137 46.413 7.4813C46.433 7.44122 46.463 7.39113 46.4931 7.34104C46.7035 6.78 46.9439 6.23901 47.2144 5.72807C47.4849 5.21713 47.7654 4.70618 48.056 4.19524C48.7072 3.01307 49.5487 1.98117 50.5806 1.08952C51.0214 0.698805 51.5023 0.40827 52.0333 0.207901C52.434 0.0476063 52.8248 0.0375878 53.2055 0.207901C53.5862 0.368197 53.8767 0.628676 54.0871 0.98934C54.2875 1.35 54.4277 1.72069 54.5079 2.10139C54.588 2.48209 54.6481 2.86279 54.6882 3.27355C54.7383 3.7344 54.7283 4.18523 54.6581 4.61602C54.588 5.04681 54.4778 5.48762 54.3275 5.92844C54.2975 5.98855 54.2674 6.05868 54.2374 6.11879C54.1973 6.1789 54.1572 6.24903 54.1272 6.30914C53.7965 6.89021 53.4259 7.41117 52.9851 7.88203C52.5543 8.3529 52.0734 8.79371 51.5624 9.19445C51.1016 9.55511 50.6107 9.88572 50.1098 10.1763C49.6088 10.4668 49.0779 10.6972 48.5068 10.8775C48.2263 10.9677 47.9558 11.0479 47.6753 11.128C47.3948 11.2082 47.1142 11.2983 46.8237 11.3785C46.8137 11.3885 46.7636 11.4185 46.6935 11.4686C46.7035 11.6089 46.7135 11.7492 46.7335 11.8794C46.7436 12.0197 46.7636 12.1599 46.7736 12.2902C46.7937 12.5907 46.8237 12.8913 46.8538 13.2018C46.8738 13.5124 46.9139 13.813 46.964 14.1135C47.0241 14.6545 47.1042 15.1855 47.2044 15.7165C47.2946 16.2474 47.3747 16.7784 47.4348 17.3194C47.515 17.8504 47.5751 18.3814 47.6252 18.9123C47.6753 19.4433 47.7354 19.9843 47.7955 20.5253C47.8155 20.8559 47.8456 21.1765 47.8656 21.5071C47.8857 21.8377 47.8957 22.1583 47.8957 22.4889C47.8957 22.6993 47.8957 22.9197 47.8756 23.1401C47.8656 23.3605 47.8356 23.5809 47.7855 23.7913C47.7354 23.9817 47.6653 24.162 47.5851 24.3423C47.505 24.5227 47.4248 24.713 47.3547 24.8934C47.3246 24.9535 47.3046 25.0136 47.2745 25.0737C47.2445 25.1338 47.2144 25.1939 47.1944 25.254C47.1142 25.4143 47.004 25.4644 46.8538 25.4043C46.7135 25.3442 46.5833 25.2741 46.463 25.1939C46.3428 25.1138 46.2426 25.0036 46.1525 24.8533C45.9421 24.4726 45.7818 24.0819 45.6716 23.6811C45.5614 23.2704 45.4913 22.8496 45.4512 22.4088C45.4211 22.1283 45.3811 21.8678 45.3209 21.5973C45.2608 21.3368 45.2107 21.0663 45.1707 20.7858C45.1106 20.3851 45.0504 19.9843 45.0104 19.5736C44.9703 19.1628 44.9102 18.7521 44.8501 18.3413L44.7399 17.5498C44.6898 17.1491 44.6397 16.7383 44.5896 16.3376C44.5395 15.9268 44.4994 15.5261 44.4594 15.1254C44.4093 14.7146 44.3692 14.2938 44.3391 13.8831C44.3091 13.4723 44.279 13.0516 44.259 12.6408C44.1989 11.9595 44.1488 11.2883 44.1087 10.6171C44.0686 9.94583 44.0286 9.2746 43.9785 8.59334C43.9384 7.99224 43.8983 7.38111 43.8683 6.78C43.8282 6.16888 43.7981 5.56777 43.7781 4.96666C43.748 4.73624 43.748 4.51583 43.748 4.27539C43.748 4.04497 43.7681 3.81454 43.7781 3.58412C43.7881 3.48393 43.8082 3.37373 43.8482 3.26353C43.8783 3.15333 43.9184 3.04312 43.9484 2.94294C43.9985 2.79266 44.1287 2.71251 44.3291 2.71251C44.8801 2.72253 45.2708 2.99303 45.5013 3.50397C45.5914 3.74441 45.6616 3.99488 45.7317 4.27539C45.7918 4.58596 45.8619 4.89654 45.922 5.20711C45.9822 5.51768 46.0423 5.82825 46.1124 6.13882C46.1525 6.34921 46.1825 6.56962 46.2126 6.78C46.2426 6.99039 46.2827 7.2108 46.3128 7.42118C46.3228 7.47128 46.3528 7.55142 46.3929 7.66163L46.3328 7.64159ZM46.5732 10.056C46.8137 9.95585 47.0341 9.85567 47.2445 9.7655C47.4549 9.67534 47.6552 9.56513 47.8556 9.45493C48.2163 9.25456 48.5769 9.05419 48.9276 8.8438C49.2782 8.63342 49.6289 8.42303 49.9795 8.21264C50.1599 8.11246 50.3201 8.00226 50.4604 7.87202C50.6007 7.75179 50.7509 7.61154 50.9012 7.4813C51.1316 7.28093 51.332 7.07054 51.5023 6.84011C51.6827 6.60969 51.853 6.37927 52.0333 6.1288C52.1736 5.91842 52.2938 5.69801 52.404 5.48762C52.5142 5.27724 52.6044 5.04681 52.6745 4.80637C52.8047 4.44571 52.8849 4.065 52.9149 3.6843C52.955 3.3036 52.975 2.91288 52.9851 2.52216C52.9851 2.42198 52.9851 2.32179 52.965 2.23163C52.955 2.14146 52.935 2.04128 52.9049 1.94109C52.8648 1.73071 52.7346 1.59045 52.5142 1.53034C52.3839 1.5103 52.2737 1.5103 52.1736 1.53034C52.0734 1.56039 51.9732 1.60047 51.873 1.65056C51.5424 1.86095 51.2418 2.09137 50.9713 2.33181C50.6307 2.62235 50.3201 2.93292 50.0296 3.28357C49.7391 3.62419 49.4686 3.98486 49.2181 4.34552C49.1079 4.50582 48.9877 4.67613 48.8775 4.83642C48.7673 4.99672 48.6471 5.16703 48.5369 5.34737C48.1461 5.94847 47.7955 6.56962 47.4949 7.2108C47.1844 7.85198 46.8938 8.49316 46.6033 9.15438C46.5432 9.29464 46.5131 9.43489 46.5131 9.57515C46.5131 9.71541 46.5332 9.8757 46.5732 10.056Z" fill="#3B3B42"/>
<path d="M65.6683 10.0561L65.4378 10.5671C65.2475 11.058 65.0572 11.5388 64.8768 12.0297C64.6865 12.5106 64.4961 12.9915 64.3158 13.4724C64.0653 14.1537 63.6846 14.7748 63.1637 15.3358C62.9533 15.5763 62.7028 15.7466 62.4323 15.8668C62.1518 15.977 61.8713 16.0572 61.5707 16.1073C61.5106 16.1373 61.4405 16.1473 61.3603 16.1473C61.2802 16.1473 61.2201 16.1473 61.15 16.1674C60.6691 16.2275 60.2583 16.1674 59.8976 15.977C59.537 15.7867 59.2064 15.5262 58.9058 15.2056C58.6453 14.9151 58.4249 14.6045 58.2646 14.2739C58.1043 13.9433 57.9641 13.5826 57.8539 13.2119C57.7537 12.9114 57.6836 12.6108 57.6435 12.3002C57.6034 11.9897 57.5633 11.6791 57.5333 11.3485C57.4531 10.7173 57.4431 10.1062 57.4832 9.5051C57.5233 8.90399 57.5633 8.29287 57.6034 7.68174C57.6435 7.23091 57.6936 6.78008 57.7537 6.32925C57.8138 5.87842 57.894 5.42759 57.9841 4.9968C58.0342 4.74634 58.1043 4.50589 58.1945 4.26545C58.2847 4.02501 58.3849 3.78457 58.4951 3.55414C58.5452 3.47399 58.5752 3.4239 58.5852 3.38383C58.6053 3.28364 58.6453 3.19348 58.6954 3.12335C58.7455 3.0432 58.8257 3.01315 58.9359 3.01315C59.0761 3.00313 59.1964 3.01315 59.3166 3.03318C59.4268 3.06324 59.537 3.12335 59.6372 3.22353C59.7874 3.38383 59.9077 3.55414 59.9978 3.72446C60.088 3.89477 60.1181 4.09514 60.088 4.31554C60.088 4.41573 60.088 4.49588 60.108 4.54597C60.2082 5.08696 60.2683 5.62796 60.2783 6.16896C60.2884 6.70995 60.2984 7.25095 60.3184 7.79195C60.3284 8.6335 60.3585 9.46503 60.4086 10.2865C60.4587 11.1081 60.5689 11.9296 60.7492 12.7611C60.8093 13.0216 60.8895 13.2821 60.9796 13.5325C61.0698 13.783 61.19 14.0134 61.3403 14.2238C61.4004 14.3039 61.4705 14.3741 61.5407 14.4442C61.6108 14.5143 61.6809 14.5945 61.7611 14.6746C61.9214 14.5344 62.0716 14.4041 62.2119 14.2739C62.3522 14.1436 62.4624 13.9934 62.5525 13.813C62.7128 13.4824 62.8731 13.1618 63.0234 12.8312C63.1737 12.5006 63.3139 12.17 63.4342 11.8294C63.6445 11.2784 63.8449 10.7274 64.0252 10.1864C64.2056 9.64536 64.3959 9.10436 64.5963 8.55335C65.0972 7.23091 65.6783 5.92851 66.3495 4.63613C66.4397 4.4558 66.5098 4.27547 66.5599 4.09514C66.61 3.90479 66.6501 3.71444 66.6902 3.53411C66.8204 3.00313 66.9707 2.5022 67.161 2.0113C67.3514 1.5204 67.5618 1.03951 67.8022 0.558626C67.8523 0.458441 67.9124 0.388312 67.9825 0.33822C68.0527 0.298146 68.1328 0.258072 68.233 0.238035C68.3833 0.197961 68.5336 0.167906 68.6738 0.147869C68.8141 0.127832 68.9744 0.137851 69.1347 0.187943C69.315 0.248054 69.4452 0.33822 69.5454 0.448423C69.6456 0.558626 69.7257 0.688865 69.7859 0.839142C69.9161 1.11966 69.9762 1.39016 69.9962 1.67067C70.0063 1.95119 69.9962 2.23171 69.9762 2.52224C69.9061 3.36379 69.8259 4.19532 69.7458 5.02685C69.6656 5.85838 69.6055 6.68992 69.5354 7.53147C69.4853 8.22274 69.4152 8.91401 69.335 9.60529C69.2549 10.2966 69.1647 10.9778 69.0645 11.6591C69.0245 11.9396 68.9844 12.2001 68.9443 12.4706C68.9042 12.731 68.8541 13.0015 68.804 13.2821C68.774 13.4824 68.754 13.6828 68.7339 13.8832C68.7039 14.0835 68.6838 14.2839 68.6538 14.4843C68.5636 15.0253 68.4835 15.5562 68.4033 16.0972C68.3232 16.6282 68.233 17.1692 68.1328 17.7102C68.0727 18.0508 68.0026 18.3915 67.9224 18.7221C67.8423 19.0627 67.7721 19.4033 67.692 19.754C67.5117 20.5054 67.2512 21.1966 66.9005 21.8278C66.5499 22.459 66.089 23.03 65.508 23.5409C64.7265 24.2222 63.865 24.7331 62.9132 25.0838C62.6026 25.194 62.282 25.2942 61.9715 25.3643C61.6609 25.4445 61.3303 25.4845 60.9897 25.4945C60.4887 25.5246 60.0079 25.4845 59.537 25.3843C59.0761 25.2842 58.6253 25.0938 58.2045 24.8033C58.1444 24.7632 58.0743 24.7331 57.9941 24.7031C57.914 24.673 57.8539 24.633 57.7838 24.6029C57.5333 24.4526 57.3029 24.2823 57.0825 24.092C56.8721 23.9016 56.6817 23.6812 56.5214 23.4307C56.2309 23.03 55.9905 22.6092 55.7901 22.1784C55.5897 21.7476 55.4695 21.2868 55.4294 20.7959C55.3994 20.5354 55.3893 20.2749 55.3793 20.0145C55.3793 19.754 55.3994 19.5035 55.4595 19.2531C55.5196 18.9425 55.6298 18.6419 55.7901 18.3714C55.9504 18.0909 56.1908 17.8805 56.5114 17.7302C56.6517 17.6701 56.7819 17.6802 56.9021 17.7703C57.1526 17.9607 57.2828 18.2011 57.2928 18.5017C57.2928 18.9024 57.363 19.2831 57.4932 19.6338C57.6235 19.9844 57.7737 20.325 57.9541 20.6456C58.1544 21.0263 58.4149 21.3269 58.7455 21.5573C59.0761 21.7877 59.4268 21.948 59.7975 22.0382C60.1782 22.1283 60.5589 22.1384 60.9696 22.0883C61.3704 22.0282 61.741 21.8979 62.0817 21.6875C62.8831 21.1866 63.4642 20.5054 63.8349 19.6338C63.9351 19.4334 64.0152 19.223 64.0653 19.0026C64.1154 18.7822 64.1655 18.5618 64.2156 18.3514C64.3258 17.8705 64.436 17.3996 64.5262 16.9188C64.6163 16.4379 64.7165 15.967 64.8167 15.4861C64.9269 14.855 65.0371 14.2338 65.1373 13.6227C65.2375 13.0116 65.3477 12.3804 65.4579 11.7392L65.6883 10.4368C65.6983 10.3767 65.7083 10.3166 65.7184 10.2665C65.7184 10.2164 65.7384 10.1663 65.7484 10.1162H65.6583L65.6683 10.0561Z" fill="#3B3B42"/>
</svg>
