<svg width="65" height="53" viewBox="0 0 65 53" fill="none" xmlns="http://www.w3.org/2000/svg">
<path d="M61.3355 32.0272C56.6364 27.41 48.9834 27.5335 44.2773 32.2987L40.8148 35.8048L37.429 32.3764L43.8628 25.8616C49.3909 20.2639 49.3909 11.1531 43.8628 5.55537L42.5287 4.20445C39.8465 1.49201 36.2864 0 32.5 0C28.7136 0 25.1501 1.49201 22.4748 4.20445L21.1407 5.55537C15.6125 11.1531 15.6125 20.2639 21.1407 25.8616L27.5745 32.3764L24.1886 35.8048L20.5868 32.1577C18.2355 29.7768 15.1492 28.5881 12.0595 28.5881C8.96972 28.5881 5.88344 29.7768 3.53215 32.1577C1.25402 34.468 0 37.5331 0 40.7958C0 44.0585 1.25402 47.1237 3.53215 49.4305C5.80681 51.7337 8.83387 53 12.0595 53C15.2851 53 18.3122 51.7337 20.5868 49.4305L24.1886 45.7833L27.8775 49.5257C29.1107 50.7743 30.7479 51.4657 32.493 51.4657C34.2382 51.4657 35.8789 50.7779 37.112 49.5292L40.8148 45.7798L44.2773 49.2858C46.6042 51.642 49.7044 52.94 53.0032 52.94C56.302 52.94 59.1131 51.7373 61.3355 49.5574C63.6972 47.2365 65 44.122 65 40.7923C65 37.4626 63.6972 34.3481 61.3355 32.0272ZM15.6613 44.4394C14.6999 45.413 13.4215 45.9456 12.0595 45.9456C10.6975 45.9456 9.41908 45.4094 8.45766 44.4394C7.49625 43.4695 6.96677 42.1714 6.96677 40.7923C6.96677 39.4132 7.49625 38.1187 8.45766 37.1451C9.41908 36.1716 10.6975 35.6355 12.0595 35.6355C13.4215 35.6355 14.6999 36.1716 15.6613 37.1451L19.2631 40.7923L15.6613 44.4394ZM32.4965 44.2278L31.2564 42.9721L29.1107 40.7958L32.4617 37.3991L32.7404 37.6143L35.8789 40.7923L32.4895 44.2243L32.4965 44.2278ZM34.8583 25.0045L32.5035 27.3889L26.0697 20.8741C23.2586 18.0276 23.2586 13.3929 26.0697 10.5429L27.4038 9.19193C28.7658 7.81279 30.5772 7.05091 32.5035 7.05091C34.4298 7.05091 36.2412 7.80926 37.6032 9.19193L38.9373 10.5429C41.7484 13.3893 41.7484 18.0241 38.9373 20.8741L34.8583 25.0045ZM56.4866 44.4959C55.5287 45.4376 54.2747 45.9032 53.0032 45.9032C51.6377 45.9032 50.2583 45.3671 49.2063 44.3019L45.7438 40.7958L49.2063 37.2898C51.2371 35.2334 54.5046 35.1452 56.4866 37.0922C57.4863 38.0728 58.0367 39.3885 58.0367 40.7958C58.0367 42.2032 57.4863 43.5188 56.4866 44.4994V44.4959Z" fill="white"/>
</svg>
