<svg width="45" height="46" viewBox="0 0 45 46" fill="none" xmlns="http://www.w3.org/2000/svg">
<path d="M32.4772 36.746C31.5103 36.746 30.7264 35.9415 30.7264 34.9491V19.8555C30.7264 18.863 31.5103 18.0585 32.4772 18.0585C33.4442 18.0585 34.2281 18.863 34.2281 19.8555V34.9492C34.2281 35.9415 33.4442 36.746 32.4772 36.746ZM36.2696 42.8737L41.7127 37.3335C43.6877 35.3234 44.8204 32.5332 44.8204 29.6785V10.7812C44.8204 4.83645 40.108 0 34.3156 0H15.9479C13.1585 0 10.5314 1.1102 8.55085 3.12622L3.10768 8.66636C1.13269 10.6764 0 13.4666 0 16.3214V35.2187C0 41.1634 4.71244 45.9999 10.5048 45.9999H28.8725C31.6621 45.9999 34.289 44.8897 36.2696 42.8737ZM34.3156 3.59374C38.1772 3.59374 41.3188 6.81801 41.3188 10.7812V29.6785C41.3188 31.5816 40.5637 33.4418 39.247 34.7818L33.8039 40.3221C32.4835 41.666 30.7322 42.4062 28.8725 42.4062H10.5048C6.64319 42.4062 3.50159 39.1819 3.50159 35.2187V16.3214C3.50159 14.4183 4.25674 12.5581 5.57338 11.218L11.0165 5.67783C12.3369 4.33387 14.0882 3.59374 15.9479 3.59374H34.3156ZM36.3768 11.1873L37.1131 10.451C37.8057 9.75855 37.8201 8.62087 37.1453 7.91011C36.4706 7.19928 35.362 7.18446 34.6696 7.87703L33.9332 8.61328C32.5353 10.0113 30.6905 10.7812 28.7387 10.7812H11.2927C10.3257 10.7812 9.54183 11.5857 9.54183 12.5781C9.54183 13.5705 10.3257 14.375 11.2927 14.375H28.7386C31.6086 14.3749 34.3212 13.2429 36.3768 11.1873Z" fill="white"/>
</svg>
