<svg width="542" height="542" viewBox="0 0 542 542" fill="none" xmlns="http://www.w3.org/2000/svg">
<path d="M250.978 541.388H251.457L254.803 541.627C252.054 541.508 249.186 541.269 246.198 540.91C246.078 540.91 245.839 540.91 245.72 540.91C247.393 541.03 249.186 541.269 250.859 541.388H250.978Z" fill="#3A3A47"/>
<path d="M212.734 535.651L215.722 536.249C215.722 536.249 215.363 536.249 215.244 536.249C214.407 536.129 213.571 535.89 212.734 535.771V535.651Z" fill="#3A3A47"/>
<path d="M235.92 539.715C239.147 540.193 242.493 540.551 245.72 540.791C245.839 540.791 245.959 540.791 246.198 540.791C242.852 540.432 239.386 540.073 236.039 539.595L235.92 539.715Z" fill="#3A3A47"/>
<path d="M215.602 536.249C215.602 536.249 215.961 536.249 216.2 536.369H216.678C219.546 537.086 222.534 537.564 225.522 538.161C225.522 538.161 225.283 538.161 225.164 538.161C221.817 537.564 218.59 536.966 215.483 536.369L215.602 536.249Z" fill="#3A3A47"/>
<path d="M225.522 538.161H225.761C228.988 538.759 232.215 539.237 235.561 539.596C232.095 539.118 228.749 538.64 225.403 538.042L225.522 538.161Z" fill="#3A3A47"/>
<path d="M291.254 536.607C289.342 536.607 287.549 536.488 285.637 536.368C285.398 536.368 285.159 536.607 284.801 536.727C286.713 536.727 288.505 536.966 290.298 536.966C295.318 537.205 300.098 537.325 304.401 537.325C304.759 537.325 305.118 537.086 305.476 536.966C301.054 536.966 296.274 536.966 291.135 536.607H291.254Z" fill="#3A3A47"/>
<path d="M262.93 534.695C262.93 534.695 262.571 534.934 262.452 535.054C269.862 535.771 277.152 536.368 284.203 536.727C284.442 536.727 284.681 536.488 285.04 536.368C277.869 536.01 270.459 535.412 262.93 534.695Z" fill="#3A3A47"/>
<path d="M215.722 528.361C208.312 527.166 201.141 525.732 194.209 524.298C194.329 524.417 194.568 524.656 194.807 524.776C201.619 526.21 208.671 527.524 215.961 528.72C215.961 528.6 215.841 528.361 215.722 528.242V528.361Z" fill="#3A3A47"/>
<path d="M262.213 534.576C254.683 533.859 247.034 533.022 239.505 531.947C239.505 532.066 239.505 532.186 239.505 532.305C247.034 533.261 254.564 534.217 261.854 534.934C261.974 534.934 262.213 534.695 262.332 534.576H262.213Z" fill="#3A3A47"/>
<path d="M138.994 507.566L140.667 508.522C141.623 509 142.699 509.598 143.894 510.076C143.416 509.837 143.058 509.598 142.58 509.359C141.265 508.761 140.07 508.163 138.994 507.566Z" fill="#3A3A47"/>
<path d="M146.643 511.032C145.328 510.554 144.133 509.956 142.938 509.478C143.416 509.717 143.775 509.956 144.253 510.195C145.328 510.673 146.524 511.151 147.838 511.749C150.707 512.944 153.814 514.02 157.16 515.095C156.802 514.856 156.443 514.617 156.085 514.498C152.619 513.302 149.392 512.227 146.643 511.032Z" fill="#3A3A47"/>
<path d="M238.907 531.827C231.259 530.871 223.729 529.676 216.319 528.361C216.319 528.481 216.439 528.6 216.558 528.839C223.849 530.034 231.259 531.229 238.788 532.185C238.788 532.066 238.788 531.946 238.788 531.827H238.907Z" fill="#3A3A47"/>
<path d="M331.889 535.174L333.682 534.815C330.694 535.532 326.87 536.01 322.328 536.369C321.85 536.369 321.492 536.608 321.014 536.727C325.316 536.369 329.021 535.891 331.889 535.174Z" fill="#3A3A47"/>
<path d="M156.563 514.617C156.563 514.617 157.28 515.095 157.638 515.215C162.658 516.888 168.275 518.442 174.251 519.995C174.012 519.756 173.653 519.637 173.414 519.398C167.319 517.844 161.582 516.171 156.563 514.498V514.617Z" fill="#3A3A47"/>
<path d="M306.074 536.966C306.074 536.966 305.357 537.205 304.998 537.325C310.855 537.325 316.113 537.085 320.535 536.727C321.013 536.727 321.372 536.488 321.85 536.368C317.308 536.727 311.93 536.966 305.955 536.966H306.074Z" fill="#3A3A47"/>
<path d="M173.892 519.637C173.892 519.637 174.49 519.995 174.729 520.234C180.824 521.788 187.278 523.222 194.09 524.656C193.97 524.537 193.731 524.298 193.612 524.178C186.68 522.744 180.107 521.19 174.012 519.637H173.892Z" fill="#3A3A47"/>
<path d="M368.221 517.725C368.221 517.725 367.385 518.203 367.026 518.442C373.719 517.844 379.336 517.127 383.877 516.051C384.355 515.812 384.834 515.573 385.192 515.334C380.651 516.41 374.914 517.127 368.221 517.725Z" fill="#3A3A47"/>
<path d="M88.201 470.517C88.201 470.517 89.0376 471.234 89.3961 471.592C92.0254 473.743 95.9694 476.014 101.228 478.404C100.869 478.046 100.511 477.687 100.152 477.329C94.8937 474.939 90.8303 472.548 88.201 470.397V470.517Z" fill="#3A3A47"/>
<path d="M209.149 505.773C198.153 503.861 187.397 501.829 176.999 499.797C177.119 500.036 177.238 500.395 177.358 500.634C187.636 502.785 198.273 504.817 209.149 506.61C209.149 506.371 209.149 506.132 209.029 505.773H209.149Z" fill="#3A3A47"/>
<path d="M367.624 517.844C360.811 518.322 352.923 518.68 343.96 518.68C343.601 518.919 343.243 519.158 343.004 519.398C351.848 519.398 359.616 519.158 366.429 518.561C366.787 518.322 367.265 518.083 367.624 517.844Z" fill="#3A3A47"/>
<path d="M87.0059 469.561L88.3205 470.756C88.3205 470.756 88.9181 471.234 89.1571 471.473C88.7986 471.114 88.3205 470.756 87.962 470.397C87.6035 470.158 87.2449 469.8 87.0059 469.561Z" fill="#3A3A47"/>
<path d="M176.163 499.558C165.885 497.407 156.085 495.136 146.882 492.746C147.121 492.985 147.36 493.344 147.599 493.583C156.682 495.853 166.482 498.124 176.641 500.275C176.521 500.036 176.402 499.678 176.163 499.439V499.558Z" fill="#3A3A47"/>
<path d="M392.363 513.303L393.917 512.466C391.766 513.542 389.017 514.498 385.551 515.334C385.073 515.573 384.595 515.812 384.236 516.051C387.583 515.215 390.331 514.378 392.363 513.303Z" fill="#3A3A47"/>
<path d="M121.187 486.173C121.187 486.173 120.589 485.575 120.35 485.217C115.211 483.544 110.431 481.751 106.128 480.078C104.216 479.241 102.304 478.524 100.631 477.688C100.989 478.046 101.348 478.405 101.706 478.644C103.379 479.361 105.172 480.197 107.084 480.914C111.267 482.588 116.048 484.38 121.187 486.053V486.173Z" fill="#3A3A47"/>
<path d="M243.688 511.032C232.334 509.478 221.1 507.805 209.985 505.893C209.985 506.132 209.985 506.371 210.105 506.729C221.1 508.522 232.215 510.315 243.449 511.749C243.449 511.51 243.449 511.271 243.569 511.032H243.688Z" fill="#3A3A47"/>
<path d="M146.045 492.627C136.962 490.236 128.477 487.846 120.948 485.336C121.187 485.695 121.545 485.934 121.784 486.292C129.313 488.802 137.679 491.192 146.762 493.463C146.523 493.105 146.284 492.866 146.045 492.507V492.627Z" fill="#3A3A47"/>
<path d="M342.167 519.278C342.167 519.278 342.884 518.8 343.123 518.561C336.55 518.561 329.379 518.442 321.731 518.083C318.982 518.083 316.113 517.844 313.365 517.725C313.126 517.964 312.887 518.203 312.648 518.442C315.516 518.561 318.265 518.681 321.014 518.8C328.662 519.159 335.714 519.278 342.167 519.278Z" fill="#3A3A47"/>
<path d="M278.586 515.095C267.352 514.02 255.998 512.705 244.644 511.151C244.644 511.39 244.644 511.629 244.525 511.868C255.759 513.302 266.993 514.617 278.227 515.693C278.347 515.454 278.466 515.215 278.705 514.976L278.586 515.095Z" fill="#3A3A47"/>
<path d="M312.528 517.724C301.891 517.127 290.776 516.29 279.662 515.215C279.542 515.454 279.303 515.693 279.183 515.932C290.298 517.007 301.293 517.844 311.811 518.442C312.05 518.202 312.289 517.963 312.528 517.724Z" fill="#3A3A47"/>
<path d="M46.9686 422.711L47.9247 424.145C48.7613 425.341 50.076 426.655 51.6296 428.089C51.3906 427.611 51.0321 427.253 50.7931 426.775C49.1199 425.46 47.8052 424.145 46.9686 422.831V422.711Z" fill="#3A3A47"/>
<path d="M443.993 479.48L445.307 478.405C445.068 478.644 444.71 478.883 444.351 479.122C443.873 479.48 443.515 479.839 443.156 480.197C443.515 479.958 443.754 479.719 443.993 479.48Z" fill="#3A3A47"/>
<path d="M66.3299 435.738C59.5177 432.631 54.4981 429.643 51.0322 426.894C51.3908 427.372 51.6298 427.731 51.9883 428.209C55.4542 430.958 60.4738 433.946 67.2861 437.053C67.047 436.575 66.6885 436.216 66.4495 435.738H66.3299Z" fill="#3A3A47"/>
<path d="M337.865 487.249C324.24 486.532 310.137 485.456 295.796 484.022C295.676 484.38 295.557 484.739 295.318 484.978C309.54 486.293 323.642 487.368 337.147 488.205C337.386 487.846 337.626 487.488 337.865 487.249Z" fill="#3A3A47"/>
<path d="M92.7424 446.733C92.7424 446.733 92.2643 445.897 92.0253 445.538C85.452 443.387 79.3568 441.116 73.8592 438.965C71.3494 438.009 69.0787 436.933 66.9274 435.977C67.1665 436.455 67.4055 436.814 67.764 437.292C69.9153 438.248 72.186 439.324 74.6958 440.28C80.1934 442.431 86.1691 444.702 92.7424 446.853V446.733Z" fill="#3A3A47"/>
<path d="M431.205 484.022C431.205 484.022 430.368 484.739 430.01 484.978C435.746 483.663 440.049 481.99 442.798 480.197C443.276 479.839 443.634 479.48 443.993 479.122C441.244 481.034 436.942 482.588 431.085 483.902L431.205 484.022Z" fill="#3A3A47"/>
<path d="M163.495 463.943C150.348 461.194 137.799 458.326 126.087 455.338C126.206 455.697 126.445 456.055 126.565 456.533C138.158 459.521 150.707 462.39 163.853 465.138C163.853 464.78 163.614 464.421 163.614 464.063L163.495 463.943Z" fill="#3A3A47"/>
<path d="M294.481 483.902C280.14 482.468 265.559 480.795 251.098 478.883C251.098 479.241 250.978 479.6 250.859 479.958C265.32 481.87 279.781 483.544 294.003 484.978C294.123 484.619 294.242 484.261 294.481 484.022V483.902Z" fill="#3A3A47"/>
<path d="M376.229 489.4C376.229 489.4 376.826 488.802 377.065 488.444C368.699 488.444 359.497 488.205 349.697 487.846C346.111 487.727 342.526 487.488 338.94 487.368C338.701 487.727 338.462 488.085 338.223 488.324C341.809 488.563 345.394 488.683 348.979 488.802C358.78 489.161 367.743 489.4 376.109 489.4H376.229Z" fill="#3A3A47"/>
<path d="M125.011 455.099C113.299 452.111 102.543 449.004 92.862 445.777C93.101 446.136 93.3401 446.614 93.5791 446.972C103.26 450.08 114.016 453.187 125.609 456.175C125.489 455.816 125.25 455.338 125.131 454.98L125.011 455.099Z" fill="#3A3A47"/>
<path d="M408.258 487.248C399.534 487.966 389.495 488.324 378.021 488.324C377.782 488.683 377.424 489.041 377.185 489.28C388.539 489.28 398.578 488.922 407.183 488.205C407.541 487.846 407.9 487.487 408.258 487.248Z" fill="#3A3A47"/>
<path d="M249.903 478.644C235.441 476.731 220.98 474.58 206.878 472.19C206.878 472.548 206.878 472.907 206.878 473.266C220.861 475.656 235.322 477.807 249.664 479.719C249.664 479.361 249.783 479.002 249.903 478.644Z" fill="#3A3A47"/>
<path d="M205.683 471.951C191.58 469.561 177.836 466.931 164.57 464.182C164.57 464.541 164.809 464.9 164.809 465.258C177.956 468.007 191.58 470.517 205.683 472.907C205.683 472.548 205.683 472.19 205.683 471.831V471.951Z" fill="#3A3A47"/>
<path d="M430.727 484.141C424.871 485.456 417.58 486.531 408.975 487.249C408.617 487.607 408.258 487.966 407.9 488.205C416.505 487.488 423.676 486.531 429.532 485.217C429.89 484.858 430.249 484.5 430.727 484.261V484.141Z" fill="#3A3A47"/>
<path d="M155.965 418.887C140.548 415.66 125.848 412.314 112.223 408.728C112.223 409.206 112.462 409.684 112.462 410.162C126.087 413.628 140.787 417.094 156.085 420.201C156.085 419.723 156.085 419.245 155.965 418.887Z" fill="#3A3A47"/>
<path d="M442.439 446.136C432.28 446.972 420.449 447.331 407.063 447.331C406.824 447.809 406.585 448.168 406.346 448.646C419.612 448.646 431.444 448.168 441.603 447.451C441.842 446.972 442.2 446.614 442.439 446.136Z" fill="#3A3A47"/>
<path d="M359.975 446.016C343.96 445.18 327.467 443.865 310.735 442.312C310.616 442.79 310.496 443.148 310.376 443.626C327.108 445.18 343.601 446.494 359.497 447.331C359.736 446.853 359.855 446.494 360.094 446.016H359.975Z" fill="#3A3A47"/>
<path d="M405.151 448.646C405.151 448.646 405.629 447.809 405.868 447.331C396.068 447.331 385.312 447.092 373.838 446.614C369.655 446.494 365.472 446.255 361.289 446.016C361.05 446.494 360.931 446.853 360.692 447.331C364.875 447.57 369.058 447.809 373.241 447.928C384.714 448.407 395.231 448.646 405.151 448.646Z" fill="#3A3A47"/>
<path d="M484.269 436.694C481.042 438.846 475.903 440.758 469.21 442.311C468.852 442.789 468.613 443.148 468.254 443.626C474.947 442.072 479.966 440.16 483.193 438.009C483.552 437.531 483.791 437.172 484.149 436.694H484.269Z" fill="#3A3A47"/>
<path d="M468.732 442.431C461.92 443.985 453.434 445.18 443.276 446.016C443.037 446.494 442.678 446.853 442.439 447.331C452.478 446.494 460.964 445.299 467.776 443.746C468.134 443.267 468.374 442.909 468.732 442.431Z" fill="#3A3A47"/>
<path d="M72.7839 398.689C72.7839 398.689 72.5449 397.733 72.3058 397.255C64.5375 394.745 57.4862 392.116 51.0324 389.606C48.0446 388.411 45.4153 387.216 42.9055 386.14C43.025 386.618 43.2641 387.096 43.3836 387.574C45.8934 388.769 48.6422 389.845 51.5105 391.04C57.8447 393.67 64.896 396.179 72.6644 398.689H72.7839Z" fill="#3A3A47"/>
<path d="M42.3078 385.781C34.42 382.076 28.4443 378.73 24.3808 375.384C24.6198 375.862 24.7394 376.34 24.9784 376.937C29.0418 380.164 34.898 383.63 42.9054 387.216C42.7859 386.738 42.5469 386.259 42.4274 385.781H42.3078Z" fill="#3A3A47"/>
<path d="M486.42 435.26L487.496 433.945C486.779 434.901 485.823 435.738 484.628 436.575C484.269 437.053 484.03 437.411 483.671 437.889C484.867 437.053 485.823 436.216 486.42 435.379V435.26Z" fill="#3A3A47"/>
<path d="M111.028 408.369C97.4035 404.903 84.735 401.199 73.3812 397.494C73.5007 397.972 73.6203 398.45 73.8593 398.928C85.2131 402.633 97.762 406.218 111.387 409.804C111.387 409.326 111.148 408.847 111.148 408.369H111.028Z" fill="#3A3A47"/>
<path d="M18.4051 368.333L19.0026 369.886C19.8392 372.038 21.6319 374.308 24.6198 376.699C24.3807 376.221 24.2612 375.742 24.0222 375.145C21.0344 372.755 19.2417 370.484 18.4051 368.333Z" fill="#3A3A47"/>
<path d="M257.074 435.977C240.103 433.707 223.251 431.197 206.758 428.328C206.758 428.806 206.758 429.165 206.758 429.643C223.251 432.392 240.103 435.021 256.954 437.292C256.954 436.814 257.074 436.455 257.193 435.977H257.074Z" fill="#3A3A47"/>
<path d="M205.324 428.089C188.831 425.34 172.697 422.233 157.28 419.006C157.28 419.484 157.28 419.962 157.399 420.321C172.817 423.548 188.831 426.535 205.205 429.284C205.205 428.806 205.205 428.328 205.205 427.97L205.324 428.089Z" fill="#3A3A47"/>
<path d="M309.301 442.072C292.569 440.399 275.479 438.487 258.508 436.216C258.508 436.694 258.388 437.053 258.269 437.531C275.12 439.802 292.091 441.714 308.823 443.387C308.943 442.909 309.062 442.55 309.182 442.072H309.301Z" fill="#3A3A47"/>
<path d="M29.4004 329.252C20.6759 325.308 14.1027 321.483 9.68069 317.898C9.68069 318.495 9.80021 318.973 9.91972 319.571C14.3417 323.156 20.7955 326.861 29.5199 330.925C29.5199 330.327 29.4004 329.849 29.2809 329.252H29.4004Z" fill="#3A3A47"/>
<path d="M208.312 375.862C190.266 372.755 172.578 369.408 155.607 365.942C155.607 366.42 155.607 367.018 155.607 367.496C172.458 370.962 190.146 374.308 208.193 377.416C208.193 376.938 208.193 376.34 208.312 375.862Z" fill="#3A3A47"/>
<path d="M62.6251 343.474C62.6251 343.474 62.6251 342.398 62.5056 341.92C54.0201 339.171 46.2518 336.303 39.2005 333.434C35.9736 332.12 32.9858 330.805 30.2369 329.61C30.2369 330.208 30.3565 330.686 30.476 331.283C33.2248 332.598 36.2126 333.793 39.4395 335.108C46.3713 337.976 54.2592 340.725 62.6251 343.593V343.474Z" fill="#3A3A47"/>
<path d="M497.296 391.518C489.766 393.191 480.444 394.506 469.449 395.462C469.21 395.94 469.09 396.418 468.851 397.016C479.966 396.06 489.288 394.745 496.698 393.072C496.937 392.594 497.176 392.116 497.296 391.518Z" fill="#3A3A47"/>
<path d="M377.543 396.896C377.543 396.896 377.782 395.94 378.021 395.343C360.453 394.387 342.406 392.952 324.001 391.16C324.001 391.638 323.762 392.116 323.642 392.713C342.048 394.506 360.094 395.821 377.543 396.777V396.896Z" fill="#3A3A47"/>
<path d="M2.74886 308.337L2.98788 310.01C3.46594 312.878 5.61718 315.986 9.68064 319.212C9.68064 318.615 9.56113 318.137 9.44162 317.539C5.37815 314.193 3.22691 311.086 2.74886 308.217V308.337Z" fill="#3A3A47"/>
<path d="M514.386 385.184C510.801 387.574 505.303 389.726 497.893 391.399C497.654 391.877 497.415 392.355 497.296 392.952C504.705 391.279 510.203 389.128 513.788 386.738C514.028 386.26 514.267 385.782 514.506 385.184H514.386Z" fill="#3A3A47"/>
<path d="M265.081 384.467C246.437 381.957 227.912 379.208 209.866 376.101C209.866 376.579 209.866 377.176 209.746 377.654C227.793 380.762 246.317 383.511 264.961 386.02C264.961 385.542 265.081 385.064 265.2 384.467H265.081Z" fill="#3A3A47"/>
<path d="M468.373 395.581C457.139 396.418 444.232 396.896 429.651 396.896C429.532 397.374 429.293 397.852 429.173 398.45C443.754 398.45 456.661 397.972 467.895 397.135C468.135 396.657 468.254 396.06 468.493 395.581H468.373Z" fill="#3A3A47"/>
<path d="M518.091 382.077L518.808 380.523C518.091 382.077 516.776 383.63 514.745 385.064C514.506 385.542 514.267 386.14 514.028 386.618C516.059 385.184 517.374 383.75 518.091 382.196V382.077Z" fill="#3A3A47"/>
<path d="M154.172 365.584C137.321 362.118 121.187 358.293 106.128 354.469C106.128 354.947 106.128 355.545 106.128 356.023C121.187 359.847 137.202 363.552 154.053 367.137C154.053 366.659 154.053 366.062 154.053 365.584H154.172Z" fill="#3A3A47"/>
<path d="M104.813 354.23C89.8741 350.406 76.0106 346.342 63.5812 342.279C63.5812 342.757 63.5811 343.354 63.7007 343.832C76.1301 347.896 89.9936 351.84 104.933 355.784C104.933 355.306 104.933 354.708 104.933 354.23H104.813Z" fill="#3A3A47"/>
<path d="M427.858 398.45C427.858 398.45 428.217 397.494 428.337 396.896C417.58 396.896 405.868 396.657 393.2 396.179C388.658 395.94 383.997 395.821 379.336 395.581C379.216 396.06 379.097 396.538 378.858 397.135C383.519 397.374 388.06 397.613 392.602 397.733C405.151 398.211 416.863 398.45 427.619 398.45H427.858Z" fill="#3A3A47"/>
<path d="M322.328 391.16C303.923 389.367 285.279 387.216 266.635 384.706C266.635 385.184 266.515 385.782 266.396 386.26C284.92 388.769 303.684 390.921 321.97 392.713C321.97 392.235 322.209 391.757 322.328 391.16Z" fill="#3A3A47"/>
<path d="M442.917 340.008C442.917 340.008 443.156 338.813 443.156 338.334C431.922 338.334 419.851 338.095 406.705 337.498C401.924 337.259 397.143 337.02 392.363 336.781C392.363 337.378 392.124 337.976 392.124 338.454C396.904 338.693 401.685 338.932 406.466 339.171C419.492 339.649 431.683 340.008 442.917 340.008Z" fill="#3A3A47"/>
<path d="M390.929 336.781C372.763 335.825 353.879 334.271 334.757 332.478C334.757 333.076 334.638 333.674 334.518 334.152C353.64 335.944 372.404 337.498 390.69 338.454C390.69 337.857 390.929 337.259 390.929 336.781Z" fill="#3A3A47"/>
<path d="M158.355 305.827C140.787 302.122 124.055 298.298 108.518 294.354C108.518 294.951 108.399 295.549 108.279 296.027C123.935 299.971 140.667 303.915 158.116 307.5C158.116 306.903 158.236 306.305 158.355 305.827Z" fill="#3A3A47"/>
<path d="M484.866 336.9C473.273 337.857 459.768 338.335 444.59 338.335C444.59 338.932 444.351 339.53 444.351 340.008C459.529 340.008 473.034 339.53 484.627 338.574C484.627 337.976 484.866 337.379 484.986 336.9H484.866Z" fill="#3A3A47"/>
<path d="M273.686 325.427C254.325 322.798 235.083 319.93 216.32 316.703C216.32 317.3 216.2 317.898 216.081 318.376C234.844 321.603 254.086 324.471 273.447 327.1C273.447 326.503 273.567 325.905 273.686 325.427Z" fill="#3A3A47"/>
<path d="M214.646 316.464C195.883 313.237 177.478 309.771 159.909 306.186C159.909 306.783 159.79 307.381 159.67 307.859C177.239 311.564 195.644 314.91 214.407 318.137C214.407 317.539 214.527 316.942 214.646 316.464Z" fill="#3A3A47"/>
<path d="M532.552 326.144C528.847 328.654 523.111 330.805 515.462 332.598C515.462 333.196 515.223 333.793 515.103 334.271C522.752 332.479 528.489 330.327 532.194 327.818C532.194 327.22 532.433 326.622 532.552 326.144Z" fill="#3A3A47"/>
<path d="M28.9223 268.061C19.8393 263.878 13.1465 259.934 8.48547 256.229C8.48547 256.826 8.48547 257.424 8.36596 258.022C12.9075 261.727 19.7197 265.67 28.8028 269.853C28.8028 269.256 28.8028 268.658 28.9223 268.061Z" fill="#3A3A47"/>
<path d="M333.084 332.239C313.962 330.327 294.601 328.176 275.24 325.547C275.24 326.144 275.12 326.742 275.001 327.22C294.362 329.849 313.723 332 332.845 333.913C332.845 333.315 332.965 332.717 333.084 332.239Z" fill="#3A3A47"/>
<path d="M1.19523 246.07C1.19523 246.07 1.19523 247.265 1.07571 247.863C1.43425 250.97 3.70501 254.317 8.0075 257.783C8.0075 257.185 8.0075 256.587 8.12701 255.99C3.70501 252.404 1.43425 249.058 1.19523 246.07Z" fill="#3A3A47"/>
<path d="M62.9837 283C62.9837 283 62.9837 281.805 63.1032 281.207C54.2592 278.339 46.2518 275.351 38.9614 272.483C35.6151 271.168 32.5077 269.853 29.6394 268.539C29.6394 269.136 29.6394 269.734 29.5199 270.332C32.3882 271.646 35.4956 272.961 38.8419 274.276C46.1323 277.263 54.2592 280.132 62.9837 283Z" fill="#3A3A47"/>
<path d="M107.204 293.995C91.6669 289.932 77.2058 285.868 64.2983 281.566C64.2983 282.163 64.2983 282.761 64.1788 283.359C77.0863 287.542 91.5474 291.725 107.084 295.788C107.084 295.19 107.084 294.593 107.323 294.115L107.204 293.995Z" fill="#3A3A47"/>
<path d="M537.333 321.483L537.691 319.69C537.213 321.961 535.66 323.993 533.03 325.905C533.03 326.503 532.791 327.1 532.672 327.578C535.421 325.666 536.974 323.634 537.333 321.364V321.483Z" fill="#3A3A47"/>
<path d="M514.745 332.717C506.976 334.51 497.296 335.825 485.823 336.781C485.823 337.378 485.583 337.976 485.464 338.454C496.937 337.498 506.618 336.183 514.386 334.391C514.386 333.793 514.625 333.195 514.745 332.717Z" fill="#3A3A47"/>
<path d="M282.172 262.443C263.169 259.934 244.286 257.065 225.761 253.958C225.761 254.556 225.522 255.153 225.403 255.631C243.927 258.739 262.93 261.607 281.933 264.236C281.933 263.639 282.052 263.041 282.172 262.443Z" fill="#3A3A47"/>
<path d="M340.733 269.256C321.969 267.463 302.847 265.192 283.844 262.683C283.844 263.28 283.725 263.878 283.605 264.475C302.608 266.985 321.73 269.256 340.613 271.049C340.613 270.451 340.613 269.853 340.733 269.256Z" fill="#3A3A47"/>
<path d="M519.406 269.614C511.757 271.407 502.196 272.722 490.962 273.678C490.962 274.275 490.962 274.873 490.962 275.47C502.315 274.514 511.877 273.2 519.525 271.407C519.525 270.809 519.525 270.212 519.525 269.614H519.406Z" fill="#3A3A47"/>
<path d="M74.6961 220.614C74.6961 220.614 75.0547 219.538 75.1742 218.941C66.4497 216.072 58.5618 213.204 51.391 210.336C48.1641 209.021 45.0568 207.707 42.1885 206.392C42.069 206.989 41.8299 207.467 41.7104 208.065C44.5787 209.38 47.5666 210.694 50.913 212.009C58.0838 214.877 66.0912 217.865 74.6961 220.614Z" fill="#3A3A47"/>
<path d="M41.4712 206.033C32.5077 201.97 25.9345 198.026 21.393 194.44C21.2734 195.038 21.0344 195.516 20.9149 196.114C25.4564 199.699 32.1492 203.643 40.9932 207.706C41.1127 207.109 41.3517 206.631 41.4712 206.033Z" fill="#3A3A47"/>
<path d="M397.502 273.558C379.575 272.602 361.05 271.168 342.287 269.375C342.287 269.973 342.287 270.57 342.167 271.168C360.931 272.961 379.575 274.395 397.382 275.351C397.382 274.753 397.382 274.156 397.382 273.558H397.502Z" fill="#3A3A47"/>
<path d="M224.088 253.6C205.563 250.492 187.517 247.026 170.187 243.441C170.187 244.039 169.948 244.517 169.829 245.114C187.158 248.7 205.205 252.165 223.729 255.273C223.729 254.675 223.968 254.078 223.968 253.6H224.088Z" fill="#3A3A47"/>
<path d="M20.4368 195.755C20.4368 195.755 20.7953 194.679 20.9149 194.082C16.6124 190.616 14.3416 187.269 14.1026 184.282C13.8636 184.879 13.744 185.357 13.505 185.955C13.8636 188.943 16.0148 192.289 20.3173 195.755H20.4368Z" fill="#3A3A47"/>
<path d="M168.753 243.202C151.543 239.617 135.05 235.792 119.633 231.848C119.514 232.446 119.394 232.924 119.155 233.521C134.572 237.465 151.065 241.29 168.275 244.875C168.395 244.278 168.514 243.68 168.634 243.202H168.753Z" fill="#3A3A47"/>
<path d="M449.012 276.905C449.012 276.905 449.012 275.71 449.012 275.112C438.017 275.112 426.066 274.873 413.158 274.275C408.497 274.036 403.836 273.797 399.056 273.558C399.056 274.156 399.056 274.754 399.056 275.351C403.836 275.59 408.497 275.829 413.158 276.068C426.066 276.546 438.017 276.905 449.012 276.905Z" fill="#3A3A47"/>
<path d="M541.994 257.066V255.273C541.994 258.141 540.44 260.651 537.213 262.922C537.213 263.519 537.213 264.117 537.213 264.714C540.44 262.444 542.114 259.814 541.994 257.066Z" fill="#3A3A47"/>
<path d="M489.886 273.678C478.413 274.634 465.266 275.112 450.327 275.112C450.327 275.709 450.327 276.307 450.327 276.905C465.266 276.905 478.532 276.427 490.005 275.47C490.005 274.873 490.005 274.275 490.005 273.678H489.886Z" fill="#3A3A47"/>
<path d="M536.855 263.161C533.15 265.67 527.533 267.702 520.003 269.495C520.003 270.092 520.003 270.69 520.003 271.288C527.533 269.495 533.269 267.344 536.855 264.953C536.855 264.356 536.855 263.758 536.855 263.161Z" fill="#3A3A47"/>
<path d="M118.438 231.49C103.14 227.546 89.0374 223.482 76.2495 219.299C76.13 219.897 75.891 220.375 75.7714 220.972C88.4399 225.155 102.662 229.219 117.96 233.163C118.079 232.565 118.199 232.087 118.438 231.49Z" fill="#3A3A47"/>
<path d="M65.4934 149.384C57.2469 145.559 51.0322 141.974 46.7297 138.628C46.4907 139.106 46.1322 139.584 45.8931 140.062C50.0761 143.408 56.2908 147.113 64.6568 150.938C64.8958 150.459 65.1348 149.981 65.4934 149.503V149.384Z" fill="#3A3A47"/>
<path d="M397.382 212.367C380.651 211.411 363.441 210.097 345.872 208.423C345.872 209.021 345.872 209.499 345.872 210.097C363.441 211.77 380.77 213.084 397.502 214.041C397.502 213.443 397.502 212.965 397.502 212.367H397.382Z" fill="#3A3A47"/>
<path d="M289.82 201.85C272.132 199.46 254.444 196.831 237.234 193.843C237.234 194.321 236.995 194.919 236.876 195.516C254.205 198.384 271.893 201.133 289.581 203.524C289.581 202.926 289.701 202.448 289.82 201.85Z" fill="#3A3A47"/>
<path d="M184.17 183.923C168.036 180.577 152.738 176.991 138.397 173.406C138.158 173.884 138.038 174.481 137.799 174.96C152.141 178.664 167.558 182.13 183.692 185.596C183.812 185.118 184.051 184.521 184.17 184.043V183.923Z" fill="#3A3A47"/>
<path d="M45.5348 139.703C45.5348 139.703 46.1324 138.747 46.3714 138.269C42.4274 135.042 40.2762 131.935 40.0372 129.186C39.7981 129.664 39.4396 130.142 39.2006 130.62C39.4396 133.489 41.5908 136.476 45.6543 139.823L45.5348 139.703Z" fill="#3A3A47"/>
<path d="M445.546 215.475C445.546 215.475 445.427 214.399 445.307 213.801C435.029 213.801 423.914 213.562 411.963 213.084C407.661 212.965 403.238 212.726 398.816 212.487C398.816 213.084 398.816 213.562 398.816 214.16C403.238 214.399 407.661 214.638 411.963 214.758C423.914 215.236 435.149 215.475 445.427 215.475H445.546Z" fill="#3A3A47"/>
<path d="M344.438 208.184C326.87 206.511 309.062 204.479 291.374 202.089C291.374 202.567 291.254 203.165 291.135 203.762C308.942 206.153 326.75 208.184 344.318 209.857C344.318 209.26 344.318 208.782 344.318 208.184H344.438Z" fill="#3A3A47"/>
<path d="M527.533 202.448C527.533 202.448 527.891 203.524 528.011 204.121C531.238 201.85 532.791 199.341 532.433 196.472C532.313 195.875 532.074 195.397 531.955 194.799C532.313 197.548 530.76 200.177 527.533 202.448Z" fill="#3A3A47"/>
<path d="M483.432 212.487C472.795 213.323 460.485 213.801 446.502 213.801C446.502 214.399 446.622 214.877 446.741 215.475C460.725 215.475 473.034 214.997 483.791 214.16C483.791 213.562 483.552 213.084 483.432 212.487Z" fill="#3A3A47"/>
<path d="M96.2084 162.889C96.2084 162.889 96.6865 161.813 96.9255 161.335C88.7986 158.706 81.3887 155.957 74.696 153.328C71.7081 152.133 68.8398 150.818 66.2105 149.623C65.9715 150.101 65.613 150.579 65.3739 151.057C68.0032 152.252 70.8716 153.447 73.9789 154.762C80.6717 157.511 88.0815 160.14 96.2084 162.889Z" fill="#3A3A47"/>
<path d="M235.8 193.723C218.59 190.735 201.739 187.628 185.605 184.282C185.485 184.76 185.246 185.357 185.127 185.835C201.261 189.182 218.112 192.409 235.442 195.277C235.442 194.799 235.681 194.201 235.8 193.723Z" fill="#3A3A47"/>
<path d="M510.92 208.662C503.749 210.216 494.905 211.531 484.388 212.367C484.388 212.965 484.627 213.443 484.747 214.041C495.384 213.204 504.228 211.889 511.398 210.336C511.279 209.738 511.159 209.26 511.04 208.662H510.92Z" fill="#3A3A47"/>
<path d="M527.294 202.567C523.828 204.838 518.569 206.87 511.638 208.543C511.757 209.14 511.877 209.618 511.996 210.216C519.047 208.543 524.306 206.631 527.772 204.24L527.294 202.567Z" fill="#3A3A47"/>
<path d="M137.201 173.047C122.979 169.343 109.713 165.638 97.8815 161.694C97.6424 162.172 97.4034 162.769 97.1644 163.247C108.996 167.191 122.262 170.896 136.604 174.601C136.843 174.123 137.082 173.526 137.201 173.047Z" fill="#3A3A47"/>
<path d="M162.419 120.581C149.87 117.354 138.277 114.008 127.879 110.661C127.521 111.14 127.282 111.498 126.923 111.976C137.321 115.442 149.033 118.788 161.582 122.015C161.821 121.537 162.06 121.059 162.299 120.701L162.419 120.581Z" fill="#3A3A47"/>
<path d="M490.603 151.774C484.388 153.208 476.5 154.284 467.298 155.001C467.537 155.479 467.657 155.957 467.896 156.555C477.218 155.837 485.105 154.642 491.32 153.208C491.081 152.73 490.842 152.252 490.603 151.774Z" fill="#3A3A47"/>
<path d="M126.087 111.618C126.087 111.618 126.684 110.781 127.043 110.303C119.992 107.913 113.418 105.642 107.562 103.252C104.933 102.176 102.423 101.1 100.033 100.025C99.6742 100.503 99.3157 100.861 98.9572 101.339C101.347 102.415 103.857 103.491 106.487 104.566C112.343 106.957 118.916 109.347 126.087 111.618Z" fill="#3A3A47"/>
<path d="M344.438 151.416C329.021 149.981 313.365 148.069 297.828 146.037C297.828 146.515 297.828 146.994 297.708 147.472C313.365 149.503 329.021 151.416 344.558 152.85C344.558 152.372 344.558 151.894 344.558 151.296L344.438 151.416Z" fill="#3A3A47"/>
<path d="M390.929 155.001C376.229 154.164 361.17 153.089 345.753 151.535C345.753 152.013 345.753 152.491 345.753 153.089C361.17 154.523 376.468 155.718 391.168 156.555C391.168 156.076 391.048 155.598 390.929 155.001Z" fill="#3A3A47"/>
<path d="M504.945 146.396C501.957 148.428 497.296 150.221 491.081 151.535C491.32 152.013 491.559 152.491 491.798 153.089C498.013 151.655 502.674 149.862 505.662 147.83C505.423 147.352 505.184 146.874 504.945 146.396Z" fill="#3A3A47"/>
<path d="M203.651 130.142C189.548 127.154 176.043 124.047 163.494 120.82C163.255 121.298 163.016 121.776 162.777 122.135C175.446 125.362 188.951 128.469 203.173 131.457C203.412 130.979 203.531 130.501 203.77 130.023L203.651 130.142Z" fill="#3A3A47"/>
<path d="M296.513 145.798C280.976 143.767 265.44 141.376 250.261 138.867C250.142 139.345 250.022 139.823 249.903 140.301C265.081 142.811 280.737 145.201 296.274 147.352C296.274 146.874 296.274 146.396 296.394 145.918L296.513 145.798Z" fill="#3A3A47"/>
<path d="M433.475 157.75C433.475 157.75 433.117 156.794 432.997 156.196C423.914 156.196 414.114 155.957 403.597 155.599C399.773 155.479 395.948 155.24 392.004 155.001C392.004 155.479 392.124 155.957 392.243 156.555C396.187 156.794 400.012 156.913 403.836 157.152C414.353 157.63 424.273 157.75 433.356 157.75H433.475Z" fill="#3A3A47"/>
<path d="M248.947 138.628C233.769 136.118 219.068 133.249 204.846 130.381C204.607 130.859 204.488 131.337 204.249 131.815C218.471 134.803 233.291 137.552 248.469 140.181C248.588 139.703 248.708 139.225 248.827 138.747L248.947 138.628Z" fill="#3A3A47"/>
<path d="M509.845 141.018C509.845 141.018 509.367 140.062 509.008 139.584C509.247 142.094 508.052 144.245 505.184 146.276C505.423 146.755 505.662 147.233 506.02 147.711C508.889 145.679 510.203 143.528 509.845 141.018Z" fill="#3A3A47"/>
<path d="M99.4353 99.6663C92.145 96.3199 86.6474 93.0931 82.9424 90.2247C82.5839 90.5833 82.2254 91.0613 81.8668 91.4199C85.5717 94.4077 91.0694 97.6346 98.3597 100.981C98.7182 100.503 99.0768 100.144 99.4353 99.6663Z" fill="#3A3A47"/>
<path d="M81.5081 91.1808C81.5081 91.1808 82.2252 90.3442 82.5837 89.9856C79.1178 87.1173 77.2056 84.3685 76.9666 81.9782C76.608 82.3368 76.2495 82.8148 75.7714 83.1734C76.0105 85.6831 77.9227 88.3124 81.3886 91.1808H81.5081Z" fill="#3A3A47"/>
<path d="M466.581 155.12C457.259 155.837 446.383 156.316 434.192 156.316C434.312 156.794 434.551 157.272 434.671 157.869C446.98 157.869 457.856 157.511 467.178 156.674C466.939 156.196 466.82 155.718 466.581 155.12Z" fill="#3A3A47"/>
<path d="M440.168 103.73C432.52 104.327 423.795 104.686 413.756 104.686C413.995 105.164 414.234 105.522 414.473 106.001C424.512 106.001 433.356 105.642 441.005 105.044C440.766 104.566 440.407 104.208 440.168 103.73Z" fill="#3A3A47"/>
<path d="M471.481 96.6782C468.971 98.3514 465.266 99.7856 460.246 100.861C460.605 101.339 460.844 101.698 461.203 102.176C466.222 100.981 470.047 99.5465 472.556 97.8734C472.198 97.3953 471.839 97.0368 471.481 96.5587V96.6782Z" fill="#3A3A47"/>
<path d="M162.777 68.2341C162.777 68.2341 163.495 67.517 163.853 67.1585C158.116 65.2463 152.738 63.334 147.958 61.4218C145.807 60.5852 143.775 59.6291 141.863 58.7925C141.385 59.1511 141.026 59.5096 140.548 59.7486C142.46 60.5852 144.492 61.5413 146.643 62.3779C151.424 64.2902 156.802 66.3219 162.538 68.2341H162.777Z" fill="#3A3A47"/>
<path d="M301.772 96.2004C289.103 94.5272 276.435 92.615 264.125 90.4637C264.005 90.8223 263.886 91.3003 263.766 91.6589C276.196 93.8101 288.864 95.7223 301.652 97.3955C301.652 96.9175 301.652 96.5589 301.772 96.0809V96.2004Z" fill="#3A3A47"/>
<path d="M141.384 58.5534C135.409 55.8046 130.987 53.2948 127.999 50.785C127.521 51.1436 127.043 51.3826 126.684 51.7411C129.672 54.1314 134.214 56.7607 140.189 59.5095C140.667 59.151 141.026 58.7924 141.504 58.5534H141.384Z" fill="#3A3A47"/>
<path d="M378.619 103.61C366.668 103.013 354.358 102.056 341.809 100.742C341.809 101.22 341.809 101.578 341.928 102.056C354.477 103.252 366.907 104.208 378.977 104.925C378.858 104.447 378.738 104.088 378.619 103.61Z" fill="#3A3A47"/>
<path d="M340.853 100.622C328.304 99.4272 315.635 97.993 302.967 96.2003C302.967 96.6784 302.967 97.0369 302.967 97.515C315.755 99.1882 328.543 100.742 341.092 101.937C341.092 101.459 341.092 101.1 340.972 100.622H340.853Z" fill="#3A3A47"/>
<path d="M192.656 75.5243C182.497 72.895 173.055 70.1462 164.57 67.3974C164.211 67.7559 163.853 68.1145 163.494 68.473C171.98 71.2218 181.541 73.9706 191.819 76.5999C192.178 76.2414 192.417 75.8829 192.775 75.5243H192.656Z" fill="#3A3A47"/>
<path d="M413.636 106.001C413.636 106.001 413.158 105.164 413.039 104.686C405.629 104.686 397.741 104.566 389.136 104.208C386.029 104.088 382.921 103.969 379.694 103.73C379.814 104.208 379.933 104.566 380.172 105.044C383.399 105.164 386.507 105.403 389.614 105.522C398.219 105.881 406.226 106.001 413.636 106.001Z" fill="#3A3A47"/>
<path d="M263.169 90.344C250.859 88.3123 238.788 86.0415 227.315 83.5317C227.076 83.8903 226.837 84.3683 226.717 84.7269C238.31 87.1171 250.381 89.3879 262.81 91.5391C262.93 91.1806 263.049 90.7025 263.169 90.344Z" fill="#3A3A47"/>
<path d="M475.903 92.2563C475.903 92.2563 475.186 91.4197 474.827 91.0611C475.066 93.0929 473.991 94.8856 471.72 96.5588C472.078 97.0368 472.437 97.3954 472.796 97.8734C475.186 96.2002 476.142 94.4075 475.903 92.3758V92.2563Z" fill="#3A3A47"/>
<path d="M226.239 83.2929C214.766 80.9026 203.77 78.3929 193.492 75.7636C193.134 76.1221 192.895 76.4806 192.656 76.8392C202.934 79.4685 214.049 81.9783 225.522 84.4881C225.761 84.1295 226 83.6515 226.239 83.2929Z" fill="#3A3A47"/>
<path d="M459.888 100.981C454.749 102.176 448.415 103.013 440.885 103.61C441.124 104.088 441.483 104.447 441.722 104.925C449.371 104.327 455.705 103.371 460.844 102.295C460.486 101.817 460.247 101.459 459.888 100.981Z" fill="#3A3A47"/>
<path d="M126.445 51.6217C126.445 51.6217 127.401 51.0241 127.76 50.6656C124.892 48.2753 123.338 46.1241 123.218 44.0924C122.74 44.4509 122.262 44.6899 121.784 45.0485C122.023 47.0802 123.457 49.2314 126.326 51.6217H126.445Z" fill="#3A3A47"/>
<path d="M178.553 22.5799C178.553 22.5799 179.509 22.1018 180.107 21.9823C178.075 20.3091 177 18.7555 176.761 17.3213C176.282 17.5603 175.685 17.6798 175.207 17.9189C175.326 19.353 176.402 21.0262 178.553 22.6994V22.5799Z" fill="#3A3A47"/>
<path d="M226.956 39.9093C219.546 37.9971 212.734 36.0849 206.639 34.0532C206.28 34.2922 205.802 34.5312 205.444 34.8898C211.658 36.9215 218.471 38.8337 226 40.8655C226.358 40.6264 226.597 40.2679 226.956 40.0289V39.9093Z" fill="#3A3A47"/>
<path d="M419.731 58.1948C416.026 59.0314 411.485 59.629 405.987 60.107C406.346 60.4656 406.704 60.8241 407.063 61.1826C412.561 60.7046 417.222 60.107 420.927 59.2704C420.568 58.9119 420.09 58.5533 419.731 58.1948Z" fill="#3A3A47"/>
<path d="M189.907 27.5996C185.604 25.6874 182.377 23.7751 180.226 21.9824C179.748 22.2215 179.27 22.4605 178.673 22.58C180.824 24.3727 184.17 26.2849 188.473 28.1971C188.951 27.9581 189.429 27.7191 189.907 27.4801V27.5996Z" fill="#3A3A47"/>
<path d="M405.509 60.1073C400.012 60.5854 393.677 60.8244 386.507 60.8244C386.746 61.1829 387.104 61.5415 387.343 61.9C394.633 61.9 401.087 61.661 406.585 61.1829C406.226 60.8244 405.868 60.4659 405.509 60.1073Z" fill="#3A3A47"/>
<path d="M277.749 50.5461C268.905 48.9924 260.181 47.4387 251.815 45.646C251.576 46.0046 251.337 46.2436 251.098 46.6021C259.464 48.3948 268.308 50.068 277.271 51.5022C277.391 51.1436 277.51 50.9046 277.63 50.5461H277.749Z" fill="#3A3A47"/>
<path d="M204.846 34.6508C204.846 34.6508 205.683 34.1728 206.041 33.8142C201.858 32.4996 198.034 31.0654 194.568 29.6313C193.014 29.0337 191.58 28.3166 190.146 27.719C189.668 27.9581 189.19 28.1971 188.712 28.4361C190.146 29.0337 191.58 29.7508 193.134 30.3483C196.6 31.7825 200.544 33.2167 204.727 34.5313L204.846 34.6508Z" fill="#3A3A47"/>
<path d="M386.746 61.9C386.746 61.9 386.148 61.1829 385.909 60.8244C380.651 60.8244 374.914 60.7049 368.699 60.4658C366.428 60.4658 364.158 60.2268 361.887 60.1073C362.126 60.4659 362.246 60.8244 362.485 61.1829C364.755 61.3024 367.026 61.422 369.297 61.5415C375.512 61.7805 381.368 61.9 386.746 61.9Z" fill="#3A3A47"/>
<path d="M305.715 54.729C296.632 53.5339 287.43 52.0997 278.586 50.6655C278.466 51.0241 278.347 51.2631 278.227 51.6216C287.191 53.1753 296.393 54.49 305.715 55.8046C305.715 55.4461 305.715 55.0875 305.715 54.729Z" fill="#3A3A47"/>
<path d="M429.532 56.0438C429.532 56.0438 428.695 55.3267 428.217 54.9681C426.424 56.1633 423.795 57.1194 420.09 58.0755C420.449 58.434 420.927 58.7926 421.285 59.1511C424.99 58.3145 427.739 57.2389 429.532 56.0438Z" fill="#3A3A47"/>
<path d="M333.801 57.9558C324.718 57.1192 315.635 56.0436 306.433 54.8485C306.433 55.207 306.433 55.5655 306.433 55.9241C315.635 57.1192 324.957 58.1948 334.16 59.1509C334.16 58.7924 334.04 58.4339 333.921 58.0753L333.801 57.9558Z" fill="#3A3A47"/>
<path d="M361.17 60.1072C352.565 59.6291 343.601 58.912 334.638 58.0754C334.638 58.434 334.757 58.7925 334.877 59.1511C343.96 59.9877 353.043 60.7047 361.767 61.1828C361.528 60.8242 361.409 60.4657 361.17 60.1072Z" fill="#3A3A47"/>
<path d="M431.922 51.9802C431.922 51.9802 430.966 51.3826 430.607 51.0241C430.727 52.4582 430.01 53.7729 428.336 54.968C428.814 55.3266 429.173 55.6851 429.651 56.0436C431.324 54.8485 432.161 53.5339 431.922 52.0997V51.9802Z" fill="#3A3A47"/>
<path d="M251.098 45.5266C242.852 43.7339 234.844 41.9412 227.554 40.029C227.195 40.268 226.837 40.6265 226.598 40.8655C234.127 42.7778 242.134 44.5705 250.5 46.3632C250.739 46.0046 250.979 45.7656 251.218 45.4071L251.098 45.5266Z" fill="#3A3A47"/>
<path d="M307.867 23.4165C302.728 22.6994 297.708 21.9823 292.689 21.1457C292.689 21.3847 292.45 21.6238 292.33 21.8628C297.469 22.6994 302.608 23.536 307.867 24.2531C307.867 24.014 307.867 23.775 307.867 23.536V23.4165Z" fill="#3A3A47"/>
<path d="M292.21 21.1457C287.191 20.3091 282.41 19.353 277.749 18.3969C277.51 18.6359 277.271 18.7555 277.032 18.9945C281.813 19.9506 286.713 20.9067 291.852 21.7433C291.971 21.5043 292.091 21.2652 292.21 21.1457Z" fill="#3A3A47"/>
<path d="M277.391 18.2774C272.73 17.3213 268.308 16.2457 264.125 15.2896C263.766 15.4091 263.408 15.6481 263.049 15.7676C267.232 16.8433 271.774 17.9189 276.554 18.875C276.793 18.636 277.032 18.5165 277.271 18.2774H277.391Z" fill="#3A3A47"/>
<path d="M323.643 25.3288C318.623 24.8507 313.484 24.2532 308.345 23.5361C308.345 23.7751 308.345 24.0142 308.345 24.2532C313.604 24.9703 318.862 25.5678 324.001 26.0459C324.001 25.8069 323.762 25.5678 323.643 25.3288Z" fill="#3A3A47"/>
<path d="M353.76 27.7191C353.76 27.7191 353.043 27.241 352.804 26.8825C349.816 26.8825 346.589 26.8825 343.123 26.6434C341.809 26.6434 340.614 26.6434 339.299 26.4044C339.538 26.6434 339.777 26.8825 340.016 27.241C341.331 27.241 342.645 27.3605 343.96 27.48C347.545 27.5995 350.772 27.7191 353.88 27.7191H353.76Z" fill="#3A3A47"/>
<path d="M263.766 15.1701C259.703 14.0945 255.878 13.0189 252.413 11.9433C251.935 12.0628 251.576 12.3018 251.098 12.4213C254.564 13.6164 258.508 14.6921 262.691 15.7677C263.049 15.6482 263.408 15.4091 263.766 15.2896V15.1701Z" fill="#3A3A47"/>
<path d="M363.679 26.5239C360.572 26.7629 357.106 26.8824 353.043 26.8824C353.401 27.1215 353.76 27.3605 353.999 27.719C358.062 27.719 361.767 27.5995 364.875 27.3605C364.516 27.1215 364.038 26.8824 363.679 26.5239Z" fill="#3A3A47"/>
<path d="M371.687 25.4483C369.655 25.9263 367.026 26.2849 364.038 26.5239C364.516 26.7629 364.875 27.002 365.233 27.3605C368.341 27.1215 370.97 26.7629 373.121 26.2849C372.643 26.0459 372.165 25.8068 371.687 25.5678V25.4483Z" fill="#3A3A47"/>
<path d="M376.348 23.6556C375.392 24.2532 373.838 24.8507 371.806 25.3288C372.285 25.5678 372.763 25.8069 373.241 26.0459C375.272 25.5678 376.826 24.9703 377.902 24.2532C377.424 24.0142 376.826 23.7751 376.348 23.5361V23.6556Z" fill="#3A3A47"/>
<path d="M338.94 26.5239C334.16 26.2849 329.14 25.9263 324.121 25.4483C324.121 25.6873 324.36 25.9263 324.479 26.1654C329.618 26.6434 334.757 27.002 339.658 27.3605C339.418 27.1215 339.179 26.8825 338.94 26.5239Z" fill="#3A3A47"/>
<path d="M250.859 12.1823C250.859 12.1823 251.695 11.9433 252.173 11.7043C249.783 10.9872 247.751 10.1506 245.72 9.43351C244.883 9.07497 244.047 8.71643 243.21 8.35789C242.732 8.35789 242.254 8.59692 241.656 8.71643C242.493 9.07497 243.329 9.43351 244.166 9.79205C246.198 10.6286 248.349 11.3457 250.739 12.1823H250.859Z" fill="#3A3A47"/>
<path d="M235.92 5.36995C235.92 5.36995 236.995 5.13093 237.593 5.13093C236.398 4.17482 235.8 3.33822 235.8 2.50163C235.203 2.50163 234.725 2.62114 234.127 2.74065C234.127 3.57725 234.844 4.41384 236.039 5.48947L235.92 5.36995Z" fill="#3A3A47"/>
<path d="M379.336 22.1018C379.336 22.1018 378.26 21.6237 377.782 21.3847C377.782 22.2213 377.424 22.9384 376.468 23.536C376.946 23.775 377.543 24.014 378.021 24.253C378.977 23.536 379.456 22.8189 379.336 21.9823V22.1018Z" fill="#3A3A47"/>
<path d="M243.09 8.35776C240.7 7.28214 238.907 6.20652 237.712 5.25041C237.115 5.25041 236.637 5.48944 236.039 5.48944C237.234 6.44554 239.147 7.52117 241.537 8.7163C242.015 8.59679 242.493 8.47727 243.09 8.35776Z" fill="#3A3A47"/>
<path d="M0.478041 286.466C0.717068 289.932 0.956095 293.397 1.31464 296.863L0.478041 286.466Z" fill="#3A3A47"/>
<path d="M0.478054 285.271L0 269.375C0 274.634 0 280.012 0.358541 285.271H0.478054Z" fill="#3A3A47"/>
<path d="M100.511 481.273C98.718 479.839 97.0448 478.404 95.3716 476.851C96.4472 477.687 97.4033 478.643 98.479 479.48L100.63 481.153L100.511 481.273Z" fill="#3A3A47"/>
<path d="M94.6545 476.373C94.6545 476.373 95.0131 476.731 95.2521 476.851C95.0131 476.731 94.8936 476.492 94.6545 476.373Z" fill="#3A3A47"/>
<path d="M187.278 528.72C185.963 528.242 184.649 527.883 183.453 527.405C184.529 527.764 185.605 528.122 186.68 528.481L187.397 528.72H187.278Z" fill="#3A3A47"/>
<path d="M340.494 533.022C340.494 533.022 340.016 533.142 339.777 533.261C340.016 533.261 340.255 533.142 340.494 533.022Z" fill="#3A3A47"/>
<path d="M335.474 534.337C336.909 533.978 338.343 533.62 339.657 533.261C337.745 533.739 335.713 534.337 333.801 534.815L335.474 534.456V534.337Z" fill="#3A3A47"/>
<path d="M528.011 204.001C528.011 204.001 527.772 202.926 527.533 202.328C522.274 183.326 514.984 165.04 506.02 147.711C505.781 147.232 505.542 146.754 505.184 146.276C496.101 129.066 485.225 112.693 472.676 97.7539C472.317 97.2758 471.959 96.9173 471.6 96.4392C459.051 81.5 444.949 67.995 429.532 55.9241C429.054 55.5656 428.695 55.2071 428.217 54.8485C412.68 42.8972 395.829 32.619 377.902 24.2531C377.424 24.014 376.946 23.775 376.348 23.536C358.78 15.4091 340.255 9.19435 320.774 4.89186C320.894 4.77235 321.013 4.65283 321.013 4.53332C340.853 8.11873 359.736 13.8554 377.663 21.3847C378.141 21.6238 378.738 21.8628 379.216 22.1018C397.502 29.9897 414.712 39.6703 430.488 51.0241C430.966 51.3826 431.444 51.6216 431.802 51.9802C447.578 63.4535 461.92 76.6 474.708 91.0611C475.066 91.5392 475.425 91.8977 475.783 92.2562C488.452 106.837 499.567 122.613 508.889 139.584C509.128 140.062 509.367 140.54 509.725 141.018C518.928 157.989 526.338 176.035 531.716 194.799C531.835 195.277 532.074 195.874 532.194 196.472C533.867 202.448 535.301 208.543 536.616 214.758L535.66 209.738C512.593 105.522 427.619 21.6238 316.113 3.69673C316.113 3.69673 314.799 4.41381 312.169 4.29429C308.345 4.17478 303.325 3.21867 301.055 2.38208C300.337 2.02354 299.979 1.78451 299.859 1.54548C299.023 1.54548 298.186 1.30646 297.35 1.30646C153.216 -12.7961 22.4685 88.7904 2.50978 232.685C0.956108 244.397 0 255.99 0 267.583V269.495C0 262.324 0.358541 255.153 0.956108 247.863C0.956108 247.265 0.956108 246.668 1.07562 246.07C1.43416 241.887 1.91222 237.704 2.50978 233.521C4.78054 217.148 8.48546 201.253 13.505 186.074C13.7441 185.477 13.8636 184.999 14.1026 184.401C20.5563 165.399 28.9223 147.352 39.0809 130.62C39.3199 130.142 39.6785 129.664 39.9175 129.186C50.1957 112.454 62.2665 97.1563 75.7716 83.1732C76.1301 82.8147 76.4887 82.3366 76.9667 81.9781C90.5912 68.1145 105.53 55.8046 121.784 45.0484C122.262 44.6899 122.74 44.4508 123.218 44.0923C139.472 33.5751 156.921 24.6116 175.207 17.6798C175.685 17.4408 176.282 17.3213 176.76 17.0822C195.046 10.27 214.288 5.36991 234.007 2.6211C234.605 2.6211 235.083 2.50159 235.681 2.38208C254.922 -0.127707 274.762 -0.725274 294.84 1.06743C294.84 1.18694 294.959 1.42597 295.198 1.54548C275.598 0.589374 256.357 1.78451 237.473 5.01137C236.876 5.01137 236.398 5.2504 235.8 5.2504C216.558 8.71629 197.795 14.3334 179.868 21.7433C179.39 21.9823 178.912 22.2213 178.314 22.3408C160.507 29.8702 143.536 39.3118 127.64 50.4265C127.162 50.785 126.684 51.0241 126.326 51.3826C110.55 62.6169 95.8498 75.4048 82.5838 89.7465C82.2253 90.105 81.8668 90.5831 81.5082 90.9416C68.2422 105.283 56.5299 121.059 46.3712 138.03C46.1322 138.508 45.7737 138.986 45.5346 139.464C35.4955 156.435 27.2491 174.721 20.9149 193.843C20.7954 194.44 20.5563 194.918 20.4368 195.516C15.5368 210.814 11.8318 226.709 9.56108 243.082C8.96351 247.265 8.48546 251.448 8.12692 255.631C8.12692 256.229 8.12692 256.826 8.00741 257.424C6.2147 277.861 6.81227 297.939 9.44157 317.3C9.44157 317.898 9.56108 318.376 9.68059 318.973C12.4294 338.335 17.3295 356.979 24.1417 374.786C24.3808 375.264 24.5003 375.742 24.7393 376.34C31.6711 394.028 40.3956 410.76 50.7932 426.296C51.0323 426.775 51.3908 427.133 51.6298 427.611C62.147 443.028 74.3374 457.37 87.962 470.038C88.3205 470.397 88.7985 470.756 89.1571 471.114C90.9498 472.787 92.862 474.46 94.7742 476.134C92.9815 474.58 91.1888 473.026 89.3961 471.353C89.0376 470.995 88.679 470.636 88.201 470.277C74.5764 457.609 62.3861 443.387 51.8689 427.85C51.5103 427.372 51.2713 427.014 50.9128 426.536C40.5151 410.999 31.7906 394.267 24.8588 376.579C24.6198 376.101 24.5003 375.623 24.2612 375.025C17.449 357.337 12.6684 338.574 9.91962 319.212C9.91962 318.615 9.80011 318.137 9.68059 317.539C7.0513 298.178 6.45373 278.1 8.24643 257.663C8.24643 257.065 8.24643 256.468 8.36595 255.87C8.72449 251.687 9.20254 247.504 9.80011 243.321C12.0709 226.948 15.7758 211.053 20.6758 195.755C20.7954 195.157 21.0344 194.679 21.1539 194.082C27.4881 174.96 35.7345 156.674 45.7737 139.703C46.0127 139.225 46.3712 138.747 46.6103 138.269C56.6494 121.298 68.4812 105.522 81.6277 91.1806C81.9863 90.8221 82.3448 90.344 82.7034 89.9855C95.9694 75.6439 110.67 62.8559 126.445 51.6216C126.923 51.2631 127.401 51.0241 127.76 50.6655C143.655 39.5508 160.626 30.1092 178.434 22.4603C178.912 22.2213 179.39 21.9823 179.987 21.8628C197.795 14.3334 216.558 8.83581 235.8 5.2504C236.278 5.2504 236.876 5.01137 237.473 5.01137C256.237 1.78451 275.479 0.469861 295.079 1.42597C295.318 1.54548 295.676 1.78451 296.035 2.02354C277.988 2.02354 260.181 4.05527 242.851 8.11873C242.373 8.11873 241.895 8.35775 241.298 8.47727C223.49 12.7798 206.161 19.2335 189.668 27.4799C189.19 27.7189 188.712 27.958 188.234 28.197C171.741 36.5629 155.965 46.7216 141.145 58.4339C140.667 58.7925 140.309 59.151 139.831 59.39C125.131 71.2219 111.506 84.7269 99.0767 99.427C98.7182 99.9051 98.3596 100.264 98.0011 100.742C85.6912 115.561 74.6959 131.815 65.1349 149.145C64.8958 149.623 64.6568 150.101 64.2983 150.579C54.8567 167.908 47.0883 186.433 40.9931 205.794C40.8736 206.392 40.6346 206.87 40.5151 207.467C35.8541 222.885 32.2687 238.899 29.9979 255.273C29.4003 259.456 28.9223 263.639 28.5637 267.822C28.5637 268.419 28.5637 269.017 28.4442 269.614C26.6515 290.051 26.8905 309.89 29.1613 329.013C29.1613 329.61 29.2808 330.088 29.4003 330.686C31.7906 349.808 36.0931 368.093 42.0688 385.542C42.1883 386.02 42.4273 386.499 42.5468 386.977C48.642 404.306 56.5299 420.56 65.9715 435.499C66.2105 435.977 66.4495 436.336 66.8081 436.814C76.3691 451.753 87.3644 465.258 99.7938 477.329C100.152 477.687 100.511 478.046 100.869 478.404C113.418 490.356 127.282 500.753 142.221 509.239C142.699 509.478 143.058 509.717 143.536 509.956C147.241 511.988 150.946 513.9 154.77 515.812L155.965 516.41C151.782 514.497 147.838 512.346 143.775 510.195C143.297 509.956 142.938 509.717 142.46 509.478C127.521 500.992 113.657 490.595 101.228 478.643C100.869 478.285 100.511 477.926 100.152 477.687C87.7229 465.736 76.7277 452.111 67.2861 437.292C67.0471 436.814 66.8081 436.455 66.4495 435.977C57.0079 421.038 49.2396 404.784 43.0249 387.574C42.9054 387.096 42.6663 386.618 42.5468 386.14C36.5711 368.811 32.2687 350.525 29.8784 331.403C29.8784 330.805 29.7589 330.327 29.6394 329.73C27.3686 310.607 27.1296 290.649 28.9223 270.331C28.9223 269.734 28.9223 269.136 29.0418 268.539C29.4003 264.356 29.8784 260.173 30.4759 255.99C32.7467 239.616 36.3321 223.602 40.9931 208.184C41.1127 207.587 41.3517 207.109 41.4712 206.511C47.4469 187.15 55.3348 168.625 64.6568 151.296C64.8958 150.818 65.1349 150.34 65.4934 149.862C74.935 132.532 85.9302 116.278 98.2401 101.459C98.5987 100.981 98.9572 100.622 99.3157 100.144C111.626 85.3245 125.37 71.8194 139.95 59.9876C140.428 59.629 140.787 59.2705 141.265 59.0315C155.965 47.1996 171.741 37.041 188.234 28.6751C188.712 28.436 189.19 28.197 189.668 27.958C206.161 19.7115 223.49 13.2578 241.178 8.95532C241.656 8.95532 242.134 8.71629 242.732 8.59678C260.061 4.53332 277.749 2.38208 295.796 2.38208C295.915 2.38208 296.035 2.38208 296.274 2.6211C296.633 2.74062 296.991 2.86013 297.469 3.09916C282.052 4.05527 266.635 7.0431 251.695 12.0627C251.217 12.1822 250.859 12.3017 250.381 12.5407C234.964 17.7993 220.024 25.0896 205.683 34.1727C205.324 34.4117 204.846 34.6507 204.488 35.0093C190.146 44.2118 176.402 55.0875 163.494 67.6365C163.136 67.995 162.777 68.3535 162.419 68.7121C149.511 81.261 137.56 95.3636 126.684 110.661C126.326 111.139 126.087 111.498 125.728 111.976C114.852 127.393 105.052 144.125 96.5669 161.813C96.3279 162.291 96.0889 162.769 95.8498 163.367C87.4839 181.174 80.3131 199.938 74.8155 219.419C74.696 220.016 74.4569 220.494 74.3374 221.092C70.0349 236.629 66.569 252.763 64.4178 269.136C63.8202 273.319 63.3422 277.502 62.8641 281.685C62.8641 282.283 62.8641 282.88 62.7446 283.478C60.7129 303.795 60.5934 323.515 62.147 342.398C62.147 342.876 62.147 343.474 62.2665 343.952C63.9397 362.835 67.2861 380.762 72.0667 397.613C72.1862 398.091 72.3057 398.569 72.5447 399.047C77.4448 415.899 83.8985 431.555 91.7864 445.897C92.0254 446.255 92.2644 446.733 92.5035 447.092C100.391 461.314 109.594 474.221 120.111 485.456C120.35 485.814 120.709 486.053 120.948 486.412C131.465 497.527 143.177 507.088 155.846 514.737C156.204 514.976 156.563 515.215 156.921 515.334C165.287 520.234 174.012 524.298 183.095 527.644C174.131 524.417 165.526 520.354 157.28 515.573C156.921 515.334 156.563 515.095 156.204 514.976C143.536 507.327 131.943 497.766 121.426 486.651C121.187 486.292 120.828 486.053 120.589 485.695C110.191 474.46 100.989 461.553 93.2205 447.331C92.9815 446.972 92.7425 446.494 92.5035 446.136C84.7351 431.794 78.2814 416.138 73.3813 399.286C73.2618 398.808 73.1423 398.33 72.9032 397.852C68.1227 381.001 64.7763 363.074 63.2226 344.191C63.2226 343.713 63.2227 343.115 63.1031 342.637C61.5495 323.754 61.669 304.034 63.7007 283.717C63.7007 283.119 63.7007 282.522 63.8202 281.924C64.2983 277.741 64.7763 273.558 65.3739 269.375C67.6447 253.002 70.991 236.987 75.2935 221.331C75.413 220.733 75.6521 220.255 75.7716 219.658C81.2692 200.177 88.3205 181.413 96.6864 163.606C96.9255 163.128 97.1645 162.65 97.4035 162.052C105.889 144.364 115.57 127.632 126.445 112.215C126.804 111.737 127.043 111.378 127.401 110.9C138.277 95.4831 150.228 81.3805 163.016 68.8316C163.375 68.4731 163.734 68.1145 164.092 67.756C176.88 55.3266 190.624 44.3313 204.846 35.1288C205.205 34.8898 205.683 34.6507 206.041 34.2922C220.383 25.2092 235.322 17.9188 250.5 12.6602C250.978 12.5407 251.337 12.3017 251.815 12.1822C266.754 7.16262 281.932 4.05527 297.35 3.09916C297.947 3.33818 298.664 3.4577 299.381 3.69673C287.191 5.48943 275.001 9.55289 263.049 15.409C262.691 15.5286 262.332 15.7676 261.974 15.8871C249.664 21.9823 237.712 30.2287 226.12 40.0288C225.761 40.2679 225.402 40.6264 225.163 40.8654C213.571 50.7851 202.456 62.4974 191.939 75.7634C191.58 76.1219 191.341 76.4805 190.983 76.839C180.465 90.105 170.665 104.805 161.582 120.7C161.343 121.179 161.104 121.657 160.865 122.015C151.902 137.91 143.655 155.12 136.484 173.167C136.245 173.645 136.126 174.243 135.887 174.721C128.716 192.887 122.621 211.889 117.721 231.609C117.601 232.207 117.482 232.685 117.243 233.282C113.418 248.938 110.191 265.073 108.04 281.446C107.443 285.629 106.965 289.812 106.487 293.995C106.487 294.593 106.367 295.19 106.248 295.668C104.096 315.986 103.379 335.586 104.096 354.23C104.096 354.708 104.096 355.306 104.096 355.784C104.813 374.308 106.965 391.996 110.191 408.489C110.191 408.967 110.43 409.445 110.43 409.923C113.777 426.296 118.438 441.475 124.175 455.219C124.294 455.577 124.533 456.055 124.653 456.414C130.389 470.038 137.321 482.229 145.209 492.746C145.448 493.105 145.687 493.344 145.926 493.702C153.814 504.1 162.777 512.824 172.578 519.637C172.817 519.876 173.175 519.995 173.414 520.234C182.497 526.329 192.178 530.871 202.575 533.62H202.934C192.536 530.99 182.856 526.568 173.892 520.354C173.653 520.115 173.295 519.995 173.056 519.756C163.375 512.944 154.531 504.219 146.643 493.822C146.404 493.583 146.165 493.224 145.926 492.985C138.158 482.468 131.345 470.277 125.609 456.653C125.489 456.294 125.25 455.816 125.131 455.458C119.514 441.714 114.852 426.536 111.626 410.162C111.626 409.684 111.387 409.206 111.387 408.728C108.16 392.355 106.008 374.667 105.291 356.142C105.291 355.664 105.291 355.066 105.291 354.588C104.694 335.944 105.291 316.344 107.562 296.146C107.562 295.549 107.682 294.951 107.801 294.473C108.279 290.29 108.757 286.107 109.355 281.924C111.626 265.551 114.733 249.417 118.557 233.76C118.677 233.163 118.796 232.685 119.035 232.087C123.936 212.367 130.031 193.365 137.202 175.199C137.441 174.721 137.56 174.123 137.799 173.645C144.97 155.598 153.097 138.388 162.06 122.374C162.299 121.896 162.538 121.418 162.777 121.059C171.741 105.164 181.541 90.4635 191.939 77.1975C192.178 76.839 192.536 76.4805 192.775 76.1219C203.173 62.9754 214.288 51.2631 225.761 41.224C226.12 40.9849 226.359 40.6264 226.717 40.3874C238.19 30.4678 250.142 22.3408 262.332 16.1261C262.691 15.8871 263.049 15.7676 263.408 15.6481C275.24 9.79191 287.31 5.72846 299.381 3.81624C300.098 4.05527 300.935 4.17478 301.772 4.41381C293.406 7.16262 284.92 11.9432 276.554 18.6359C276.315 18.8749 276.076 18.9945 275.837 19.2335C267.232 26.1653 258.747 35.1288 250.381 45.7655C250.142 46.124 249.903 46.3631 249.664 46.7216C241.298 57.4778 233.29 69.9072 225.522 83.6513C225.283 84.0098 225.044 84.4879 224.805 84.8464C217.037 98.71 209.746 114.008 202.814 130.381C202.575 130.859 202.456 131.337 202.217 131.815C195.405 148.308 189.07 165.877 183.334 184.282C183.214 184.76 182.975 185.357 182.856 185.835C177.239 204.24 172.219 223.602 167.916 243.441C167.797 244.038 167.677 244.636 167.558 245.114C164.212 260.89 161.343 277.144 159.072 293.517C158.475 297.7 157.997 301.883 157.399 306.066C157.399 306.664 157.28 307.261 157.16 307.739C154.77 327.937 153.455 347.418 153.097 365.823C153.097 366.301 153.097 366.898 153.097 367.376C152.738 385.662 153.455 402.991 155.009 419.006C155.009 419.484 155.009 419.962 155.129 420.321C156.682 436.216 159.192 450.916 162.538 464.063C162.538 464.421 162.777 464.78 162.777 465.138C166.124 478.165 170.307 489.758 175.207 499.678C175.326 499.917 175.446 500.275 175.685 500.514C180.585 510.195 186.322 518.202 192.656 524.298C192.775 524.417 193.014 524.656 193.134 524.776C199.588 530.632 206.639 534.576 214.288 536.368C214.407 536.368 214.646 536.368 214.766 536.368H215.124C215.124 536.368 214.766 536.368 214.527 536.368C206.997 534.695 199.946 530.751 193.612 524.895C193.492 524.776 193.253 524.537 193.014 524.417C186.8 518.441 181.182 510.434 176.282 500.753C176.163 500.514 176.043 500.156 175.924 499.917C171.143 490.117 167.08 478.524 163.734 465.497C163.734 465.138 163.494 464.78 163.494 464.421C160.268 451.275 157.877 436.575 156.324 420.679C156.324 420.201 156.324 419.723 156.204 419.365C154.77 403.35 154.172 386.02 154.531 367.735C154.531 367.257 154.531 366.659 154.531 366.181C154.89 347.776 156.324 328.415 158.594 308.098C158.594 307.5 158.714 306.903 158.833 306.424C159.312 302.241 159.909 298.059 160.387 293.876C162.658 277.502 165.526 261.248 168.753 245.473C168.753 244.875 168.992 244.397 169.112 243.799C173.295 223.96 178.314 204.599 183.931 186.194C184.051 185.716 184.29 185.118 184.409 184.64C190.026 166.235 196.361 148.667 203.173 132.174C203.412 131.696 203.532 131.218 203.771 130.74C210.583 114.366 217.873 99.0685 225.522 85.0854C225.761 84.7269 226 84.2488 226.12 83.8903C233.768 70.0267 241.776 57.5973 250.022 46.8411C250.261 46.4826 250.5 46.2435 250.739 45.885C258.986 35.2483 267.352 26.2848 275.957 19.2335C276.196 18.9945 276.435 18.8749 276.674 18.6359C284.92 11.9432 293.286 7.0431 301.533 4.29429C302.369 4.41381 303.325 4.65283 304.162 4.77235C299.979 8.23824 295.557 13.8554 291.135 21.3847C291.015 21.6238 290.896 21.8628 290.776 21.9823C286.115 29.7507 281.454 39.4313 276.674 50.6655C276.554 51.0241 276.435 51.2631 276.315 51.6216C271.535 62.9754 266.754 76.0024 262.093 90.4635C261.974 90.8221 261.854 91.3001 261.735 91.6587C257.074 106.12 252.413 121.896 247.991 138.747C247.991 139.225 247.752 139.703 247.632 140.181C243.21 157.033 238.908 175.079 234.844 193.843C234.844 194.321 234.605 194.918 234.486 195.396C230.422 214.16 226.598 233.641 223.251 253.719C223.251 254.317 223.012 254.914 223.012 255.392C220.263 271.288 217.754 287.541 215.483 303.915C214.885 308.098 214.288 312.281 213.81 316.464C213.81 317.061 213.69 317.659 213.571 318.137C210.941 338.335 208.91 357.576 207.475 375.862C207.475 376.34 207.475 376.937 207.356 377.415C205.922 395.582 204.966 412.552 204.488 428.209C204.488 428.687 204.488 429.165 204.488 429.523C204.129 445.06 204.249 459.282 204.846 471.951C204.846 472.309 204.846 472.668 204.846 473.026C205.444 485.575 206.639 496.57 208.312 505.773C208.312 506.012 208.312 506.251 208.432 506.61C210.105 515.693 212.256 522.983 214.885 528.361C214.885 528.481 215.005 528.72 215.124 528.839C217.754 533.978 220.861 537.205 224.446 538.161C224.446 538.161 224.685 538.161 224.805 538.161C224.924 538.161 225.163 538.161 225.283 538.161H225.522C225.522 538.161 225.283 538.161 225.044 538.161H224.805C221.339 537.205 218.351 534.098 215.841 528.959C215.841 528.839 215.722 528.6 215.602 528.481C213.093 523.222 211.061 515.932 209.507 506.729C209.507 506.49 209.507 506.251 209.388 505.893C207.834 496.69 206.758 485.695 206.161 473.146C206.161 472.787 206.161 472.429 206.161 472.07C205.563 459.402 205.563 445.18 206.041 429.643C206.041 429.165 206.041 428.806 206.041 428.328C206.519 412.672 207.475 395.701 209.029 377.535C209.029 377.057 209.029 376.459 209.149 375.981C210.702 357.815 212.734 338.574 215.363 318.256C215.363 317.659 215.483 317.061 215.602 316.583C216.08 312.4 216.678 308.337 217.276 304.034C219.546 287.661 222.056 271.407 224.805 255.512C224.805 254.914 225.044 254.317 225.163 253.839C228.629 233.88 232.334 214.28 236.278 195.516C236.278 194.918 236.517 194.44 236.637 193.843C240.581 175.079 244.883 157.152 249.305 140.181C249.425 139.703 249.544 139.225 249.664 138.747C254.086 121.896 258.627 106.12 263.169 91.5392C263.288 91.0611 263.408 90.7026 263.527 90.344C268.188 76.0024 272.849 62.8559 277.391 51.5021C277.51 51.1436 277.63 50.9046 277.749 50.546C282.41 39.1922 286.952 29.5116 291.493 21.7433C291.613 21.5042 291.732 21.2652 291.852 21.0262C296.274 13.6163 300.457 7.99921 304.64 4.41381C305.596 4.53332 306.552 4.77235 307.389 4.89186C307.508 9.07483 307.389 15.2895 307.03 23.4165C307.03 23.6555 307.03 23.8945 307.03 24.1335C306.552 32.4995 305.835 42.7776 304.879 54.729C304.879 55.0875 304.879 55.4461 304.879 55.8046C303.923 67.756 302.608 81.3805 301.055 96.2002C301.055 96.6782 301.055 97.0368 300.935 97.5148C299.381 112.454 297.708 128.708 295.676 145.918C295.676 146.396 295.676 146.874 295.557 147.352C293.645 164.681 291.493 182.967 289.103 201.97C289.103 202.567 288.984 203.045 288.864 203.643C286.474 222.646 283.964 242.365 281.335 262.563C281.335 263.161 281.215 263.758 281.096 264.356C278.945 280.371 276.793 296.624 274.523 313.117C273.925 317.3 273.327 321.483 272.73 325.666C272.73 326.264 272.61 326.861 272.491 327.339C269.622 347.537 266.874 366.659 264.125 384.706C264.125 385.184 264.005 385.662 263.886 386.259C261.257 404.187 258.627 420.918 256.117 436.336C256.117 436.814 255.998 437.172 255.878 437.65C253.369 452.948 251.098 466.812 248.947 479.002C248.947 479.361 248.947 479.719 248.708 480.078C246.556 492.268 244.525 502.785 242.732 511.39C242.732 511.629 242.732 511.868 242.612 512.107C240.82 520.712 239.266 527.405 237.951 532.185C237.951 532.305 237.951 532.425 237.951 532.544C236.637 537.086 235.561 539.715 234.725 539.954H234.964C234.964 539.954 234.964 539.954 235.083 539.954C236.039 539.715 237.234 537.205 238.668 532.544C238.668 532.425 238.668 532.305 238.668 532.185C240.103 527.524 241.776 520.712 243.688 512.227C243.688 511.988 243.688 511.749 243.808 511.51C245.72 502.785 247.752 492.268 250.022 480.197C250.022 479.839 250.142 479.48 250.261 479.121C252.532 466.931 254.922 453.068 257.432 437.77C257.432 437.292 257.552 436.933 257.671 436.455C260.181 421.157 262.81 404.426 265.559 386.499C265.559 386.02 265.679 385.542 265.798 384.945C268.547 366.898 271.296 347.776 274.164 327.578C274.164 326.981 274.284 326.383 274.403 325.905C275.001 321.842 275.598 317.659 276.196 313.356C278.466 296.983 280.618 280.61 282.769 264.595C282.769 263.997 282.888 263.4 283.008 262.802C285.637 242.724 288.147 223.004 290.418 203.882C290.418 203.284 290.537 202.806 290.657 202.209C292.928 183.206 295.079 164.92 296.872 147.591C296.872 147.113 296.872 146.635 296.991 146.157C298.903 128.947 300.576 112.693 302.011 97.7539C302.011 97.2758 302.011 96.9173 302.011 96.4392C303.445 81.5 304.64 67.995 305.477 56.0436C305.477 55.6851 305.477 55.3266 305.477 54.968C306.313 43.0167 307.03 32.7385 307.269 24.3726C307.269 24.1335 307.269 23.8945 307.269 23.6555C307.508 15.5286 307.628 9.31386 307.269 5.13089C308.225 5.2504 309.181 5.36991 310.138 5.48943C314.799 10.1505 318.982 16.9627 322.686 25.4482C322.686 25.6872 322.926 25.9262 323.045 26.1653C326.869 35.0093 330.096 45.7655 332.965 58.0754C332.965 58.4339 333.084 58.7925 333.204 59.151C335.952 71.5804 338.223 85.5635 339.896 100.742C339.896 101.22 339.896 101.578 340.016 102.056C341.689 117.354 342.884 133.966 343.482 151.415C343.482 151.893 343.482 152.372 343.482 152.969C344.079 170.538 344.079 189.062 343.482 208.304C343.482 208.901 343.482 209.379 343.482 209.977C342.884 229.219 341.689 249.058 339.896 269.256C339.896 269.853 339.896 270.451 339.777 271.048C338.343 287.183 336.431 303.437 334.16 319.93C333.562 324.112 332.965 328.295 332.367 332.478C332.367 333.076 332.248 333.674 332.128 334.152C329.021 354.23 325.555 373.352 321.611 391.279C321.611 391.757 321.372 392.235 321.252 392.833C317.308 410.64 313.006 427.133 308.464 442.311C308.345 442.789 308.225 443.148 308.106 443.626C303.564 458.685 298.664 472.19 293.645 484.141C293.525 484.5 293.406 484.858 293.167 485.097C288.147 496.929 283.008 507.088 277.749 515.334C277.63 515.573 277.391 515.812 277.271 516.051C272.013 524.298 266.635 530.512 261.376 534.815C261.257 534.934 261.137 535.054 260.898 535.173C255.639 539.356 250.261 541.388 245.122 541.149C245.003 541.149 244.764 541.149 244.644 541.149C244.525 541.149 244.286 541.149 244.166 541.149H244.405C244.405 541.149 244.764 541.149 244.883 541.149C245.003 541.149 245.242 541.149 245.361 541.149C250.62 541.388 255.998 539.356 261.496 535.173C261.615 535.173 261.854 534.934 261.974 534.815C267.352 530.632 272.849 524.298 278.227 516.051C278.347 515.812 278.586 515.573 278.706 515.334C284.084 507.088 289.342 496.929 294.481 485.097C294.601 484.739 294.72 484.38 294.959 484.141C300.098 472.19 304.879 458.685 309.54 443.626C309.66 443.148 309.779 442.789 309.899 442.311C314.56 427.253 318.862 410.64 322.806 392.833C322.806 392.355 323.045 391.877 323.165 391.279C327.108 373.472 330.694 354.349 333.682 334.152C333.682 333.554 333.801 332.956 333.921 332.478C334.518 328.415 335.116 324.232 335.713 319.93C337.984 303.556 339.777 287.183 341.331 271.048C341.331 270.451 341.331 269.853 341.45 269.256C343.243 249.058 344.438 229.099 345.036 209.977C345.036 209.379 345.036 208.901 345.036 208.304C345.514 189.062 345.514 170.538 344.916 152.969C344.916 152.491 344.916 152.013 344.916 151.415C344.199 133.847 343.004 117.354 341.211 101.937C341.211 101.459 341.211 101.1 341.092 100.622C339.299 85.3245 336.909 71.3414 334.04 58.912C334.04 58.5534 333.921 58.1949 333.801 57.8364C330.933 45.5265 327.467 34.7702 323.523 25.9262C323.523 25.6872 323.284 25.4482 323.165 25.2092C319.34 16.6042 315.038 9.91143 310.257 5.13089C311.213 5.13089 312.169 5.2504 313.006 5.36991C321.969 10.3895 330.216 17.4408 337.984 26.2848C338.223 26.5238 338.462 26.7628 338.701 27.1214C346.589 36.3239 353.76 47.3192 360.333 59.9876C360.453 60.3461 360.692 60.7047 360.931 61.0632C367.385 73.7316 373.002 87.9538 377.902 103.491C378.021 103.969 378.141 104.327 378.26 104.805C383.041 120.342 386.985 137.193 390.092 154.881C390.092 155.359 390.212 155.957 390.331 156.435C393.319 174.243 395.47 192.887 396.546 212.248C396.546 212.845 396.546 213.323 396.546 213.921C397.621 233.282 397.621 253.241 396.546 273.558C396.546 274.156 396.546 274.753 396.546 275.351C395.709 291.485 394.156 307.859 391.885 324.232C391.287 328.415 390.69 332.598 389.973 336.781C389.973 337.378 389.734 337.976 389.734 338.454C386.387 358.532 382.204 377.655 377.065 395.343C376.946 395.821 376.826 396.299 376.587 396.896C371.448 414.584 365.592 430.958 359.019 446.016C358.78 446.494 358.66 446.853 358.421 447.331C351.848 462.151 344.557 475.536 336.789 487.248C336.55 487.607 336.311 487.846 336.072 488.204C328.304 499.797 320.057 509.717 311.452 517.724C311.213 517.963 310.974 518.202 310.735 518.441C302.13 526.329 293.167 532.425 283.964 536.368C283.725 536.368 283.486 536.608 283.128 536.727C274.044 540.551 264.842 542.225 255.52 541.747H255.878C265.32 542.225 274.642 540.551 283.725 536.727C283.964 536.727 284.203 536.488 284.562 536.368C293.884 532.425 302.967 526.449 311.691 518.441C311.93 518.202 312.169 517.963 312.408 517.724C321.133 509.717 329.499 499.797 337.267 488.204C337.506 487.846 337.745 487.487 337.984 487.248C345.753 475.536 353.162 462.151 359.736 447.331C359.975 446.853 360.094 446.494 360.333 446.016C366.906 431.077 372.882 414.704 378.021 397.016C378.141 396.538 378.26 396.06 378.499 395.462C383.638 377.655 387.821 358.652 391.168 338.574C391.168 337.976 391.407 337.378 391.407 336.9C392.124 332.837 392.721 328.654 393.319 324.351C395.59 307.978 397.143 291.605 397.98 275.47C397.98 274.873 397.98 274.275 397.98 273.678C398.936 253.36 398.936 233.402 397.861 214.041C397.861 213.443 397.861 212.965 397.861 212.367C396.665 193.006 394.514 174.362 391.526 156.555C391.526 156.076 391.407 155.598 391.287 155.001C388.18 137.313 384.116 120.461 379.216 104.925C379.097 104.447 378.977 104.088 378.738 103.61C373.838 88.0733 367.982 73.8512 361.528 61.1827C361.289 60.8242 361.17 60.4656 360.931 60.1071C354.358 47.4387 347.067 36.4434 339.06 27.2409C338.821 27.0019 338.582 26.7628 338.343 26.4043C330.574 17.5603 322.089 10.509 313.006 5.48943C313.245 5.48943 313.484 5.48943 313.723 5.48943C314.321 5.48943 314.918 5.48943 315.516 5.48943C328.304 10.6285 340.494 17.7993 351.848 26.7628C352.206 27.0019 352.565 27.2409 352.804 27.5994C364.397 36.9215 375.153 48.0362 384.953 60.7047C385.192 61.0632 385.551 61.4218 385.79 61.7803C395.59 74.5682 404.314 88.9099 411.963 104.447C412.202 104.925 412.441 105.283 412.561 105.761C420.21 121.418 426.663 138.269 432.041 156.076C432.161 156.555 432.4 157.033 432.519 157.63C437.778 175.438 441.722 194.201 444.351 213.562C444.351 214.16 444.471 214.638 444.59 215.236C447.1 234.597 448.295 254.675 448.056 274.992C448.056 275.59 448.056 276.188 448.056 276.785C447.698 292.919 446.502 309.293 444.232 325.666C443.634 329.849 443.037 334.032 442.319 338.096C442.319 338.693 442.081 339.291 442.081 339.769C438.615 359.847 433.595 378.85 427.5 396.657C427.38 397.135 427.141 397.613 427.022 398.211C420.807 415.899 413.397 432.272 405.031 447.092C404.792 447.57 404.553 447.928 404.314 448.407C395.829 463.226 386.387 476.492 376.229 488.204C375.99 488.563 375.631 488.922 375.392 489.161C365.114 500.634 353.999 510.554 342.406 518.441C342.048 518.68 341.689 518.919 341.45 519.158C329.738 527.046 317.428 532.903 304.759 536.727C304.401 536.727 304.042 536.966 303.684 537.086C294.123 539.834 284.442 541.508 274.523 541.866H275.12C284.92 541.508 294.601 539.834 304.162 537.086C304.52 537.086 304.879 536.847 305.238 536.727C318.025 532.903 330.335 526.927 342.167 519.158C342.526 518.919 342.884 518.68 343.123 518.441C354.836 510.554 365.95 500.634 376.348 489.161C376.587 488.802 376.946 488.563 377.185 488.204C387.463 476.612 397.024 463.226 405.509 448.407C405.748 447.928 405.987 447.57 406.226 447.092C414.592 432.153 422.122 415.779 428.336 398.211C428.456 397.733 428.695 397.255 428.815 396.657C434.91 378.969 439.929 359.847 443.395 339.769C443.395 339.171 443.634 338.574 443.634 338.096C444.351 334.032 444.949 329.849 445.546 325.666C447.817 309.293 449.012 292.919 449.371 276.785C449.371 276.188 449.371 275.59 449.371 274.992C449.61 254.675 448.415 234.716 445.905 215.236C445.905 214.638 445.785 214.16 445.666 213.562C443.037 194.201 438.973 175.438 433.715 157.63C433.595 157.152 433.356 156.674 433.237 156.076C427.858 138.269 421.285 121.418 413.636 105.761C413.397 105.283 413.158 104.925 412.919 104.447C405.151 88.9099 396.307 74.5682 386.507 61.7803C386.268 61.4218 385.909 61.0632 385.67 60.7047C375.751 48.0362 364.875 36.802 353.282 27.5994C352.923 27.3604 352.565 27.1214 352.326 26.7628C340.853 17.7993 328.662 10.6285 315.755 5.48943C316.472 5.48943 317.189 5.48943 317.667 5.48943C333.562 10.509 348.74 17.6798 362.963 26.5238C363.441 26.7628 363.799 27.0019 364.158 27.3604C378.738 36.5629 392.243 47.6777 404.792 60.2266C405.151 60.5852 405.509 60.9437 405.868 61.3022C418.297 73.9707 429.532 88.1928 439.451 103.73C439.69 104.208 440.049 104.566 440.288 105.044C450.207 120.581 458.693 137.432 465.744 155.12C465.983 155.598 466.103 156.076 466.342 156.674C473.274 174.482 478.771 193.126 482.715 212.487C482.715 213.084 482.954 213.562 483.074 214.16C486.779 233.521 488.93 253.48 489.169 273.797C489.169 274.395 489.169 274.992 489.169 275.59C489.288 291.724 488.332 308.098 486.061 324.471C485.464 328.654 484.866 332.837 484.149 336.9C484.149 337.498 483.91 338.096 483.791 338.574C480.086 358.652 474.708 377.774 467.776 395.462C467.537 395.94 467.417 396.418 467.178 397.016C460.127 414.704 451.522 431.077 441.722 446.016C441.483 446.494 441.124 446.853 440.885 447.331C430.966 462.151 419.851 475.536 407.541 487.248C407.183 487.607 406.824 487.965 406.465 488.204C394.156 499.797 380.89 509.717 366.787 517.724C366.428 517.963 365.95 518.202 365.592 518.441C351.489 526.329 336.55 532.425 321.133 536.368C320.655 536.368 320.296 536.608 319.818 536.727C312.767 538.52 305.596 539.715 298.306 540.671H299.023C306.194 539.715 313.245 538.4 320.177 536.727C320.655 536.727 321.013 536.488 321.491 536.368C337.028 532.425 351.967 526.329 366.189 518.441C366.548 518.202 367.026 517.963 367.385 517.724C381.487 509.717 394.873 499.797 407.183 488.204C407.541 487.846 407.9 487.487 408.258 487.248C420.568 475.536 431.683 462.151 441.722 447.331C441.961 446.853 442.32 446.494 442.559 446.016C452.478 431.077 460.964 414.704 468.015 396.896C468.254 396.418 468.373 395.94 468.612 395.343C475.544 377.535 481.042 358.532 484.747 338.454C484.747 337.857 484.986 337.259 485.105 336.781C485.822 332.717 486.54 328.534 487.018 324.351C489.288 307.978 490.364 291.605 490.125 275.47C490.125 274.873 490.125 274.275 490.125 273.678C489.886 253.36 487.735 233.402 483.91 214.041C483.91 213.443 483.671 212.965 483.552 212.367C479.727 193.006 474.11 174.362 467.059 156.555C466.82 156.076 466.7 155.598 466.461 155.001C459.41 137.313 450.805 120.461 440.885 104.925C440.646 104.447 440.288 104.088 440.049 103.61C430.129 88.0733 418.775 73.8512 406.346 61.1827C405.987 60.8242 405.629 60.4656 405.27 60.1071C392.721 47.5582 379.097 36.4434 364.516 27.2409C364.038 27.0019 363.68 26.7628 363.321 26.4043C348.979 17.5603 333.801 10.509 317.906 5.48943C318.504 5.48943 318.982 5.48943 319.34 5.2504C337.506 10.0309 354.716 16.7237 371.089 25.3287C371.568 25.5677 372.046 25.8067 372.524 26.0458C389.256 35.0093 404.792 45.7655 419.134 58.0754C419.492 58.4339 419.97 58.7925 420.329 59.151C434.671 71.5804 447.578 85.5635 459.171 100.861C459.529 101.339 459.769 101.698 460.127 102.176C471.6 117.474 481.639 134.086 490.005 151.654C490.244 152.133 490.483 152.611 490.723 153.089C498.969 170.657 505.542 189.301 510.323 208.423C510.442 209.021 510.562 209.499 510.681 210.097C515.342 229.338 518.091 249.177 518.689 269.495C518.689 270.092 518.689 270.69 518.689 271.288C519.167 287.422 518.33 303.676 516.059 320.169C515.462 324.352 514.864 328.534 514.028 332.717C514.028 333.315 513.789 333.913 513.669 334.391C509.845 354.469 504.108 373.591 496.459 391.518C496.22 391.996 495.981 392.474 495.862 393.072C488.213 410.879 478.771 427.372 467.895 442.431C467.537 442.909 467.298 443.267 466.939 443.746C455.944 458.685 443.515 472.309 429.89 484.141C429.532 484.5 429.054 484.858 428.695 485.097C414.951 496.929 400.131 506.968 384.236 515.334C383.758 515.573 383.28 515.812 382.921 516.051C369.058 523.102 354.597 528.839 339.538 533.022C354.716 528.839 369.416 523.222 383.28 516.051C383.758 515.812 384.236 515.573 384.595 515.334C400.49 507.088 415.429 496.929 429.173 485.097C429.532 484.739 430.01 484.38 430.368 484.141C443.993 472.19 456.542 458.685 467.417 443.626C467.776 443.148 468.015 442.789 468.373 442.311C479.249 427.253 488.691 410.64 496.34 392.952C496.579 392.474 496.818 391.996 496.937 391.399C504.467 373.591 510.323 354.469 514.147 334.271C514.147 333.674 514.386 333.076 514.506 332.598C515.223 328.534 515.94 324.352 516.537 320.049C518.808 303.676 519.645 287.302 519.167 271.168C519.167 270.57 519.167 269.973 519.167 269.375C518.45 249.178 515.701 229.219 511.04 209.977C510.92 209.379 510.801 208.901 510.681 208.304C505.901 189.062 499.327 170.538 491.081 152.969C490.842 152.491 490.603 152.013 490.364 151.415C481.998 133.847 471.959 117.235 460.486 101.937C460.127 101.459 459.888 101.1 459.529 100.622C447.937 85.3245 434.91 71.3414 420.568 58.912C420.21 58.5534 419.731 58.1949 419.373 57.8364C404.912 45.5265 389.256 34.7702 372.524 25.8067C372.046 25.5677 371.568 25.3287 371.089 25.0896C354.716 16.4847 337.387 9.79192 319.221 5.01137C319.579 5.01137 319.818 4.77235 320.057 4.65283C339.538 8.95532 358.062 15.17 375.631 23.2969C376.109 23.536 376.707 23.775 377.185 24.014C395.112 32.4995 411.963 42.7776 427.38 54.729C427.858 55.0875 428.217 55.4461 428.695 55.8046C444.112 67.8755 458.215 81.3805 470.764 96.3197C471.122 96.7978 471.481 97.1563 471.839 97.6343C484.269 112.574 495.144 128.947 504.228 146.157C504.467 146.635 504.706 147.113 504.945 147.591C513.908 164.92 521.198 183.206 526.457 202.209L526.935 203.882C532.074 222.885 535.182 242.724 536.138 262.802C536.138 263.4 536.138 263.997 536.138 264.595C536.735 280.61 536.138 296.983 533.747 313.356C533.15 317.539 532.433 321.722 531.716 325.905C531.716 326.503 531.477 327.1 531.357 327.578C527.533 347.776 521.437 366.898 513.55 384.945C513.311 385.423 513.072 386.02 512.832 386.499C504.825 404.426 494.905 421.157 483.432 436.455C483.074 436.933 482.835 437.292 482.476 437.77C470.883 453.068 457.737 466.812 443.276 479.002C442.917 479.361 442.439 479.719 442.081 480.078C438.854 482.707 435.627 485.336 432.28 487.846C435.746 485.336 438.973 482.707 442.319 479.958C442.798 479.6 443.156 479.241 443.515 478.882C457.976 466.692 471.242 452.828 482.835 437.65C483.193 437.172 483.552 436.814 483.791 436.336C495.264 421.038 505.184 404.306 513.191 386.379C513.43 385.901 513.669 385.423 513.908 384.825C521.796 366.898 527.891 347.657 531.716 327.459C531.716 326.861 531.955 326.264 532.074 325.786C532.791 321.603 533.508 317.539 534.106 313.237C536.377 296.863 537.094 280.61 536.496 264.475C536.496 263.878 536.496 263.28 536.496 262.683C535.54 242.604 532.433 222.765 527.294 203.762L528.011 204.001Z" fill="#3A3A47"/>
<path d="M432.997 488.085C431.563 489.161 430.009 490.356 428.456 491.432C430.009 490.356 431.444 489.28 432.997 488.085Z" fill="#3A3A47"/>
<path d="M426.783 492.627C426.783 492.627 427.38 492.149 427.739 491.91C426.185 492.985 424.512 494.18 422.958 495.256L426.783 492.627Z" fill="#3A3A47"/>
<path d="M428.456 491.312C428.456 491.312 427.858 491.67 427.619 491.909C427.858 491.67 428.217 491.551 428.456 491.312Z" fill="#3A3A47"/>
<path d="M537.691 219.299L540.44 236.987C539.723 231.012 538.886 225.155 537.691 219.299Z" fill="#3A3A47"/>
<path d="M536.855 214.638L537.333 216.789C537.213 216.072 537.094 215.355 536.855 214.638Z" fill="#3A3A47"/>
<path d="M537.572 218.462L537.213 216.789C537.333 217.626 537.572 218.462 537.692 219.299V218.462H537.572Z" fill="#3A3A47"/>
</svg>
