<svg width="56" height="46" viewBox="0 0 56 46" fill="none" xmlns="http://www.w3.org/2000/svg">
<path d="M52.8429 27.2371C48.7944 23.3105 42.2011 23.4155 38.1466 27.4681L35.1636 30.4497L32.2465 27.5341L37.7895 21.9936C42.5522 17.2332 42.5522 9.48498 37.7895 4.72449L36.6401 3.57562C34.3293 1.26886 31.2622 0 28 0C24.7378 0 21.6677 1.26886 19.3629 3.57562L18.2135 4.72449C13.4508 9.48498 13.4508 17.2332 18.2135 21.9936L23.7565 27.5341L20.8394 30.4497L17.7363 27.3481C15.7106 25.3233 13.0517 24.3124 10.3897 24.3124C7.72776 24.3124 5.06881 25.3233 3.04309 27.3481C1.08039 29.3129 0 31.9196 0 34.6943C0 37.469 1.08039 40.0757 3.04309 42.0375C5.00279 43.9963 7.61072 45.0732 10.3897 45.0732C13.1687 45.0732 15.7766 43.9963 17.7363 42.0375L20.8394 38.9358L24.0176 42.1185C25.08 43.1804 26.4905 43.7683 27.994 43.7683C29.4975 43.7683 30.911 43.1834 31.9734 42.1215L35.1636 38.9328L38.1466 41.9145C40.1513 43.9183 42.8223 45.0222 45.6643 45.0222C48.5063 45.0222 50.9282 43.9993 52.8429 42.1455C54.8776 40.1717 56 37.523 56 34.6913C56 31.8596 54.8776 29.2109 52.8429 27.2371ZM13.4928 37.793C12.6645 38.6209 11.5631 39.0738 10.3897 39.0738C9.21629 39.0738 8.1149 38.6179 7.2866 37.793C6.45831 36.968 6.00214 35.8642 6.00214 34.6913C6.00214 33.5184 6.45831 32.4175 7.2866 31.5896C8.1149 30.7617 9.21629 30.3058 10.3897 30.3058C11.5631 30.3058 12.6645 30.7617 13.4928 31.5896L16.5959 34.6913L13.4928 37.793ZM27.997 37.613L26.9286 36.5451L25.08 34.6943L27.967 31.8056L28.2071 31.9886L30.911 34.6913L27.991 37.61L27.997 37.613ZM30.0317 21.2647L28.003 23.2925L22.46 17.7521C20.0382 15.3314 20.0382 11.3898 22.46 8.96604L23.6094 7.81716C24.7829 6.64429 26.3434 5.99636 28.003 5.99636C29.6626 5.99636 31.2232 6.64129 32.3966 7.81716L33.546 8.96604C35.9678 11.3868 35.9678 15.3284 33.546 17.7521L30.0317 21.2647ZM48.6654 37.841C47.8401 38.6419 46.7597 39.0378 45.6643 39.0378C44.4879 39.0378 43.2995 38.5819 42.3931 37.676L39.4101 34.6943L42.3931 31.7126C44.1428 29.9638 46.9578 29.8888 48.6654 31.5446C49.5267 32.3785 50.0009 33.4974 50.0009 34.6943C50.0009 35.8912 49.5267 37.01 48.6654 37.8439V37.841Z" fill="white"/>
</svg>
