<svg width="16" height="15" viewBox="0 0 16 15" fill="none" xmlns="http://www.w3.org/2000/svg">
<path d="M3.55914 14.9997V4.87883H0.19811V14.9997H3.55949H3.55914ZM1.87933 3.49723C3.05114 3.49723 3.78068 2.72007 3.78068 1.74884C3.75874 0.755472 3.05114 0 1.90161 0C0.751292 0 0 0.755472 0 1.74875C0 2.71998 0.72927 3.49714 1.8573 3.49714H1.87906L1.87933 3.49723ZM5.41952 14.9997H8.78028V9.34834C8.78028 9.04626 8.80222 8.74339 8.89101 8.52763C9.13386 7.92302 9.68687 7.29716 10.6156 7.29716C11.8314 7.29716 12.3181 8.22519 12.3181 9.58588V14.9997H15.6788V9.19669C15.6788 6.08813 14.0209 4.64155 11.8097 4.64155C9.99675 4.64155 9.20054 5.65572 8.75817 6.34648H8.78055V4.87918H5.41969C5.46356 5.82863 5.41943 15 5.41943 15L5.41952 14.9997Z" fill="white"/>
</svg>
