<svg width="19" height="16" viewBox="0 0 19 16" fill="none" xmlns="http://www.w3.org/2000/svg">
<path d="M18.9154 1.88313C18.3008 2.14786 17.6546 2.33221 16.9929 2.43161C17.3023 2.37853 17.7575 1.8212 17.9387 1.59561C18.214 1.25533 18.4237 0.866881 18.5574 0.449982C18.5574 0.419019 18.5883 0.374786 18.5574 0.352669C18.5418 0.344152 18.5243 0.339689 18.5066 0.339689C18.4888 0.339689 18.4713 0.344152 18.4558 0.352669C17.7372 0.742105 16.9726 1.03933 16.1798 1.23733C16.1522 1.24577 16.1227 1.24653 16.0947 1.23952C16.0667 1.23251 16.0411 1.21799 16.0207 1.19752C15.959 1.12397 15.8925 1.05453 15.8218 0.989622C15.4985 0.699653 15.1316 0.462326 14.7347 0.28632C14.1988 0.0662958 13.6201 -0.0289919 13.042 0.00765316C12.4812 0.0431048 11.9336 0.193669 11.4334 0.449982C10.9408 0.72021 10.5079 1.08732 10.1606 1.52926C9.79535 1.98413 9.53164 2.51202 9.38723 3.07741C9.26815 3.61522 9.25464 4.17106 9.34746 4.71403C9.34746 4.80692 9.34746 4.82019 9.26791 4.80692C6.11691 4.34247 3.53158 3.22338 1.41913 0.821538C1.32633 0.715379 1.27771 0.715379 1.20258 0.821538C0.283358 2.2193 0.729713 4.43094 1.87875 5.52349C2.03342 5.66946 2.19252 5.811 2.36046 5.9437C1.83363 5.90627 1.31967 5.76337 0.849035 5.52349C0.760648 5.46599 0.712035 5.49695 0.707616 5.60311C0.695088 5.75028 0.695088 5.89826 0.707616 6.04544C0.799828 6.75077 1.07755 7.41894 1.51238 7.98161C1.94721 8.54429 2.52355 8.98128 3.18246 9.24789C3.34308 9.31676 3.51045 9.36864 3.68184 9.40271C3.19413 9.49881 2.69393 9.51376 2.20136 9.44694C2.09529 9.42483 2.05552 9.48233 2.09529 9.58406C2.74494 11.3534 4.15471 11.893 5.18884 12.1938C5.33026 12.2159 5.47168 12.2159 5.63078 12.2513C5.63078 12.2513 5.63078 12.2513 5.60426 12.2778C5.29933 12.8352 4.06633 13.2112 3.50065 13.4058C2.46814 13.777 1.3673 13.9189 0.274519 13.8216C0.102164 13.795 0.0623898 13.7995 0.0181962 13.8216C-0.0259973 13.8437 0.0181962 13.8923 0.0668091 13.9366C0.287777 14.0825 0.508745 14.2108 0.738551 14.3347C1.42269 14.7082 2.14596 15.0048 2.8952 15.2193C6.77539 16.2898 11.1417 15.5024 14.0541 12.6052C16.3433 10.3316 17.1476 7.19549 17.1476 4.05496C17.1476 3.93553 17.2935 3.86476 17.3774 3.80283C17.9566 3.35117 18.4672 2.81776 18.8933 2.2193C18.9671 2.13009 19.0049 2.0165 18.9993 1.90082C18.9993 1.83447 18.9993 1.84774 18.9154 1.88313Z" fill="white"/>
</svg>
