<svg width="45" height="46" viewBox="0 0 45 46" fill="none" xmlns="http://www.w3.org/2000/svg">
<path d="M27.9125 37.8766C27.4637 37.8766 27.0149 37.7021 26.6718 37.3526L4.93853 15.2122C2.95309 13.1825 1.61401 10.6248 1.06432 7.81301C1.06272 7.80508 1.06129 7.79716 1.05985 7.78923L0.0296711 2.12521C-0.0762719 1.54323 0.105188 0.945051 0.514885 0.526336C0.924413 0.107794 1.5095 -0.0780432 2.079 0.0303402L7.61989 1.0835C7.62764 1.08505 7.63539 1.08643 7.64306 1.08807C10.3936 1.65006 12.896 3.01872 14.8793 5.0463L36.6105 27.1844C37.2981 27.8849 37.3 29.0225 36.6148 29.7253C35.9295 30.428 34.8166 30.4301 34.1291 29.7296L12.3957 7.58935C10.9054 6.06595 9.0285 5.03812 6.96527 4.61415L3.95377 4.04182L4.51358 7.11989C4.92825 9.22914 5.93382 11.1478 7.42216 12.6692L29.1533 34.8074C29.8408 35.5079 29.8427 36.6455 29.1575 37.3483C28.8142 37.7004 28.3634 37.8766 27.9125 37.8766ZM12.0023 43.8983L18.7686 36.98C19.455 36.2782 19.4548 35.1406 18.7683 34.4391C18.0819 33.7375 16.9689 33.7376 16.2826 34.4394L9.51658 41.3575C8.14598 42.7585 5.9157 42.7585 4.54518 41.3575C3.88121 40.6788 3.51551 39.7764 3.51551 38.8166C3.51551 37.8568 3.88121 36.9543 4.54535 36.2754L11.2675 29.4021C11.9539 28.7003 11.9538 27.5627 11.2673 26.8613C10.5808 26.1598 9.46786 26.1598 8.78147 26.8615L2.05944 33.7346C0.73149 35.0919 8.79441e-05 36.8968 8.79441e-05 38.8165C8.79441e-05 40.7362 0.731406 42.541 2.05936 43.8985C3.42996 45.2995 5.23031 46 7.03075 46C8.83111 45.9999 10.6316 45.2993 12.0023 43.8983ZM36.1015 19.2576L40.0601 15.21C42.0434 13.1826 43.3825 10.6247 43.9323 7.81292C43.9339 7.80499 43.9354 7.79707 43.9368 7.78914L44.9669 2.12521C45.0728 1.54314 44.8913 0.945051 44.4817 0.526336C44.0722 0.107708 43.4873 -0.077957 42.9176 0.0303402L37.3767 1.08359C37.3689 1.08514 37.3612 1.08652 37.3535 1.08815C34.603 1.65015 32.1006 3.01881 30.1171 5.04656L26.2243 9.02694C25.5379 9.72876 25.5381 10.8664 26.2246 11.5678C26.9112 12.2695 28.0241 12.2694 28.7103 11.5676L32.6029 7.58737C34.0912 6.06586 35.9682 5.03812 38.0315 4.61415L41.0427 4.0419L40.4828 7.12032C40.0681 9.22949 39.0625 11.1481 37.5742 12.6694L33.6154 16.7172C32.929 17.419 32.9292 18.5567 33.6158 19.2581C33.959 19.6088 34.4086 19.7841 34.8584 19.7841C35.3083 19.784 35.7582 19.6086 36.1015 19.2576ZM42.9371 43.8985C44.2651 42.541 44.9964 40.7362 44.9964 38.8165C44.9964 36.9069 44.2727 35.1109 42.958 33.7559L41.6197 32.2994C40.9552 31.5761 39.8428 31.5404 39.1353 32.2196C38.4276 32.899 38.3927 34.036 39.0573 34.7594L40.413 36.235C40.4255 36.2487 40.4383 36.2623 40.4514 36.2755C41.1154 36.9543 41.4811 37.8566 41.4811 38.8164C41.4811 39.7763 41.1154 40.6787 40.4514 41.3573C39.0866 42.7523 36.8697 42.7584 35.4976 41.3751L34.1627 39.9221C33.4981 39.1988 32.3858 39.1631 31.6781 39.8423C30.9705 40.5216 30.9356 41.6587 31.6001 42.382L32.9558 43.8578C32.9685 43.8715 32.9812 43.885 32.9943 43.8983C34.3649 45.2993 36.1653 46 37.9657 46C39.766 46 41.5665 45.2994 42.9371 43.8985Z" fill="white"/>
</svg>
