<svg width="44" height="45" viewBox="0 0 44 45" fill="none" xmlns="http://www.w3.org/2000/svg">
<path d="M37.7266 45C36.0509 45 34.4755 44.3326 33.2906 43.1208L28.1793 37.8933C26.4379 36.1124 25.2625 33.8656 24.7797 31.396L23.8065 26.4157C23.6938 25.8395 23.8703 25.2438 24.2767 24.8282C24.683 24.4127 25.2657 24.2325 25.8289 24.3474L30.6984 25.3429C33.1133 25.8366 35.31 27.0387 37.0515 28.8198L42.1628 34.0472C43.3476 35.2589 44.0001 36.87 44.0001 38.5838C44.0001 40.2976 43.3476 41.9088 42.1625 43.1206C40.9775 44.3326 39.4022 45 37.7266 45ZM27.6824 28.3116L28.1505 30.7068C28.4997 32.4936 29.3502 34.1189 30.61 35.4073L35.7213 40.6347C36.2568 41.1825 36.9691 41.4843 37.7266 41.4843C38.484 41.4843 39.1963 41.1825 39.7319 40.6347C40.2674 40.087 40.5625 39.3586 40.5625 38.5839C40.5625 37.8092 40.2674 37.0808 39.7319 36.5331L34.6205 31.3056C33.3608 30.0173 31.7716 29.1475 30.0246 28.7903L27.6824 28.3116ZM26.7681 42.9992C27.4438 42.3174 27.4511 41.2045 26.7843 40.5134C26.1177 39.8224 25.0293 39.8147 24.3538 40.4968C23.7227 41.1337 22.8868 41.4844 22.0001 41.4844C20.152 41.4844 18.6485 39.9468 18.6485 38.0567V17.4903C18.6485 13.6617 15.603 10.5469 11.8595 10.5469H6.87499C4.97958 10.5469 3.43749 8.96981 3.43749 7.03132C3.43749 5.09284 4.97958 3.51562 6.87499 3.51562H37.125C39.0204 3.51562 40.5625 5.09276 40.5625 7.03124C40.5625 8.96972 39.0204 10.5469 37.125 10.5469H32.1406C28.3971 10.5469 25.3516 13.6616 25.3516 17.4902V19.4238C25.3516 20.3946 26.1211 21.1816 27.0704 21.1816C28.0197 21.1816 28.7892 20.3946 28.7892 19.4238V17.4902C28.7892 15.6001 30.2926 14.0625 32.1407 14.0625H37.1251C40.916 14.0625 44.0001 10.9083 44.0001 7.03124C44.0001 3.15419 40.9159 0 37.125 0H6.87499C3.08409 0 0 3.15419 0 7.03124C0 10.9083 3.08409 14.0625 6.87499 14.0625H11.8594C13.7075 14.0625 15.2109 15.6001 15.2109 17.4902V38.0566C15.2109 41.8852 18.2564 44.9999 21.9999 44.9999C23.7963 45 25.4896 44.2894 26.7681 42.9992Z" fill="white"/>
</svg>
