<svg width="106" height="22" viewBox="0 0 106 22" fill="none" xmlns="http://www.w3.org/2000/svg">
<path d="M4.83463 5.14617V7.468C5.8297 5.80955 7.42784 4.9753 9.61901 4.9753C11.4282 4.9753 12.8957 5.57837 14.0214 6.78452C15.1472 7.99066 15.71 9.62901 15.71 11.7096V20.9366H10.8955V12.3629C10.8955 11.3478 10.6241 10.5537 10.0914 10.0009C9.5587 9.44809 8.81491 9.16665 7.8701 9.16665C6.92528 9.16665 6.18149 9.44809 5.64878 10.0009C5.11607 10.5537 4.84468 11.3478 4.84468 12.3629V20.9366H0V5.14617H4.83463Z" fill="#3B3B42"/>
<path d="M20.4643 18.8761C19.0672 17.3684 18.3736 15.4286 18.3736 13.0766C18.3736 10.7246 19.0672 8.78471 20.4643 7.25692C21.8614 5.73919 23.5601 4.9753 25.5703 4.9753C27.5805 4.9753 29.1184 5.71909 30.1939 7.20667V5.13612H35.0285V20.9266H30.1939V18.6349C29.0279 20.2933 27.4599 21.1276 25.4999 21.1276C23.54 21.1276 21.8614 20.3738 20.4643 18.8661V18.8761ZM29.1485 15.9311C29.8421 15.2476 30.1939 14.2928 30.1939 13.0464C30.1939 11.8001 29.8421 10.8452 29.1485 10.1718C28.455 9.49834 27.6509 9.16665 26.7463 9.16665C25.8417 9.16665 25.0376 9.50839 24.3441 10.1818C23.6505 10.8653 23.2987 11.8202 23.2987 13.0665C23.2987 14.3129 23.6505 15.2677 24.3441 15.9412C25.0376 16.6146 25.8417 16.9463 26.7463 16.9463C27.6509 16.9463 28.455 16.6045 29.1485 15.9311Z" fill="#3B3B42"/>
<path d="M45.7028 16.8358H47.4316V20.9367H44.9691C43.19 20.9367 41.8231 20.5447 40.8481 19.7607C39.8731 18.9767 39.3907 17.6299 39.3907 15.7302V9.16675H37.9232V5.14627H39.3907V1.30671H44.2253V5.15632H47.3914V9.1768H44.2253V15.7402C44.2253 16.474 44.7178 16.8459 45.6928 16.8459L45.7028 16.8358Z" fill="#3B3B42"/>
<path d="M61.1818 5.14634H66.0164V20.9368H61.1818V18.615C60.1766 20.2734 58.5885 21.1077 56.3974 21.1077C54.5882 21.1077 53.1207 20.5046 51.9949 19.2984C50.8692 18.0923 50.3063 16.4539 50.3063 14.3733V5.14634H55.1209V13.72C55.1209 14.7352 55.3923 15.5292 55.925 16.0821C56.4577 16.6349 57.2015 16.9163 58.1463 16.9163C59.0911 16.9163 59.8349 16.6349 60.3676 16.0821C60.9104 15.5292 61.1717 14.7352 61.1717 13.72V5.14634H61.1818Z" fill="#3B3B42"/>
<path d="M74.8213 5.14617V8.09117C75.9571 6.02062 77.4648 4.9753 79.3544 4.9753V9.90039H78.1684C77.0527 9.90039 76.2184 10.1617 75.6656 10.6944C75.1128 11.2272 74.8314 12.1519 74.8314 13.4686V20.9366H69.9967V5.14617H74.8314H74.8213Z" fill="#3B3B42"/>
<path d="M82.6309 18.8761C81.2337 17.3684 80.5402 15.4286 80.5402 13.0766C80.5402 10.7246 81.2337 8.78471 82.6309 7.25692C84.028 5.73919 85.7266 4.9753 87.7369 4.9753C89.7471 4.9753 91.285 5.71909 92.3604 7.20667V5.13612H97.1951V20.9266H92.3604V18.6349C91.1945 20.2933 89.6265 21.1276 87.6665 21.1276C85.7065 21.1276 84.028 20.3738 82.6309 18.8661V18.8761ZM91.3151 15.9311C92.0086 15.2476 92.3604 14.2928 92.3604 13.0464C92.3604 11.8001 92.0086 10.8452 91.3151 10.1718C90.6216 9.49834 89.8175 9.16665 88.9129 9.16665C88.0083 9.16665 87.2042 9.50839 86.5106 10.1818C85.8171 10.8653 85.4653 11.8202 85.4653 13.0665C85.4653 14.3129 85.8171 15.2677 86.5106 15.9412C87.2042 16.6146 88.0083 16.9463 88.9129 16.9463C89.8175 16.9463 90.6216 16.6045 91.3151 15.9311Z" fill="#3B3B42"/>
<path d="M101.165 20.9367V0H106V20.9367H101.165Z" fill="#3B3B42"/>
</svg>
