<svg width="19" height="15" viewBox="0 0 19 15" fill="none" xmlns="http://www.w3.org/2000/svg">
<path d="M16.1086 1.23134C18.2544 4.40859 19.3141 7.99244 18.918 12.1183C18.9163 12.1357 18.9073 12.1518 18.8931 12.1623C17.2681 13.3639 15.6937 14.0932 14.1414 14.5768C14.1294 14.5805 14.1164 14.5803 14.1045 14.5762C14.0925 14.5721 14.0821 14.5644 14.0747 14.5541C13.7161 14.0516 13.3902 13.5218 13.1048 12.9654C13.0884 12.9327 13.1033 12.8932 13.1371 12.8803C13.6546 12.6839 14.1467 12.4486 14.62 12.1699C14.6573 12.1479 14.6597 12.0941 14.6252 12.0683C14.5248 11.9932 14.4253 11.9143 14.33 11.8353C14.3122 11.8207 14.2882 11.8179 14.268 11.8277C11.1951 13.2568 7.82878 13.2568 4.71947 11.8277C4.69928 11.8186 4.67529 11.8217 4.65796 11.836C4.56296 11.915 4.46321 11.9932 4.3637 12.0683C4.32926 12.0941 4.33211 12.1479 4.36964 12.1699C4.84297 12.4433 5.33506 12.6839 5.85185 12.8813C5.88534 12.8942 5.90125 12.9327 5.88463 12.9654C5.60533 13.5225 5.27949 14.0523 4.91422 14.5548C4.8983 14.5751 4.87218 14.5844 4.84748 14.5768C3.30256 14.0932 1.72819 13.3639 0.103241 12.1623C0.0897033 12.1518 0.0799659 12.135 0.0785409 12.1176C-0.25253 8.54877 0.422199 4.93526 2.88528 1.23063C2.89122 1.22082 2.90024 1.21317 2.91069 1.20862C4.12264 0.648465 5.42104 0.23636 6.77809 0.00100826C6.80279 -0.0028186 6.82749 0.00866198 6.84032 0.0306664C7.00799 0.32964 7.19965 0.713043 7.32932 1.02637C8.75977 0.806323 10.2125 0.806323 11.6729 1.02637C11.8026 0.71974 11.9876 0.32964 12.1545 0.0306664C12.1605 0.0197502 12.1697 0.0110048 12.1809 0.00567864C12.1921 0.000352482 12.2046 -0.0012821 12.2168 0.00100826C13.5745 0.237078 14.8729 0.649182 16.0839 1.20862C16.0946 1.21317 16.1034 1.22082 16.1086 1.23134ZM8.05654 8.01684C8.0715 6.96182 7.30771 6.08882 6.34894 6.08882C5.398 6.08882 4.64157 6.95417 4.64157 8.01684C4.64157 9.07927 5.41296 9.94462 6.34894 9.94462C7.30011 9.94462 8.05654 9.07927 8.05654 8.01684ZM14.3697 8.01684C14.3846 6.96182 13.6209 6.08882 12.6623 6.08882C11.7111 6.08882 10.9547 6.95417 10.9547 8.01684C10.9547 9.07927 11.7261 9.94462 12.6623 9.94462C13.6209 9.94462 14.3697 9.07927 14.3697 8.01684Z" fill="white"/>
</svg>
