<svg width="102" height="38" viewBox="0 0 102 38" fill="none" xmlns="http://www.w3.org/2000/svg">
<g clip-path="url(#clip0_408_1285)">
<path d="M11.8648 19.1006C12.0359 19.2113 12.207 19.322 12.368 19.3824C13.6662 20.0567 14.6726 20.9624 15.7494 21.8581C17.269 23.2066 18.3357 24.9576 18.8992 27.0911C19.2414 28.5503 19.0099 30.1907 18.0539 31.8814C17.7721 32.4449 17.43 33.0689 16.9872 33.572C16.8161 33.7934 16.5343 34.1356 16.2525 34.357C15.1858 35.3734 13.9983 36.0477 12.7102 36.5508C12.0862 36.893 11.412 36.9433 10.7981 36.893C10.2949 36.893 9.84205 36.9534 9.33887 37.2352C8.88601 37.4566 8.49353 37.5773 7.99035 37.7383C6.81292 38.0201 5.7965 38.0805 4.78008 37.9094C3.26048 37.688 1.7912 37.2352 0.835164 36.2188C-0.0101752 35.313 -0.231574 34.1356 0.271604 32.5556C0.664083 31.5996 1.17732 30.6435 1.9019 29.6875C2.52584 28.7918 3.25042 27.8861 4.15614 27.1012C4.32722 26.9905 4.43792 26.759 4.54862 26.598C5.00148 25.7527 5.22287 25.5816 6.06821 25.7023C6.41037 25.5916 6.63177 25.0784 7.08463 25.2495C6.86323 25.3602 6.69215 25.4709 6.34999 25.642C6.63177 25.7023 6.80285 25.7527 6.91355 25.7527C6.91355 26.0344 6.91355 26.2558 6.97393 26.5376C7.03431 26.7087 6.97393 26.8798 6.80285 27.1012C6.46069 27.554 6.17891 28.0069 5.78643 28.5101C5.22287 29.2447 4.8304 29.919 4.7197 30.7643C4.609 31.2675 4.609 31.7203 4.54862 32.2839C4.48823 32.6764 4.65932 32.9582 5.05179 33.0689C5.50465 33.2399 6.06821 33.2903 6.63177 33.1796C7.64819 33.0085 8.71493 32.7871 9.73135 32.3342C10.7478 31.8814 11.8145 31.4889 12.8309 30.9857C13.5656 30.6435 14.3505 30.2007 15.0248 29.5768C15.528 29.1843 15.699 28.7315 15.528 28.3893C15.1355 27.0911 14.6222 25.964 13.5555 25.1287C11.8145 23.7198 9.78167 22.482 7.75889 21.3046C6.52107 20.5699 5.39395 19.785 4.32722 18.8792C3.0894 17.9232 2.18368 16.6854 1.50942 15.3872C0.211223 13.2437 1.39872 10.3152 3.2001 8.1213C4.8304 6.09853 7.02425 4.73995 9.27849 3.50213C9.95275 3.22035 10.627 3.04927 11.2509 2.76749C14.6826 1.52967 17.8929 1.41897 20.9925 1.64037C21.9485 1.75107 22.8542 1.92215 23.8103 2.03285C24.8267 2.14355 25.7827 2.37501 26.5174 2.93857C26.7991 3.15997 26.9702 3.39143 26.7991 3.83423C26.7388 3.94492 26.7388 4.11601 26.7388 4.2267C26.6784 4.50848 26.6784 4.79026 26.5677 5.07204C26.1148 6.02808 25.7827 6.98412 25.7223 7.94016C25.662 8.33264 25.3802 8.89619 25.0984 9.34905C24.877 9.80191 24.5348 10.134 24.3134 10.5366C24.092 10.929 23.8103 11.2108 23.4077 11.4423C22.7838 11.7241 22.2806 12.0058 21.6667 12.1769C21.3246 12.348 20.9925 12.348 20.761 12.1769C19.9157 11.8348 19.02 11.6737 18.1143 11.553C16.3129 11.3316 14.5115 11.0498 12.5391 11.1001C11.9755 11.1605 11.3616 11.2108 10.7981 11.3819C10.1238 11.4926 9.49989 11.6637 8.88601 11.7744C4.8304 12.7908 7.19533 15.7193 9.22817 17.1785C10.1339 17.7421 11.0295 18.4163 11.8749 19.0906L11.8648 19.1006Z" fill="#3B3B42"/>
<path d="M31.8512 25.5715C31.7908 25.5111 31.6298 25.5111 31.5694 25.6822C31.509 25.6822 31.509 25.7426 31.509 25.7929C31.2876 26.3565 31.0058 26.6986 30.4926 26.5779C30.2108 26.8596 30.1001 27.1414 29.8686 27.3628C29.6472 27.4735 29.3655 27.705 29.3051 28.0975C29.3051 28.2082 29.2447 28.2685 29.1944 28.3792C28.9126 28.7717 28.6308 29.0535 28.4094 29.3957C28.188 29.9592 27.7855 30.3014 27.393 30.6335C27.2219 30.8549 26.9402 31.026 26.7691 31.4184C26.7691 31.4788 26.6584 31.6398 26.4873 31.6398C26.2055 31.7002 25.9237 31.9216 25.642 32.143C25.018 32.4852 24.4041 32.7669 23.7299 32.8173C23.1059 32.8173 22.5524 32.7569 21.9889 32.4751C21.0932 31.9719 20.7511 31.0159 20.6404 29.7781C20.6404 29.4963 20.6404 29.2145 20.7511 28.9327C20.8618 27.1917 21.2039 25.4407 21.6568 23.6997C21.9386 22.7436 22.2807 21.8983 22.6128 21.053C23.3475 19.5334 23.9613 17.9031 24.696 16.3835C24.696 16.2124 24.7564 16.1621 24.8067 15.991C25.1488 14.6928 25.8231 13.455 26.4974 12.2775C26.7188 11.9354 26.8395 11.6033 27.0609 11.1504C27.3427 11.09 27.6245 11.09 27.8459 11.3215C28.4698 11.714 29.0837 12.1668 29.7579 12.5593C29.8686 12.6197 30.0397 12.7304 30.0397 12.8411C30.4322 13.6864 30.9454 14.4714 31.1668 15.4274C31.2775 15.991 31.3379 16.4942 31.4486 17.0577C31.5593 17.6817 31.509 18.3559 31.2272 18.9195C31.0058 19.3724 30.8851 19.8755 30.6637 20.3284C30.6033 20.6102 30.4926 20.892 30.4423 21.1737C30.1001 22.3008 29.768 23.428 29.2648 24.5551C29.2648 24.5551 29.2045 24.6155 29.2045 24.6658C29.2045 24.6658 29.2045 24.7262 29.0938 24.8369C29.0334 25.2293 28.9227 25.6822 28.7013 26.1351C28.812 26.0747 28.9227 26.0747 28.9831 26.0244C29.5466 25.4004 30.1605 24.6758 30.724 24.0016C31.7405 22.8745 32.6361 21.7474 33.5922 20.6202C33.9846 20.1674 34.3268 19.8353 34.6589 19.322C35.7256 17.8628 36.9131 16.5646 38.0906 15.2664C38.312 15.045 38.5434 14.8739 38.7145 14.8136C39.2177 14.5922 39.7309 14.5318 40.1234 14.5922C40.3448 14.7029 40.5159 14.7632 40.6266 14.8739C41.0794 15.3268 41.4719 15.83 41.9248 16.2225C42.2066 16.4439 42.3776 16.786 42.5487 17.2389C42.6594 17.6314 42.7701 17.9735 42.8305 18.4264C42.9412 18.9899 42.9412 19.5535 42.7701 20.1674C42.3776 21.4656 42.0355 22.643 41.5323 23.8305C41.4216 24.3337 41.1901 24.8469 41.0794 25.4608C41.2505 25.4004 41.4216 25.2897 41.4719 25.2394C42.599 24.6155 43.6155 23.7198 44.5715 22.7034C45.4772 21.8581 46.4333 21.0731 47.4396 20.5095C47.6107 20.4492 47.7214 20.3385 47.8925 20.1674C48.2346 19.8856 48.5164 19.946 48.7378 20.1674C49.0196 20.3888 49.1303 20.7913 49.5228 20.9523C49.8046 21.063 49.9756 21.3448 50.197 21.6266C50.1367 22.1298 50.1367 22.5826 50.197 23.0355C50.197 23.428 50.0863 23.8204 49.9152 24.2733C49.5731 24.4444 49.8045 24.8972 49.5731 25.179C49.5127 25.8533 49.402 26.5275 49.2913 27.1515C49.2309 27.7754 49.2309 28.3289 49.2913 28.9529C49.2913 29.3453 49.402 29.5164 49.6838 29.6271C50.5291 29.7982 53.4576 27.715 54.0212 26.9804C55.0376 25.8533 55.8829 24.5551 56.6679 23.2066C56.7283 22.9248 56.839 22.643 57.0101 22.4719C57.1208 22.643 57.1811 22.643 57.1208 22.6933C56.9497 23.5387 57.2315 23.0355 57.1208 23.9915C57.1208 23.7701 56.839 24.9476 56.6679 24.8369C56.5572 24.8369 56.5572 25.0079 56.4465 25.1186C56.1043 25.7426 55.7722 26.2961 55.4905 26.9804C55.4905 27.2018 55.3194 27.3729 55.2691 27.4836C54.7659 27.8257 54.4237 28.2182 54.0312 28.6107C54.0312 28.7818 53.8602 28.8321 53.7495 28.8925C53.4677 29.5164 51.1027 31.197 50.4889 31.197C50.2071 31.197 48.8586 31.0863 48.5768 30.8549C48.0132 30.3517 47.1176 29.7278 46.7754 28.9428C46.4936 28.2685 46.4936 27.4232 46.715 26.5779C46.9968 25.169 47.339 23.8204 47.8422 22.4719C47.9025 22.3008 47.9529 22.0795 47.9529 21.9084C48.0132 21.7977 47.9529 21.7373 47.9529 21.5662C47.6107 21.6266 47.3893 22.0191 47.1075 22.0694C46.8257 22.1801 46.544 22.2908 46.3226 22.4619C46.2823 22.8376 46.1515 23.1931 45.9301 23.5286C45.7087 23.75 45.5879 24.0318 45.3665 24.3136C45.0847 24.1425 44.803 24.3136 44.5212 24.535C44.0683 24.9274 43.6758 25.2696 43.1727 25.6621C43.062 25.7728 42.8909 25.8332 42.7802 26.0546C42.277 26.6785 41.6531 27.1213 40.9788 27.6345C40.9184 27.7452 40.8077 27.7452 40.697 27.9163C40.3549 28.5906 39.6806 28.9327 39.1774 29.4963C39.0064 29.7177 38.8353 29.9492 38.6139 30.1706C37.7082 30.9052 36.7018 31.187 35.7458 31.0763C35.2929 31.0159 34.9004 30.7341 34.5583 30.3416C34.1658 29.9492 33.9947 29.446 34.0551 28.651C34.0551 28.027 34.1658 27.4735 34.3972 26.8496C35.303 24.0318 36.6515 21.5561 38.2818 19.1912C38.6743 18.4566 39.1875 17.7823 39.58 16.9974C39.8014 16.776 39.9725 16.4942 39.8618 16.152C39.6907 15.9809 39.4693 15.9809 39.2378 16.2124C39.1271 16.3835 38.956 16.4942 38.7346 16.6653C38.1711 17.2288 37.6075 17.7924 37.044 18.2452C36.7018 18.6377 36.42 18.9799 36.1986 19.4831C35.9168 20.1573 35.5747 20.7209 35.1319 21.224C34.6287 21.7272 34.1758 22.1801 33.8337 22.7436C33.4915 23.1965 33.2701 23.6997 32.9883 24.1525C32.8776 24.4343 32.6462 24.8268 32.4852 25.1086C32.3745 25.2797 32.2034 25.5011 32.0927 25.6721C32.0323 25.6721 31.9216 25.5614 31.8713 25.5614L31.8512 25.5715Z" fill="#3B3B42"/>
<path d="M56.8994 18.0842L56.9598 18.0238C57.1309 17.8024 57.2416 17.7421 57.4126 17.6314C58.0366 17.5207 59.4354 16.5042 59.999 16.8464C60.1701 17.0678 60.7336 17.3496 60.955 17.581C61.1764 17.8628 61.2368 18.2553 61.0657 18.8189C60.7236 19.5535 60.3311 20.2278 59.8883 21.1234C59.7776 21.4656 59.6669 21.7474 59.6065 21.9688C59.3851 22.4719 59.1536 23.1563 58.8719 23.6594C58.6505 24.3337 59.6568 22.2002 59.5461 22.7638C59.5461 22.9349 59.4354 23.1059 59.375 23.2166C58.9222 24.3438 58.9222 24.1224 58.8719 25.1287C58.8719 25.6923 58.6505 28.5604 58.7008 29.0736C58.7612 29.4661 58.9826 29.6976 59.1536 29.919C59.375 30.0297 59.6568 30.2611 59.999 30.3718C60.2808 30.5932 60.5625 30.4825 60.9047 30.4322C65.5742 28.7415 63.8936 28.1277 66.5906 25.2495C67.0938 24.5148 67.7177 23.8406 67.9995 22.9449C67.9995 22.9047 68.0565 22.7906 68.1706 22.6028C68.4524 23.1663 67.8284 23.9513 68.6235 24.1224C67.446 26.2659 66.6007 29.3554 64.6785 30.4825C64.115 31.2172 60.2908 34.5885 57.8152 33.6324C57.0302 33.9142 56.2956 33.1292 55.4503 32.7871C54.8867 32.5657 54.3231 32.1128 53.82 31.5493C53.5382 30.8146 53.2564 30.0297 53.2564 29.295C53.1457 28.9529 53.1457 28.5604 53.1457 28.2786C53.3168 27.6043 53.2061 26.3062 53.4275 25.8533C53.4879 25.5715 53.5986 25.2897 53.5986 24.9476C53.7093 24.8872 53.5986 24.6054 53.991 24.5551C54.0514 24.5551 54.1017 24.3337 54.1621 24.2733C54.4439 23.8808 54.5043 23.5387 54.7861 23.1462C54.7861 23.1462 53.6086 24.3337 54.2829 23.2066C54.7357 22.0795 55.7421 20.8416 56.0843 20.0567C56.0843 19.946 56.195 19.7749 56.195 19.7749C56.366 19.4327 56.5371 19.2113 56.4164 18.8189C56.356 18.5975 56.4164 18.366 56.5874 18.0339C56.6981 18.0943 56.7585 18.1446 56.9296 18.0943L56.8994 18.0842ZM62.0821 11.9455C61.9714 12.1165 61.8607 12.2272 61.8004 12.4486C61.8004 12.509 61.8004 12.6197 61.6897 12.7304C61.5186 12.9015 61.3475 13.1229 61.1261 13.4047C61.0154 13.5758 60.5625 13.7971 60.2808 13.8575C60.1701 13.7971 59.999 13.9179 59.8883 14.0286C59.5461 14.25 59.3247 14.1997 59.1033 14.089C58.9322 13.9783 58.8215 13.9783 58.6505 13.9783C58.4291 13.9783 58.258 13.9783 58.0265 13.9179C58.0869 13.8575 58.1372 13.7468 58.1976 13.6965C58.1976 13.5254 58.3083 13.3544 58.3687 13.133C58.4794 12.8512 58.5901 12.6801 58.7612 12.3983C58.7612 12.2876 58.9322 12.1769 58.9322 12.1165C58.9322 11.7744 59.214 11.4926 59.3851 11.1605C59.4958 10.9894 59.6065 10.8183 59.7273 10.6573C59.838 10.5466 59.9487 10.4359 60.0694 10.4359C60.1801 10.3755 60.2908 10.3755 60.3512 10.4359C60.3512 10.5466 60.4619 10.5466 60.5726 10.4963C60.6833 10.4359 60.7437 10.3856 60.794 10.4359C61.0154 10.5466 61.2972 10.607 61.5286 10.6573C61.9211 10.8284 62.2029 11.1102 62.4344 11.5027C62.2633 11.6737 62.213 11.8448 62.0922 11.9555L62.0821 11.9455Z" fill="#3B3B42"/>
<path d="M83.7589 25.5212C83.4771 26.0848 82.5211 27.3226 82.5211 27.9465C82.4607 28.0069 82.2997 28.1679 82.1789 28.2283C82.0079 28.3994 81.8368 28.6208 81.7261 28.9025C81.6154 29.1843 81.4443 29.295 81.3336 29.5265C80.5486 30.9354 80.0354 31.7203 78.7473 32.9582C78.4051 33.2399 75.4263 36.1081 75.2049 36.3898C73.5746 37.7384 71.3807 37.1245 69.7404 37.1748C69.2875 37.1748 68.8347 37.1144 68.5629 36.9534C68.0598 36.6716 66.9326 36.2188 66.5905 35.7156C66.0873 34.4778 64.7891 33.6324 64.6784 31.8914C64.618 31.4386 64.3966 31.1568 64.3362 30.7039C64.3966 28.9026 64.6784 27.1012 64.8998 25.2394C65.242 23.9412 65.5238 22.5323 65.7451 21.2442C66.3087 18.8189 66.4798 18.5371 67.5465 16.3432C68.1101 14.884 68.6133 14.7633 69.1768 13.304C69.5693 12.5191 70.0222 11.7241 70.475 11.0498C70.8172 10.2045 71.3807 9.41951 71.8839 8.57417C72.9507 6.71241 74.1382 5.08211 75.376 3.73359C76.2213 2.88826 77.117 1.9926 77.9623 1.25796C78.4655 0.865481 78.9787 0.412621 79.4819 0.241541C79.653 0.130841 79.8241 0.0704601 79.9851 0.0201423C80.77 -0.0402391 81.5047 0.0805236 82.0682 0.644083C82.6318 1.14726 82.8029 1.94228 82.6318 3.00902C82.5211 3.68328 82.4607 4.35754 82.2896 4.98148C82.2293 5.48465 82.0079 5.93751 81.7261 6.50107C81.3336 7.45711 80.8807 8.36283 80.2669 9.25849C79.8744 9.99313 79.4215 10.7177 79.029 11.4523C78.3548 12.4688 77.7912 13.5355 77.117 14.4915C75.9395 16.0715 74.9231 17.7622 73.8564 19.3321C72.1154 22.321 72.2764 22.8242 71.6625 25.803C71.4411 26.9905 71.5518 27.6647 71.4914 28.8422C71.5518 29.1843 71.7128 31.3782 71.7732 31.5996C71.9443 32.3845 72.1154 32.6663 72.4475 33.401C72.5582 33.6224 73.3431 33.7934 73.6249 33.9041C74.0174 34.1859 77.0063 32.1631 77.3987 31.8814C78.3045 31.3782 79.029 30.5328 79.8241 29.7378C80.6694 28.9529 81.0619 28.0471 81.7965 26.9804C82.8129 25.6319 83.145 24.5048 84.2218 23.0355C85.0068 22.9248 84.564 24.1022 83.769 25.5111L83.7589 25.5212ZM74.752 15.3872C76.5534 12.5191 76.8352 12.0662 78.4655 8.96664C79.0894 7.77914 79.5926 6.60171 80.2065 5.42427C80.4883 4.57893 80.6593 3.73359 80.77 2.88826C80.8807 2.60648 80.8807 2.4354 80.599 2.54609C80.3172 2.60648 80.1461 2.71718 79.975 2.82787C79.2404 3.10965 78.5661 3.67321 78.0629 4.45817C77.6705 4.91103 77.3887 5.41421 76.9358 5.86707C76.4326 6.49101 76.1509 7.10489 75.9194 7.83953C75.6376 8.40309 75.3558 9.07734 75.0741 9.6409C74.6816 10.8183 74.118 12.0058 73.5545 13.1833C73.3331 13.7468 73.162 14.3708 72.9305 14.9243C72.2563 16.8363 72.538 15.8803 71.9141 17.7924C71.743 18.2452 71.8537 19.5334 72.5884 18.7484C73.4337 17.5106 73.9973 16.6653 74.7319 15.3671L74.752 15.3872Z" fill="#3B3B42"/>
<path d="M86.5668 22.9852C86.5668 23.0959 86.4561 23.2066 86.3454 23.2669C86.285 23.3273 86.1743 23.3776 86.1743 23.5487C86.1139 23.7701 86.0636 23.8305 85.8925 23.8909C85.7818 23.9513 85.7818 24.0016 85.7215 24.3437C85.8322 24.3437 85.8926 24.3437 85.9429 24.4041V24.4645H85.5504C85.6108 24.2934 85.6108 24.1223 85.6108 24.0116H85.5001C85.4397 24.4041 85.3894 24.7966 85.329 25.1991C85.4397 25.2595 85.5001 25.3098 85.5504 25.3098C85.6108 25.7023 85.6108 26.0445 85.6108 26.437C85.6108 26.8294 85.7215 27.1716 85.8322 27.4534C86.0032 27.6748 86.4561 28.9126 86.6171 29.1441C87.4021 29.929 88.3581 30.9454 89.2638 31.0058C89.5456 31.0662 91.1759 30.7844 91.4577 30.724C92.8062 30.3316 94.1044 29.5969 95.3422 28.6409C96.2983 27.9062 97.204 27.0609 98.16 26.276C98.2204 26.2156 98.2707 26.1653 98.3311 26.1049C98.6733 25.7124 99.0054 25.3702 99.3475 24.9778C99.9715 24.3538 100.525 23.7399 101.038 23.0053C101.209 22.7235 101.38 22.4417 101.712 22.331C101.602 22.8342 101.491 23.2871 101.26 23.7399C101.199 23.911 101.089 24.0821 100.978 24.1928C100.636 24.5853 100.354 24.9274 100.132 25.3803C99.9614 25.6017 99.74 25.8332 99.5689 26.0546C99.5085 26.1149 99.4582 26.2256 99.3475 26.3967C99.5186 26.3363 99.6293 26.286 99.8004 26.2256C99.74 26.5678 99.4582 26.6181 99.4079 26.8999C99.4683 26.9603 99.4683 27.0106 99.579 27.071C99.4079 27.3527 99.2368 27.5238 99.0154 27.7452C98.6733 28.027 98.3412 28.3692 98.0594 28.7013C97.5562 29.2648 96.9927 29.7177 96.4291 30.1605C96.1473 30.3819 95.9259 30.6133 95.6441 30.7844C95.4227 30.9555 95.1913 31.0662 94.9699 31.2373C94.6277 31.4084 94.2956 31.5794 93.9535 31.8008C93.3899 32.143 92.776 32.4248 92.1521 32.5355C91.981 32.5959 91.8099 32.6462 91.6489 32.7066C90.9746 32.928 90.3004 33.0487 89.6261 33.099C88.8412 33.2097 85.5202 32.5959 84.7856 32.3141C82.8131 31.5291 82.4206 30.5731 81.525 29.7781C81.1828 29.4963 80.901 29.0434 80.74 28.5906C80.4582 27.8559 80.3978 27.071 80.3475 26.2256C80.3475 24.4846 80.8004 22.794 81.525 21.214C81.639 20.9859 81.6759 20.7041 81.6357 20.3686C81.3539 20.5397 81.1828 20.6504 81.0721 20.9926C80.901 21.4958 80.6796 21.9486 80.3978 22.4518C80.3978 21.9486 80.6192 21.6065 80.7903 21.214C81.2432 20.1976 81.7464 19.2415 82.3703 18.3459C82.9942 17.3898 83.6685 16.5445 84.4535 15.7595C85.2384 14.9142 86.0838 14.1796 86.9895 13.616C87.2109 13.5053 87.382 13.4449 87.553 13.3342C87.8348 13.2235 88.1166 13.1631 88.2877 13.4449C88.4588 13.616 88.6802 13.5556 88.7909 13.6663C88.9619 13.777 89.0123 14.0085 89.133 14.1192C89.6966 14.401 91.8401 14.9645 92.3433 15.2966C92.5144 15.4073 92.6251 15.6388 92.7358 15.8602C93.0175 16.3633 93.2389 16.9269 93.6415 17.2691C93.7522 17.3798 93.8126 17.6112 93.8629 17.7722C93.9736 18.4465 94.034 19.0704 93.8629 19.795C93.7522 20.58 93.41 21.3146 93.0175 21.9889C92.7961 22.3814 92.5647 22.7235 92.3936 23.1764C92.2829 23.5689 92.0514 23.911 91.83 24.3035C91.6086 24.7564 91.2061 25.0381 90.8136 25.1488C90.4715 25.3199 90.079 25.3702 89.7469 25.3199C89.5758 25.2595 89.4047 25.3199 89.294 25.0985C89.294 25.0381 89.2336 25.0381 89.2336 25.0381C88.7808 25.0985 88.499 24.5853 88.1669 24.4142C88.1065 24.3538 88.0562 24.1928 88.0562 24.1324C88.1669 23.911 88.0562 23.7903 87.9958 23.6292C87.7744 23.1764 87.543 22.6732 87.2612 22.2203C87.2008 22.0493 87.0398 21.9989 86.8687 22.16C86.8083 22.4417 86.5869 22.6631 86.5869 23.0053L86.5668 22.9852ZM81.2231 28.0572C81.2834 28.2283 81.3338 28.339 81.3941 28.5101C81.3941 28.6811 81.5652 28.7918 81.4545 29.0132C81.3941 28.9529 81.3438 28.9529 81.3438 28.9025C81.062 28.339 80.9513 27.6043 80.8406 26.8798C80.7803 26.8194 80.8406 26.7691 80.8406 26.7087C80.8406 25.8633 80.8406 25.0784 81.062 24.233C81.1224 24.062 81.1727 23.8909 81.1727 23.7299V23.3374C81.0017 23.6796 80.891 23.9009 80.8306 24.1223C80.7702 24.4041 80.7199 24.6255 80.6595 24.9073C80.4381 26.3665 80.4884 27.7251 81.1124 28.9025C81.2231 29.1239 81.3941 29.295 81.5652 29.5265C81.6759 29.6372 81.7866 29.6976 81.9577 29.7479C81.9577 29.8083 82.0181 29.7479 82.1288 29.7479C81.9577 29.4661 81.7866 29.2447 81.6759 28.9629C81.5048 28.6208 81.5048 28.2887 81.3338 28.0069C81.2734 28.0069 81.2231 28.0673 81.2231 28.0673V28.0572ZM81.2231 24.4544C80.9413 25.3602 81.0017 26.1954 81.1124 27.0408C81.1124 27.1012 81.1727 27.1012 81.2231 27.1515C81.2834 26.5275 81.3338 25.964 81.3941 25.4105C81.4545 25.018 81.5048 24.6255 81.3338 24.2834C81.2734 24.3437 81.2231 24.3941 81.2231 24.4544ZM88.3179 19.956C88.2072 20.1271 88.0361 20.3485 87.9254 20.58C87.704 20.9725 87.7543 21.2542 88.0361 21.4253C88.2072 21.536 88.4286 21.6467 88.5393 21.8178C88.8814 22.2103 89.3242 22.16 89.7771 22.0996C90.1696 21.9889 90.4513 21.5964 90.6727 21.1939C91.0652 20.2378 91.2967 20.0667 91.6288 19.1107C92.5345 16.9672 90.7231 17.4804 89.8878 18.1547C89.2638 18.6075 88.821 19.3321 88.3078 19.956H88.3179Z" fill="#3B3B42"/>
</g>
<defs>
<clipPath id="clip0_408_1285">
<rect width="101.07" height="37.76" fill="white" transform="scale(1.00636)"/>
</clipPath>
</defs>
</svg>
