<svg width="82" height="31" viewBox="0 0 82 31" fill="none" xmlns="http://www.w3.org/2000/svg">
<path d="M14.8954 17.1326C14.8954 9.891 4.35675 12.1871 4.35675 8.06587C4.35675 6.38794 5.56369 5.59312 7.18275 5.652C8.949 5.68144 10.0382 6.74119 10.1265 8.09531H14.6599C14.3949 4.38619 11.5101 2.23725 7.3005 2.23725C3.0615 2.23725 0.058875 4.4745 0.058875 8.18362C0.0294375 15.6313 10.6269 12.9525 10.6269 17.3976C10.6269 18.8694 9.47887 19.8997 7.536 19.8997C5.62256 19.8997 4.53337 18.8106 4.41562 17.1621H0C0.058875 21.0478 3.35587 23.2851 7.62431 23.2851C12.3049 23.2851 14.8954 20.3707 14.8954 17.1326Z" fill="white"/>
<path d="M17.4086 14.8954C17.4086 19.8997 20.7939 23.3145 24.9152 23.3145C27.3879 23.3145 29.2425 22.137 30.2433 20.8417V30.8505H34.394V6.77062H30.2433V8.89012C29.2425 7.62431 27.4468 6.53512 25.0035 6.53512C20.7939 6.53512 17.4086 9.891 17.4086 14.8954ZM30.2433 14.9248C30.2433 18.0746 28.065 19.7231 25.916 19.7231C23.7965 19.7231 21.6182 18.0452 21.6182 14.8954C21.6182 11.7456 23.7965 10.1265 25.916 10.1265C28.065 10.1265 30.2433 11.775 30.2433 14.9248Z" fill="white"/>
<path d="M53.815 6.77062H49.6643V15.7491C49.6643 18.369 48.2513 19.782 46.014 19.782C43.8356 19.782 42.3932 18.369 42.3932 15.7491V6.77062H38.272V16.3378C38.272 20.8123 41.0096 23.2851 44.8071 23.2851C46.8383 23.2851 48.634 22.4019 49.6643 21.0184V23.079H53.815V6.77062Z" fill="white"/>
<path d="M57.8812 23.079H62.0025V6.77062H57.8812V23.079ZM59.9713 4.82775C61.4137 4.82775 62.5029 3.768 62.5029 2.41387C62.5029 1.05975 61.4137 0 59.9713 0C58.4994 0 57.4397 1.05975 57.4397 2.41387C57.4397 3.768 58.4994 4.82775 59.9713 4.82775Z" fill="white"/>
<path d="M65.0145 14.8659C65.0145 19.9586 68.3115 23.3439 72.4622 23.3439C75.0233 23.3439 76.8484 22.1664 77.8198 20.6651V23.079H82V1.29525H77.8198V9.03731C76.7012 7.50656 74.6406 6.50569 72.4917 6.50569C68.3115 6.50569 65.0145 9.77325 65.0145 14.8659ZM77.8493 14.9248C77.8493 18.0157 75.7887 19.7231 73.522 19.7231C71.3142 19.7231 69.2241 17.9569 69.2241 14.8659C69.2241 11.775 71.3142 10.1265 73.522 10.1265C75.7887 10.1265 77.8493 11.8339 77.8493 14.9248Z" fill="white"/>
</svg>
