<svg width="96" height="26" viewBox="0 0 96 26" fill="none" xmlns="http://www.w3.org/2000/svg">
<path d="M1.33809 17.4252V4.65805C1.33809 2.61571 1.46888 1.71024 0 1.71024V1.40841H9.58793V1.71024C8.14924 1.71024 8.20961 2.24346 8.20961 4.65805V17.6566C8.20961 21.6105 10.2922 23.2906 13.4714 23.2906C17.053 23.2906 18.864 20.8056 18.864 17.6566V8.94395C18.864 6.19735 17.9887 1.71024 14.8095 1.71024V1.40841H23.5926L23.6227 1.71024C19.8701 1.71024 19.1658 6.19735 19.1658 8.94395V17.6566C19.1658 22.0833 16.218 25.2927 10.3224 25.2927C5.76483 25.2927 1.33809 22.8781 1.33809 17.4151V17.4252Z" fill="#3B3B42"/>
<path d="M38.6637 14.407C37.5269 15.7149 35.5851 15.8457 34.237 14.739C33.6031 14.1353 33.1605 13.4311 33.1605 12.6564C33.1605 12.2238 32.084 12.4552 30.7157 14.5378V21.2081C30.7157 23.0492 30.8867 24.3873 32.094 24.7293V25.001H23.7134V24.7293C24.9911 24.3571 25.0213 22.9184 25.0213 21.2081V13.0387C25.0213 11.8616 24.6189 11.3988 23.2405 10.8957V10.6241L30.7157 9.2156V13.9039C33.09 10.3223 34.0961 9.91985 35.1022 9.447C36.0379 9.01438 37.4464 9.2156 38.3217 9.98022C39.6296 11.1171 39.8006 13.1292 38.6537 14.407H38.6637Z" fill="#3B3B42"/>
<path d="M59.238 16.9927C59.238 23.6227 54.8112 25.3029 50.5253 25.3029C47.8793 25.3029 46.2998 24.6691 45.3943 23.824C44.3178 24.5282 40.7362 25.3633 40.7362 24.83V3.8231C40.7362 2.68623 40.4042 2.18319 39.0259 1.68015V1.40851L46.4004 0V11.7611C47.3763 10.0809 49.0464 9.21569 52.1652 9.21569C56.7932 9.21569 59.238 12.8376 59.238 16.9927ZM52.5073 17.4655C52.5073 13.5418 51.5717 10.2318 49.1571 10.2318C46.9135 10.2318 46.4105 12.9784 46.4105 15.564V19.1155C46.4105 22.9386 47.1852 25.0111 49.1873 25.0111C51.0686 25.0111 52.5073 22.838 52.5073 17.4756V17.4655Z" fill="#3B3B42"/>
<path d="M77.8002 22.8581C77.3274 24.3371 75.5868 25.3029 73.4741 25.3029C73.4741 25.3029 69.7516 25.3029 69.4498 22.2847C69.0172 24.0252 67.3068 25.3029 64.9224 25.3029C63.6447 25.3029 60.7371 24.7294 60.7371 21.8822C60.7371 18.532 63.4535 17.8982 69.4196 16.4897V14.3467C69.4196 10.8657 67.4477 8.9843 65.1337 10.1916C65.1337 10.1916 64.3992 10.6242 65.5361 11.0266C66.1096 11.2279 66.4718 11.7007 66.7434 12.3044C67.2464 13.5418 66.673 14.8799 65.4355 15.4232C64.2282 15.8961 62.8599 15.3226 62.3569 14.1153C62.0249 13.24 62.1859 12.2339 62.7593 11.6404C63.1618 11.2077 63.7654 10.6041 65.0029 9.93002C66.512 9.12515 68.1519 9.22576 68.1519 9.22576C72.5384 9.22576 74.9832 11.9724 74.9832 15.9262V20.9164C74.9832 20.9164 74.9832 23.331 76.5929 23.2606C76.5929 23.2606 77.428 23.2606 77.599 22.6871L77.8002 22.8581ZM69.4196 16.8217C66.673 17.4253 66.7032 19.4676 66.7032 21.0472C66.7032 21.0472 66.673 23.2606 68.0111 23.2606C68.5845 23.2606 69.0473 22.7877 69.4196 21.9828V16.8217Z" fill="#3B3B42"/>
<path d="M96.0001 24.7293V25.001H87.6195V24.7293C88.8972 24.3571 88.9575 22.8882 88.9575 21.1779V14.4472C88.9575 12.5357 88.2533 11.6302 86.6436 11.6302C85.9091 11.6302 85.1344 12.2338 84.6717 12.9381V21.2181C84.6717 23.0592 84.8427 24.3973 86.05 24.7394V25.011H77.6693V24.7394C78.9471 24.3672 78.9772 22.9586 78.9772 21.2181V13.0387C78.9772 11.8616 78.605 11.3988 77.2367 10.8957V10.6241L84.6717 9.2156V12.4652C85.5469 10.6945 87.3176 9.2156 89.1286 9.2156C91.8047 9.2156 94.6218 10.2921 94.6218 14.3064V21.1779C94.6218 23.019 94.823 24.4275 96.0001 24.7293Z" fill="#3B3B42"/>
</svg>
