<svg width="44" height="46" viewBox="0 0 44 46" fill="none" xmlns="http://www.w3.org/2000/svg">
<path d="M16.8008 35.1289C7.53679 35.1289 0 27.2495 0 17.5645C0 7.87937 7.53679 0 16.8008 0C26.0648 0 33.6016 7.87937 33.6016 17.5645C33.6016 27.2495 26.0648 35.1289 16.8008 35.1289ZM16.8008 3.59374C9.43228 3.59374 3.43749 9.86093 3.43749 17.5645C3.43749 25.268 9.4322 31.5352 16.8008 31.5352C24.1694 31.5352 30.1641 25.268 30.1641 17.5645C30.1641 9.86093 24.1693 3.59374 16.8008 3.59374ZM44 35.2188V24.9766C44 21.3421 42.2656 17.9759 39.3605 15.9721C38.5684 15.4257 37.5021 15.6541 36.9794 16.4825C36.4566 17.3109 36.6753 18.4254 37.4676 18.9719C39.4055 20.3086 40.5625 22.5532 40.5625 24.9767V35.2189C40.5625 39.1821 37.4784 42.4063 33.6875 42.4063H23.8906C21.6394 42.4063 19.5271 41.2505 18.2402 39.3146C17.6985 38.4996 16.6273 38.2982 15.848 38.8644C15.0684 39.4307 14.8758 40.5505 15.4173 41.3653C17.3465 44.2675 20.5141 46.0001 23.8907 46.0001H33.6876C39.3738 46 44 41.1635 44 35.2188Z" fill="white"/>
</svg>
