<svg width="86" height="20" viewBox="0 0 86 20" fill="none" xmlns="http://www.w3.org/2000/svg">
<path d="M30.6522 0.0100962V0.232214C29.5517 0.232214 27.8656 1.09039 25.8565 5.93659L21.0406 19.405H20.0511C17.4867 13.428 15.841 9.57124 14.7405 7.06737L10.3386 19.405H9.34912C2.39281 3.18032 2.03944 2.46348 2.03944 2.46348C1.10049 0.262502 0.716833 0.282695 0 0.232214V0.0100962H8.59191V0.232214C6.82506 0.232214 8.23854 3.42263 8.23854 3.42263L12.3982 12.8727L14.5992 6.7342C12.9232 2.82695 12.7516 2.46348 12.7516 2.46348C11.8126 0.262502 11.429 0.282695 10.7121 0.232214V0.0100962H19.304V0.232214C17.5372 0.232214 18.9507 3.42263 18.9507 3.42263L23.08 12.8929L25.5637 5.9265C26.2502 3.96782 25.6445 0.222117 22.8377 0.222117V0H30.6623L30.6522 0.0100962Z" fill="#3B3B42"/>
<path d="M39.0422 0.0101061H39.1835C46.15 15.9824 46.6144 16.891 46.6144 16.891C47.6038 19.092 48.5428 19.1223 49.088 19.1728V19.3949H39.446V19.1728C41.647 19.1728 40.0013 15.9521 40.0013 15.9521L39.123 14.054H33.7215C33.1662 15.316 33.671 19.1728 36.9725 19.1728V19.3949H29.0368V19.1728C29.8647 19.1122 31.3489 18.9002 33.4691 14.054L39.0422 0.0101061ZM36.2556 7.61258L33.8022 13.8117H39.0119L36.2556 7.61258Z" fill="#3B3B42"/>
<path d="M68.5132 0.0100962V0.232214C67.3319 0.232214 65.5651 1.09039 63.4146 5.93659L57.9929 19.405H57.1953C49.8149 3.18032 49.4313 2.46348 49.4313 2.46348C48.4418 0.262502 48.0279 0.292791 47.2606 0.232214V0.0100962H56.428V0.232214C54.5299 0.232214 56.0443 3.42263 56.0443 3.42263L60.315 12.9232L63.1521 5.9265C63.98 3.88706 63.4853 0.222117 60.1737 0.222117V0H68.5132V0.0100962Z" fill="#3B3B42"/>
<path d="M85.9998 14.0035V19.405H69.9165V19.1526C71.0776 19.1526 71.5117 17.4968 71.5117 15.629V3.80628C71.5117 2.10002 71.1281 0.222117 69.9165 0.222117V0H85.6465V5.6539H85.394C85.394 0.282695 77.8723 0.252406 77.8723 0.252406H76.8829V9.48038H79.1142C79.1142 9.48038 82.0623 9.56115 82.3652 6.22938H82.6176V12.9737H82.3652C82.0623 9.6722 79.1445 9.72268 79.1142 9.72268H76.8829V19.1425H77.8723C77.8723 19.1425 85.7474 19.4454 85.7474 13.9934H85.9998V14.0035Z" fill="#3B3B42"/>
</svg>
