<svg width="44" height="45" viewBox="0 0 44 45" fill="none" xmlns="http://www.w3.org/2000/svg">
<path d="M21.9999 28.396C20.0043 28.3961 18.0095 27.886 16.1904 26.8661L3.07367 19.5105C1.17162 18.444 -0.00591998 16.3815 0.000261118 14.128C0.00652463 11.8745 1.19552 9.81918 3.10342 8.76405L16.2532 1.49235C19.8516 -0.497449 24.1481 -0.497449 27.7465 1.49235L40.8963 8.76405C42.8042 9.81909 43.9932 11.8744 43.9994 14.128C44.0056 16.3815 42.8281 18.444 40.9261 19.5105L27.8092 26.8661C25.9907 27.886 23.9949 28.3959 21.9999 28.396ZM21.9999 3.59407C20.5781 3.59407 19.1565 3.95241 17.8605 4.66909L4.71083 11.9409C3.91636 12.3802 3.44041 13.2018 3.43786 14.1385C3.4353 15.0752 3.90655 15.8996 4.69864 16.3438L17.8155 23.6992C20.4359 25.1686 23.5643 25.1686 26.1846 23.6992L39.3016 16.3438C40.0937 15.8996 40.5649 15.0752 40.5623 14.1385C40.5598 13.2018 40.0838 12.3802 39.2894 11.9409L26.1392 4.66909C24.8432 3.95249 23.4216 3.59407 21.9999 3.59407ZM17.057 3.08072H17.0578H17.057ZM27.8093 43.1275L43.0932 34.5571C43.9297 34.0881 44.2441 32.9988 43.7955 32.1244C43.3468 31.2498 42.305 30.9211 41.4685 31.3902L26.1845 39.9606C23.5643 41.43 20.4358 41.43 17.8087 39.9569L2.52479 31.4764C1.68613 31.0111 0.645815 31.3446 0.200941 32.2211C-0.244098 33.0977 0.0748464 34.1853 0.913333 34.6506L16.1905 43.1274C18.0096 44.1475 20.0044 44.6574 21.9999 44.6574C23.9949 44.6575 25.9907 44.1474 27.8093 43.1275ZM27.8093 35.0418L43.0932 26.4714C43.9297 26.0023 44.2441 24.9131 43.7955 24.0386C43.3468 23.164 42.305 22.8355 41.4685 23.3044L26.1845 31.8749C23.5643 33.3443 20.4358 33.3442 17.8087 31.8712L2.52479 23.3906C1.68613 22.9253 0.645815 23.2589 0.200941 24.1354C-0.244098 25.012 0.0748464 26.0996 0.913333 26.5649L16.1905 35.0417C18.0096 36.0618 20.0044 36.5716 21.9999 36.5716C23.9949 36.5716 25.9907 36.0617 27.8093 35.0418Z" fill="white"/>
</svg>
