<svg width="70" height="24" viewBox="0 0 70 24" fill="none" xmlns="http://www.w3.org/2000/svg">
<path d="M11.5092 1.33003H11.6631C19.6876 19.7096 20.2263 20.7538 20.2263 20.7538C21.3695 23.2931 22.4468 23.3261 23.0733 23.3811V23.6339H11.9819V23.3811C14.5211 23.3811 12.6194 19.6766 12.6194 19.6766L11.6081 17.4891H5.38634C4.74878 18.9511 5.32039 23.3811 9.12381 23.3811V23.6339H0V23.3811C0.956351 23.3151 2.66019 23.0623 5.10054 17.4891L11.5092 1.33003ZM8.31036 10.0801L5.48528 17.2142H11.4762L8.31036 10.0801Z" fill="#3B3B42"/>
<path d="M31.1524 23.3921V23.645H23.2267V23.3921C24.4359 23.0404 24.4579 21.7103 24.4579 20.0614V3.61655C24.4579 2.5063 24.0732 2.0666 22.776 1.58293V1.3301L29.8442 0V20.0614C29.8442 21.8092 29.9981 23.0733 31.1414 23.3921H31.1524Z" fill="#3B3B42"/>
<path d="M39.9363 23.3921V23.6449H32.0107V23.3921C33.2199 23.0403 33.2419 21.6772 33.2419 20.0613V12.3226C33.2419 11.2123 32.8901 10.7726 31.593 10.289V10.0361L38.6282 8.70603V20.0503C38.6282 21.7981 38.7821 23.0623 39.9253 23.3811L39.9363 23.3921ZM32.5823 4.88062C32.5823 3.19876 33.9124 1.86867 35.5943 1.86867C37.2761 1.86867 38.6392 3.19876 38.6392 4.88062C38.6392 6.56248 37.2761 7.89258 35.5943 7.89258C33.9124 7.89258 32.5823 6.56248 32.5823 4.88062Z" fill="#3B3B42"/>
<path d="M51.5658 22.2159C51.5658 22.2159 50.3566 23.9307 46.6851 23.9307C43.0136 23.9307 41.0459 22.8535 41.0459 22.8535V18.6983H41.3317C41.9693 21.6443 44.5965 23.6449 46.6851 23.6449C48.9385 23.6449 49.4442 21.0177 47.0368 19.4348L43.838 17.5001C40.859 15.5324 40.0676 12.3996 42.0022 10.245C42.0022 10.245 43.1784 8.72806 46.784 8.72806C50.3896 8.72806 51.9505 9.61845 51.9505 9.61845V12.8503H51.6647C51.0931 10.0032 48.6198 9.01386 46.784 9.01386C44.7284 9.01386 43.7391 11.0695 46.4982 12.8173L49.697 14.8179C52.5771 16.5657 53.3136 20.1383 51.5658 22.2379V22.2159Z" fill="#3B3B42"/>
<path d="M69.9892 21.6114C69.5495 23.0075 67.9006 23.9199 65.9 23.9199C65.9 23.9199 62.3824 23.9199 62.0966 21.0728C61.6789 22.7217 60.063 23.9199 57.8205 23.9199C56.6113 23.9199 53.8632 23.3812 53.8632 20.688C53.8632 17.5222 56.4354 16.9176 62.0746 15.5875V13.5539C62.0746 10.2561 60.2059 8.48633 58.0183 9.61856C58.0183 9.61856 57.3258 10.0253 58.4031 10.41C58.9417 10.5969 59.2935 11.0476 59.5463 11.6192C60.019 12.7954 59.4804 14.0595 58.3151 14.5652C57.1719 15.0049 55.8748 14.4663 55.4021 13.334C55.0833 12.5096 55.2482 11.5642 55.7869 10.9926C56.1716 10.5749 56.7322 10.0143 57.9084 9.37672C59.3375 8.61824 60.8874 8.70618 60.8874 8.70618C65.0426 8.70618 67.351 11.3004 67.351 15.0489V19.7757C67.351 19.7757 67.351 22.0621 68.868 21.9962C68.868 21.9962 69.6594 21.9962 69.8133 21.4575L70.0002 21.6114H69.9892ZM62.0636 15.9063C59.4694 16.4779 59.4913 18.4126 59.4913 19.8966C59.4913 19.8966 59.4584 21.9852 60.7225 21.9852C61.2611 21.9852 61.7008 21.5455 62.0526 20.776V15.8953L62.0636 15.9063Z" fill="#3B3B42"/>
</svg>
