<svg width="44" height="44" viewBox="0 0 44 44" fill="none" xmlns="http://www.w3.org/2000/svg">
<path d="M33.6875 36.2969H10.3107C4.62536 36.2969 0 31.4613 0 25.5175V10.7812C0 4.83646 4.62618 0 10.3125 0H33.6875C39.3738 0 44 4.83646 44 10.7812V25.5156C44 31.4604 39.3738 36.2969 33.6875 36.2969ZM10.3125 3.59374C6.52159 3.59374 3.43749 6.81803 3.43749 10.7812V25.5175C3.43749 29.4796 6.52085 32.7031 10.3107 32.7031H33.6874C37.4783 32.7031 40.5624 29.4788 40.5624 25.5156V10.7812C40.5624 6.81803 37.4783 3.59374 33.6874 3.59374H10.3125ZM31.9687 41.6875C31.9687 40.6951 31.1992 39.8906 30.2499 39.8906H13.75C12.8007 39.8906 12.0312 40.6951 12.0312 41.6875C12.0312 42.6799 12.8007 43.4844 13.75 43.4844H30.25C31.1993 43.4844 31.9687 42.6799 31.9687 41.6875ZM16.1563 23.1797C15.207 23.1797 14.4375 22.3752 14.4375 21.3828V16.3515C14.4375 13.3791 16.7506 10.9609 19.5938 10.9609H24.4922C25.4415 10.9609 26.211 11.7654 26.211 12.7578C26.211 13.7502 25.4415 14.5547 24.4922 14.5547H19.5938C18.6461 14.5547 17.875 15.3608 17.875 16.3516V21.3829C17.875 22.3752 17.1056 23.1797 16.1563 23.1797ZM28.9732 26.2472C29.6445 25.5454 29.6445 24.4076 28.9732 23.7059L23.3013 17.7762C22.6301 17.0744 21.5418 17.0744 20.8706 17.7762C20.1994 18.478 20.1993 19.6157 20.8706 20.3173L26.5424 26.247C26.878 26.598 27.318 26.7733 27.7578 26.7733C28.1976 26.7735 28.6375 26.598 28.9732 26.2472Z" fill="white"/>
</svg>
